# Duet 2 dinner mesh — MIT licence
# mug: original parametric geometry, Duet 2 project 2026
# Author: scripts/author_dinner_meshes.py
mtllib mug.mtl
usemtl mug_cobalt

v   0.021000   0.000000   0.000000
v   0.020820   0.002741   0.000000
v   0.020284   0.005435   0.000000
v   0.019401   0.008036   0.000000
v   0.018187   0.010500   0.000000
v   0.016660   0.012784   0.000000
v   0.014849   0.014849   0.000000
v   0.012784   0.016660   0.000000
v   0.010500   0.018187   0.000000
v   0.008036   0.019401   0.000000
v   0.005435   0.020284   0.000000
v   0.002741   0.020820   0.000000
v   0.000000   0.021000   0.000000
v  -0.002741   0.020820   0.000000
v  -0.005435   0.020284   0.000000
v  -0.008036   0.019401   0.000000
v  -0.010500   0.018187   0.000000
v  -0.012784   0.016660   0.000000
v  -0.014849   0.014849   0.000000
v  -0.016660   0.012784   0.000000
v  -0.018187   0.010500   0.000000
v  -0.019401   0.008036   0.000000
v  -0.020284   0.005435   0.000000
v  -0.020820   0.002741   0.000000
v  -0.021000   0.000000   0.000000
v  -0.020820  -0.002741   0.000000
v  -0.020284  -0.005435   0.000000
v  -0.019401  -0.008036   0.000000
v  -0.018187  -0.010500   0.000000
v  -0.016660  -0.012784   0.000000
v  -0.014849  -0.014849   0.000000
v  -0.012784  -0.016660   0.000000
v  -0.010500  -0.018187   0.000000
v  -0.008036  -0.019401   0.000000
v  -0.005435  -0.020284   0.000000
v  -0.002741  -0.020820   0.000000
v  -0.000000  -0.021000   0.000000
v   0.002741  -0.020820   0.000000
v   0.005435  -0.020284   0.000000
v   0.008036  -0.019401   0.000000
v   0.010500  -0.018187   0.000000
v   0.012784  -0.016660   0.000000
v   0.014849  -0.014849   0.000000
v   0.016660  -0.012784   0.000000
v   0.018187  -0.010500   0.000000
v   0.019401  -0.008036   0.000000
v   0.020284  -0.005435   0.000000
v   0.020820  -0.002741   0.000000
v   0.024000   0.000000   0.003000
v   0.023795   0.003133   0.003000
v   0.023182   0.006212   0.003000
v   0.022173   0.009184   0.003000
v   0.020785   0.012000   0.003000
v   0.019040   0.014610   0.003000
v   0.016971   0.016971   0.003000
v   0.014610   0.019040   0.003000
v   0.012000   0.020785   0.003000
v   0.009184   0.022173   0.003000
v   0.006212   0.023182   0.003000
v   0.003133   0.023795   0.003000
v   0.000000   0.024000   0.003000
v  -0.003133   0.023795   0.003000
v  -0.006212   0.023182   0.003000
v  -0.009184   0.022173   0.003000
v  -0.012000   0.020785   0.003000
v  -0.014610   0.019040   0.003000
v  -0.016971   0.016971   0.003000
v  -0.019040   0.014610   0.003000
v  -0.020785   0.012000   0.003000
v  -0.022173   0.009184   0.003000
v  -0.023182   0.006212   0.003000
v  -0.023795   0.003133   0.003000
v  -0.024000   0.000000   0.003000
v  -0.023795  -0.003133   0.003000
v  -0.023182  -0.006212   0.003000
v  -0.022173  -0.009184   0.003000
v  -0.020785  -0.012000   0.003000
v  -0.019040  -0.014610   0.003000
v  -0.016971  -0.016971   0.003000
v  -0.014610  -0.019040   0.003000
v  -0.012000  -0.020785   0.003000
v  -0.009184  -0.022173   0.003000
v  -0.006212  -0.023182   0.003000
v  -0.003133  -0.023795   0.003000
v  -0.000000  -0.024000   0.003000
v   0.003133  -0.023795   0.003000
v   0.006212  -0.023182   0.003000
v   0.009184  -0.022173   0.003000
v   0.012000  -0.020785   0.003000
v   0.014610  -0.019040   0.003000
v   0.016971  -0.016971   0.003000
v   0.019040  -0.014610   0.003000
v   0.020785  -0.012000   0.003000
v   0.022173  -0.009184   0.003000
v   0.023182  -0.006212   0.003000
v   0.023795  -0.003133   0.003000
v   0.024000   0.000000   0.032000
v   0.023795   0.003133   0.032000
v   0.023182   0.006212   0.032000
v   0.022173   0.009184   0.032000
v   0.020785   0.012000   0.032000
v   0.019040   0.014610   0.032000
v   0.016971   0.016971   0.032000
v   0.014610   0.019040   0.032000
v   0.012000   0.020785   0.032000
v   0.009184   0.022173   0.032000
v   0.006212   0.023182   0.032000
v   0.003133   0.023795   0.032000
v   0.000000   0.024000   0.032000
v  -0.003133   0.023795   0.032000
v  -0.006212   0.023182   0.032000
v  -0.009184   0.022173   0.032000
v  -0.012000   0.020785   0.032000
v  -0.014610   0.019040   0.032000
v  -0.016971   0.016971   0.032000
v  -0.019040   0.014610   0.032000
v  -0.020785   0.012000   0.032000
v  -0.022173   0.009184   0.032000
v  -0.023182   0.006212   0.032000
v  -0.023795   0.003133   0.032000
v  -0.024000   0.000000   0.032000
v  -0.023795  -0.003133   0.032000
v  -0.023182  -0.006212   0.032000
v  -0.022173  -0.009184   0.032000
v  -0.020785  -0.012000   0.032000
v  -0.019040  -0.014610   0.032000
v  -0.016971  -0.016971   0.032000
v  -0.014610  -0.019040   0.032000
v  -0.012000  -0.020785   0.032000
v  -0.009184  -0.022173   0.032000
v  -0.006212  -0.023182   0.032000
v  -0.003133  -0.023795   0.032000
v  -0.000000  -0.024000   0.032000
v   0.003133  -0.023795   0.032000
v   0.006212  -0.023182   0.032000
v   0.009184  -0.022173   0.032000
v   0.012000  -0.020785   0.032000
v   0.014610  -0.019040   0.032000
v   0.016971  -0.016971   0.032000
v   0.019040  -0.014610   0.032000
v   0.020785  -0.012000   0.032000
v   0.022173  -0.009184   0.032000
v   0.023182  -0.006212   0.032000
v   0.023795  -0.003133   0.032000
v   0.025000   0.000000   0.054000
v   0.024786   0.003263   0.054000
v   0.024148   0.006470   0.054000
v   0.023097   0.009567   0.054000
v   0.021651   0.012500   0.054000
v   0.019834   0.015219   0.054000
v   0.017678   0.017678   0.054000
v   0.015219   0.019834   0.054000
v   0.012500   0.021651   0.054000
v   0.009567   0.023097   0.054000
v   0.006470   0.024148   0.054000
v   0.003263   0.024786   0.054000
v   0.000000   0.025000   0.054000
v  -0.003263   0.024786   0.054000
v  -0.006470   0.024148   0.054000
v  -0.009567   0.023097   0.054000
v  -0.012500   0.021651   0.054000
v  -0.015219   0.019834   0.054000
v  -0.017678   0.017678   0.054000
v  -0.019834   0.015219   0.054000
v  -0.021651   0.012500   0.054000
v  -0.023097   0.009567   0.054000
v  -0.024148   0.006470   0.054000
v  -0.024786   0.003263   0.054000
v  -0.025000   0.000000   0.054000
v  -0.024786  -0.003263   0.054000
v  -0.024148  -0.006470   0.054000
v  -0.023097  -0.009567   0.054000
v  -0.021651  -0.012500   0.054000
v  -0.019834  -0.015219   0.054000
v  -0.017678  -0.017678   0.054000
v  -0.015219  -0.019834   0.054000
v  -0.012500  -0.021651   0.054000
v  -0.009567  -0.023097   0.054000
v  -0.006470  -0.024148   0.054000
v  -0.003263  -0.024786   0.054000
v  -0.000000  -0.025000   0.054000
v   0.003263  -0.024786   0.054000
v   0.006470  -0.024148   0.054000
v   0.009567  -0.023097   0.054000
v   0.012500  -0.021651   0.054000
v   0.015219  -0.019834   0.054000
v   0.017678  -0.017678   0.054000
v   0.019834  -0.015219   0.054000
v   0.021651  -0.012500   0.054000
v   0.023097  -0.009567   0.054000
v   0.024148  -0.006470   0.054000
v   0.024786  -0.003263   0.054000
v   0.030000   0.000000   0.060000
v   0.029743   0.003916   0.060000
v   0.028978   0.007765   0.060000
v   0.027716   0.011481   0.060000
v   0.025981   0.015000   0.060000
v   0.023801   0.018263   0.060000
v   0.021213   0.021213   0.060000
v   0.018263   0.023801   0.060000
v   0.015000   0.025981   0.060000
v   0.011481   0.027716   0.060000
v   0.007765   0.028978   0.060000
v   0.003916   0.029743   0.060000
v   0.000000   0.030000   0.060000
v  -0.003916   0.029743   0.060000
v  -0.007765   0.028978   0.060000
v  -0.011481   0.027716   0.060000
v  -0.015000   0.025981   0.060000
v  -0.018263   0.023801   0.060000
v  -0.021213   0.021213   0.060000
v  -0.023801   0.018263   0.060000
v  -0.025981   0.015000   0.060000
v  -0.027716   0.011481   0.060000
v  -0.028978   0.007765   0.060000
v  -0.029743   0.003916   0.060000
v  -0.030000   0.000000   0.060000
v  -0.029743  -0.003916   0.060000
v  -0.028978  -0.007765   0.060000
v  -0.027716  -0.011481   0.060000
v  -0.025981  -0.015000   0.060000
v  -0.023801  -0.018263   0.060000
v  -0.021213  -0.021213   0.060000
v  -0.018263  -0.023801   0.060000
v  -0.015000  -0.025981   0.060000
v  -0.011481  -0.027716   0.060000
v  -0.007765  -0.028978   0.060000
v  -0.003916  -0.029743   0.060000
v  -0.000000  -0.030000   0.060000
v   0.003916  -0.029743   0.060000
v   0.007765  -0.028978   0.060000
v   0.011481  -0.027716   0.060000
v   0.015000  -0.025981   0.060000
v   0.018263  -0.023801   0.060000
v   0.021213  -0.021213   0.060000
v   0.023801  -0.018263   0.060000
v   0.025981  -0.015000   0.060000
v   0.027716  -0.011481   0.060000
v   0.028978  -0.007765   0.060000
v   0.029743  -0.003916   0.060000
v   0.030000   0.000000   0.064000
v   0.029743   0.003916   0.064000
v   0.028978   0.007765   0.064000
v   0.027716   0.011481   0.064000
v   0.025981   0.015000   0.064000
v   0.023801   0.018263   0.064000
v   0.021213   0.021213   0.064000
v   0.018263   0.023801   0.064000
v   0.015000   0.025981   0.064000
v   0.011481   0.027716   0.064000
v   0.007765   0.028978   0.064000
v   0.003916   0.029743   0.064000
v   0.000000   0.030000   0.064000
v  -0.003916   0.029743   0.064000
v  -0.007765   0.028978   0.064000
v  -0.011481   0.027716   0.064000
v  -0.015000   0.025981   0.064000
v  -0.018263   0.023801   0.064000
v  -0.021213   0.021213   0.064000
v  -0.023801   0.018263   0.064000
v  -0.025981   0.015000   0.064000
v  -0.027716   0.011481   0.064000
v  -0.028978   0.007765   0.064000
v  -0.029743   0.003916   0.064000
v  -0.030000   0.000000   0.064000
v  -0.029743  -0.003916   0.064000
v  -0.028978  -0.007765   0.064000
v  -0.027716  -0.011481   0.064000
v  -0.025981  -0.015000   0.064000
v  -0.023801  -0.018263   0.064000
v  -0.021213  -0.021213   0.064000
v  -0.018263  -0.023801   0.064000
v  -0.015000  -0.025981   0.064000
v  -0.011481  -0.027716   0.064000
v  -0.007765  -0.028978   0.064000
v  -0.003916  -0.029743   0.064000
v  -0.000000  -0.030000   0.064000
v   0.003916  -0.029743   0.064000
v   0.007765  -0.028978   0.064000
v   0.011481  -0.027716   0.064000
v   0.015000  -0.025981   0.064000
v   0.018263  -0.023801   0.064000
v   0.021213  -0.021213   0.064000
v   0.023801  -0.018263   0.064000
v   0.025981  -0.015000   0.064000
v   0.027716  -0.011481   0.064000
v   0.028978  -0.007765   0.064000
v   0.029743  -0.003916   0.064000
v   0.026000   0.000000   0.064000
v   0.025778   0.003394   0.064000
v   0.025114   0.006729   0.064000
v   0.024021   0.009950   0.064000
v   0.022517   0.013000   0.064000
v   0.020627   0.015828   0.064000
v   0.018385   0.018385   0.064000
v   0.015828   0.020627   0.064000
v   0.013000   0.022517   0.064000
v   0.009950   0.024021   0.064000
v   0.006729   0.025114   0.064000
v   0.003394   0.025778   0.064000
v   0.000000   0.026000   0.064000
v  -0.003394   0.025778   0.064000
v  -0.006729   0.025114   0.064000
v  -0.009950   0.024021   0.064000
v  -0.013000   0.022517   0.064000
v  -0.015828   0.020627   0.064000
v  -0.018385   0.018385   0.064000
v  -0.020627   0.015828   0.064000
v  -0.022517   0.013000   0.064000
v  -0.024021   0.009950   0.064000
v  -0.025114   0.006729   0.064000
v  -0.025778   0.003394   0.064000
v  -0.026000   0.000000   0.064000
v  -0.025778  -0.003394   0.064000
v  -0.025114  -0.006729   0.064000
v  -0.024021  -0.009950   0.064000
v  -0.022517  -0.013000   0.064000
v  -0.020627  -0.015828   0.064000
v  -0.018385  -0.018385   0.064000
v  -0.015828  -0.020627   0.064000
v  -0.013000  -0.022517   0.064000
v  -0.009950  -0.024021   0.064000
v  -0.006729  -0.025114   0.064000
v  -0.003394  -0.025778   0.064000
v  -0.000000  -0.026000   0.064000
v   0.003394  -0.025778   0.064000
v   0.006729  -0.025114   0.064000
v   0.009950  -0.024021   0.064000
v   0.013000  -0.022517   0.064000
v   0.015828  -0.020627   0.064000
v   0.018385  -0.018385   0.064000
v   0.020627  -0.015828   0.064000
v   0.022517  -0.013000   0.064000
v   0.024021  -0.009950   0.064000
v   0.025114  -0.006729   0.064000
v   0.025778  -0.003394   0.064000
v   0.000000   0.000000   0.000000
v   0.025242  -0.004000   0.051969
v   0.025242   0.004000   0.051969
v   0.037152   0.004000   0.051969
v   0.037152  -0.004000   0.051969
v   0.025242  -0.004000   0.057969
v   0.037152  -0.004000   0.057969
v   0.037152   0.004000   0.057969
v   0.025242   0.004000   0.057969
v   0.025242  -0.004000   0.051969
v   0.037152  -0.004000   0.051969
v   0.037152  -0.004000   0.057969
v   0.025242  -0.004000   0.057969
v   0.037152   0.004000   0.051969
v   0.025242   0.004000   0.051969
v   0.025242   0.004000   0.057969
v   0.037152   0.004000   0.057969
v   0.025242  -0.004000   0.051969
v   0.025242  -0.004000   0.057969
v   0.025242   0.004000   0.057969
v   0.025242   0.004000   0.051969
v   0.037152  -0.004000   0.051969
v   0.037152   0.004000   0.051969
v   0.037152   0.004000   0.057969
v   0.037152  -0.004000   0.057969
v   0.029671  -0.004000   0.051724
v   0.029671   0.004000   0.051724
v   0.041401   0.004000   0.051724
v   0.041401  -0.004000   0.051724
v   0.029671  -0.004000   0.057724
v   0.041401  -0.004000   0.057724
v   0.041401   0.004000   0.057724
v   0.029671   0.004000   0.057724
v   0.029671  -0.004000   0.051724
v   0.041401  -0.004000   0.051724
v   0.041401  -0.004000   0.057724
v   0.029671  -0.004000   0.057724
v   0.041401   0.004000   0.051724
v   0.029671   0.004000   0.051724
v   0.029671   0.004000   0.057724
v   0.041401   0.004000   0.057724
v   0.029671  -0.004000   0.051724
v   0.029671  -0.004000   0.057724
v   0.029671   0.004000   0.057724
v   0.029671   0.004000   0.051724
v   0.041401  -0.004000   0.051724
v   0.041401   0.004000   0.051724
v   0.041401   0.004000   0.057724
v   0.041401  -0.004000   0.057724
v   0.033940  -0.004000   0.051239
v   0.033940   0.004000   0.051239
v   0.045490   0.004000   0.051239
v   0.045490  -0.004000   0.051239
v   0.033940  -0.004000   0.057239
v   0.045490  -0.004000   0.057239
v   0.045490   0.004000   0.057239
v   0.033940   0.004000   0.057239
v   0.033940  -0.004000   0.051239
v   0.045490  -0.004000   0.051239
v   0.045490  -0.004000   0.057239
v   0.033940  -0.004000   0.057239
v   0.045490   0.004000   0.051239
v   0.033940   0.004000   0.051239
v   0.033940   0.004000   0.057239
v   0.045490   0.004000   0.057239
v   0.033940  -0.004000   0.051239
v   0.033940  -0.004000   0.057239
v   0.033940   0.004000   0.057239
v   0.033940   0.004000   0.051239
v   0.045490  -0.004000   0.051239
v   0.045490   0.004000   0.051239
v   0.045490   0.004000   0.057239
v   0.045490  -0.004000   0.057239
v   0.037945  -0.004000   0.050526
v   0.037945   0.004000   0.050526
v   0.049315   0.004000   0.050526
v   0.049315  -0.004000   0.050526
v   0.037945  -0.004000   0.056526
v   0.049315  -0.004000   0.056526
v   0.049315   0.004000   0.056526
v   0.037945   0.004000   0.056526
v   0.037945  -0.004000   0.050526
v   0.049315  -0.004000   0.050526
v   0.049315  -0.004000   0.056526
v   0.037945  -0.004000   0.056526
v   0.049315   0.004000   0.050526
v   0.037945   0.004000   0.050526
v   0.037945   0.004000   0.056526
v   0.049315   0.004000   0.056526
v   0.037945  -0.004000   0.050526
v   0.037945  -0.004000   0.056526
v   0.037945   0.004000   0.056526
v   0.037945   0.004000   0.050526
v   0.049315  -0.004000   0.050526
v   0.049315   0.004000   0.050526
v   0.049315   0.004000   0.056526
v   0.049315  -0.004000   0.056526
v   0.041590  -0.004000   0.049604
v   0.041590   0.004000   0.049604
v   0.052780   0.004000   0.049604
v   0.052780  -0.004000   0.049604
v   0.041590  -0.004000   0.055604
v   0.052780  -0.004000   0.055604
v   0.052780   0.004000   0.055604
v   0.041590   0.004000   0.055604
v   0.041590  -0.004000   0.049604
v   0.052780  -0.004000   0.049604
v   0.052780  -0.004000   0.055604
v   0.041590  -0.004000   0.055604
v   0.052780   0.004000   0.049604
v   0.041590   0.004000   0.049604
v   0.041590   0.004000   0.055604
v   0.052780   0.004000   0.055604
v   0.041590  -0.004000   0.049604
v   0.041590  -0.004000   0.055604
v   0.041590   0.004000   0.055604
v   0.041590   0.004000   0.049604
v   0.052780  -0.004000   0.049604
v   0.052780   0.004000   0.049604
v   0.052780   0.004000   0.055604
v   0.052780  -0.004000   0.055604
v   0.044786  -0.004000   0.048494
v   0.044786   0.004000   0.048494
v   0.055796   0.004000   0.048494
v   0.055796  -0.004000   0.048494
v   0.044786  -0.004000   0.054494
v   0.055796  -0.004000   0.054494
v   0.055796   0.004000   0.054494
v   0.044786   0.004000   0.054494
v   0.044786  -0.004000   0.048494
v   0.055796  -0.004000   0.048494
v   0.055796  -0.004000   0.054494
v   0.044786  -0.004000   0.054494
v   0.055796   0.004000   0.048494
v   0.044786   0.004000   0.048494
v   0.044786   0.004000   0.054494
v   0.055796   0.004000   0.054494
v   0.044786  -0.004000   0.048494
v   0.044786  -0.004000   0.054494
v   0.044786   0.004000   0.054494
v   0.044786   0.004000   0.048494
v   0.055796  -0.004000   0.048494
v   0.055796   0.004000   0.048494
v   0.055796   0.004000   0.054494
v   0.055796  -0.004000   0.054494
v   0.047459  -0.004000   0.047225
v   0.047459   0.004000   0.047225
v   0.058289   0.004000   0.047225
v   0.058289  -0.004000   0.047225
v   0.047459  -0.004000   0.053225
v   0.058289  -0.004000   0.053225
v   0.058289   0.004000   0.053225
v   0.047459   0.004000   0.053225
v   0.047459  -0.004000   0.047225
v   0.058289  -0.004000   0.047225
v   0.058289  -0.004000   0.053225
v   0.047459  -0.004000   0.053225
v   0.058289   0.004000   0.047225
v   0.047459   0.004000   0.047225
v   0.047459   0.004000   0.053225
v   0.058289   0.004000   0.053225
v   0.047459  -0.004000   0.047225
v   0.047459  -0.004000   0.053225
v   0.047459   0.004000   0.053225
v   0.047459   0.004000   0.047225
v   0.058289  -0.004000   0.047225
v   0.058289   0.004000   0.047225
v   0.058289   0.004000   0.053225
v   0.058289  -0.004000   0.053225
v   0.049544  -0.004000   0.045827
v   0.049544   0.004000   0.045827
v   0.060194   0.004000   0.045827
v   0.060194  -0.004000   0.045827
v   0.049544  -0.004000   0.051827
v   0.060194  -0.004000   0.051827
v   0.060194   0.004000   0.051827
v   0.049544   0.004000   0.051827
v   0.049544  -0.004000   0.045827
v   0.060194  -0.004000   0.045827
v   0.060194  -0.004000   0.051827
v   0.049544  -0.004000   0.051827
v   0.060194   0.004000   0.045827
v   0.049544   0.004000   0.045827
v   0.049544   0.004000   0.051827
v   0.060194   0.004000   0.051827
v   0.049544  -0.004000   0.045827
v   0.049544  -0.004000   0.051827
v   0.049544   0.004000   0.051827
v   0.049544   0.004000   0.045827
v   0.060194  -0.004000   0.045827
v   0.060194   0.004000   0.045827
v   0.060194   0.004000   0.051827
v   0.060194  -0.004000   0.051827
v   0.050991  -0.004000   0.044334
v   0.050991   0.004000   0.044334
v   0.061461   0.004000   0.044334
v   0.061461  -0.004000   0.044334
v   0.050991  -0.004000   0.050334
v   0.061461  -0.004000   0.050334
v   0.061461   0.004000   0.050334
v   0.050991   0.004000   0.050334
v   0.050991  -0.004000   0.044334
v   0.061461  -0.004000   0.044334
v   0.061461  -0.004000   0.050334
v   0.050991  -0.004000   0.050334
v   0.061461   0.004000   0.044334
v   0.050991   0.004000   0.044334
v   0.050991   0.004000   0.050334
v   0.061461   0.004000   0.050334
v   0.050991  -0.004000   0.044334
v   0.050991  -0.004000   0.050334
v   0.050991   0.004000   0.050334
v   0.050991   0.004000   0.044334
v   0.061461  -0.004000   0.044334
v   0.061461   0.004000   0.044334
v   0.061461   0.004000   0.050334
v   0.061461  -0.004000   0.050334
v   0.051769  -0.004000   0.042785
v   0.051769   0.004000   0.042785
v   0.062059   0.004000   0.042785
v   0.062059  -0.004000   0.042785
v   0.051769  -0.004000   0.048785
v   0.062059  -0.004000   0.048785
v   0.062059   0.004000   0.048785
v   0.051769   0.004000   0.048785
v   0.051769  -0.004000   0.042785
v   0.062059  -0.004000   0.042785
v   0.062059  -0.004000   0.048785
v   0.051769  -0.004000   0.048785
v   0.062059   0.004000   0.042785
v   0.051769   0.004000   0.042785
v   0.051769   0.004000   0.048785
v   0.062059   0.004000   0.048785
v   0.051769  -0.004000   0.042785
v   0.051769  -0.004000   0.048785
v   0.051769   0.004000   0.048785
v   0.051769   0.004000   0.042785
v   0.062059  -0.004000   0.042785
v   0.062059   0.004000   0.042785
v   0.062059   0.004000   0.048785
v   0.062059  -0.004000   0.048785
v   0.051900  -0.004000   0.028000
v   0.051900   0.004000   0.028000
v   0.062100   0.004000   0.028000
v   0.062100  -0.004000   0.028000
v   0.051900  -0.004000   0.045000
v   0.062100  -0.004000   0.045000
v   0.062100   0.004000   0.045000
v   0.051900   0.004000   0.045000
v   0.051900  -0.004000   0.028000
v   0.062100  -0.004000   0.028000
v   0.062100  -0.004000   0.045000
v   0.051900  -0.004000   0.045000
v   0.062100   0.004000   0.028000
v   0.051900   0.004000   0.028000
v   0.051900   0.004000   0.045000
v   0.062100   0.004000   0.045000
v   0.051900  -0.004000   0.028000
v   0.051900  -0.004000   0.045000
v   0.051900   0.004000   0.045000
v   0.051900   0.004000   0.028000
v   0.062100  -0.004000   0.028000
v   0.062100   0.004000   0.028000
v   0.062100   0.004000   0.045000
v   0.062100  -0.004000   0.045000
v   0.049658  -0.004000   0.015785
v   0.049658   0.004000   0.015785
v   0.059948   0.004000   0.015785
v   0.059948  -0.004000   0.015785
v   0.049658  -0.004000   0.021785
v   0.059948  -0.004000   0.021785
v   0.059948   0.004000   0.021785
v   0.049658   0.004000   0.021785
v   0.049658  -0.004000   0.015785
v   0.059948  -0.004000   0.015785
v   0.059948  -0.004000   0.021785
v   0.049658  -0.004000   0.021785
v   0.059948   0.004000   0.015785
v   0.049658   0.004000   0.015785
v   0.049658   0.004000   0.021785
v   0.059948   0.004000   0.021785
v   0.049658  -0.004000   0.015785
v   0.049658  -0.004000   0.021785
v   0.049658   0.004000   0.021785
v   0.049658   0.004000   0.015785
v   0.059948  -0.004000   0.015785
v   0.059948   0.004000   0.015785
v   0.059948   0.004000   0.021785
v   0.059948  -0.004000   0.021785
v   0.045229  -0.004000   0.017334
v   0.045229   0.004000   0.017334
v   0.055699   0.004000   0.017334
v   0.055699  -0.004000   0.017334
v   0.045229  -0.004000   0.023334
v   0.055699  -0.004000   0.023334
v   0.055699   0.004000   0.023334
v   0.045229   0.004000   0.023334
v   0.045229  -0.004000   0.017334
v   0.055699  -0.004000   0.017334
v   0.055699  -0.004000   0.023334
v   0.045229  -0.004000   0.023334
v   0.055699   0.004000   0.017334
v   0.045229   0.004000   0.017334
v   0.045229   0.004000   0.023334
v   0.055699   0.004000   0.023334
v   0.045229  -0.004000   0.017334
v   0.045229  -0.004000   0.023334
v   0.045229   0.004000   0.023334
v   0.045229   0.004000   0.017334
v   0.055699  -0.004000   0.017334
v   0.055699   0.004000   0.017334
v   0.055699   0.004000   0.023334
v   0.055699  -0.004000   0.023334
v   0.040960  -0.004000   0.018827
v   0.040960   0.004000   0.018827
v   0.051610   0.004000   0.018827
v   0.051610  -0.004000   0.018827
v   0.040960  -0.004000   0.024827
v   0.051610  -0.004000   0.024827
v   0.051610   0.004000   0.024827
v   0.040960   0.004000   0.024827
v   0.040960  -0.004000   0.018827
v   0.051610  -0.004000   0.018827
v   0.051610  -0.004000   0.024827
v   0.040960  -0.004000   0.024827
v   0.051610   0.004000   0.018827
v   0.040960   0.004000   0.018827
v   0.040960   0.004000   0.024827
v   0.051610   0.004000   0.024827
v   0.040960  -0.004000   0.018827
v   0.040960  -0.004000   0.024827
v   0.040960   0.004000   0.024827
v   0.040960   0.004000   0.018827
v   0.051610  -0.004000   0.018827
v   0.051610   0.004000   0.018827
v   0.051610   0.004000   0.024827
v   0.051610  -0.004000   0.024827
v   0.036955  -0.004000   0.020225
v   0.036955   0.004000   0.020225
v   0.047785   0.004000   0.020225
v   0.047785  -0.004000   0.020225
v   0.036955  -0.004000   0.026225
v   0.047785  -0.004000   0.026225
v   0.047785   0.004000   0.026225
v   0.036955   0.004000   0.026225
v   0.036955  -0.004000   0.020225
v   0.047785  -0.004000   0.020225
v   0.047785  -0.004000   0.026225
v   0.036955  -0.004000   0.026225
v   0.047785   0.004000   0.020225
v   0.036955   0.004000   0.020225
v   0.036955   0.004000   0.026225
v   0.047785   0.004000   0.026225
v   0.036955  -0.004000   0.020225
v   0.036955  -0.004000   0.026225
v   0.036955   0.004000   0.026225
v   0.036955   0.004000   0.020225
v   0.047785  -0.004000   0.020225
v   0.047785   0.004000   0.020225
v   0.047785   0.004000   0.026225
v   0.047785  -0.004000   0.026225
v   0.033310  -0.004000   0.021494
v   0.033310   0.004000   0.021494
v   0.044320   0.004000   0.021494
v   0.044320  -0.004000   0.021494
v   0.033310  -0.004000   0.027494
v   0.044320  -0.004000   0.027494
v   0.044320   0.004000   0.027494
v   0.033310   0.004000   0.027494
v   0.033310  -0.004000   0.021494
v   0.044320  -0.004000   0.021494
v   0.044320  -0.004000   0.027494
v   0.033310  -0.004000   0.027494
v   0.044320   0.004000   0.021494
v   0.033310   0.004000   0.021494
v   0.033310   0.004000   0.027494
v   0.044320   0.004000   0.027494
v   0.033310  -0.004000   0.021494
v   0.033310  -0.004000   0.027494
v   0.033310   0.004000   0.027494
v   0.033310   0.004000   0.021494
v   0.044320  -0.004000   0.021494
v   0.044320   0.004000   0.021494
v   0.044320   0.004000   0.027494
v   0.044320  -0.004000   0.027494
v   0.030114  -0.004000   0.022604
v   0.030114   0.004000   0.022604
v   0.041304   0.004000   0.022604
v   0.041304  -0.004000   0.022604
v   0.030114  -0.004000   0.028604
v   0.041304  -0.004000   0.028604
v   0.041304   0.004000   0.028604
v   0.030114   0.004000   0.028604
v   0.030114  -0.004000   0.022604
v   0.041304  -0.004000   0.022604
v   0.041304  -0.004000   0.028604
v   0.030114  -0.004000   0.028604
v   0.041304   0.004000   0.022604
v   0.030114   0.004000   0.022604
v   0.030114   0.004000   0.028604
v   0.041304   0.004000   0.028604
v   0.030114  -0.004000   0.022604
v   0.030114  -0.004000   0.028604
v   0.030114   0.004000   0.028604
v   0.030114   0.004000   0.022604
v   0.041304  -0.004000   0.022604
v   0.041304   0.004000   0.022604
v   0.041304   0.004000   0.028604
v   0.041304  -0.004000   0.028604
v   0.027441  -0.004000   0.023526
v   0.027441   0.004000   0.023526
v   0.038811   0.004000   0.023526
v   0.038811  -0.004000   0.023526
v   0.027441  -0.004000   0.029526
v   0.038811  -0.004000   0.029526
v   0.038811   0.004000   0.029526
v   0.027441   0.004000   0.029526
v   0.027441  -0.004000   0.023526
v   0.038811  -0.004000   0.023526
v   0.038811  -0.004000   0.029526
v   0.027441  -0.004000   0.029526
v   0.038811   0.004000   0.023526
v   0.027441   0.004000   0.023526
v   0.027441   0.004000   0.029526
v   0.038811   0.004000   0.029526
v   0.027441  -0.004000   0.023526
v   0.027441  -0.004000   0.029526
v   0.027441   0.004000   0.029526
v   0.027441   0.004000   0.023526
v   0.038811  -0.004000   0.023526
v   0.038811   0.004000   0.023526
v   0.038811   0.004000   0.029526
v   0.038811  -0.004000   0.029526
v   0.025356  -0.004000   0.024239
v   0.025356   0.004000   0.024239
v   0.036906   0.004000   0.024239
v   0.036906  -0.004000   0.024239
v   0.025356  -0.004000   0.030239
v   0.036906  -0.004000   0.030239
v   0.036906   0.004000   0.030239
v   0.025356   0.004000   0.030239
v   0.025356  -0.004000   0.024239
v   0.036906  -0.004000   0.024239
v   0.036906  -0.004000   0.030239
v   0.025356  -0.004000   0.030239
v   0.036906   0.004000   0.024239
v   0.025356   0.004000   0.024239
v   0.025356   0.004000   0.030239
v   0.036906   0.004000   0.030239
v   0.025356  -0.004000   0.024239
v   0.025356  -0.004000   0.030239
v   0.025356   0.004000   0.030239
v   0.025356   0.004000   0.024239
v   0.036906  -0.004000   0.024239
v   0.036906   0.004000   0.024239
v   0.036906   0.004000   0.030239
v   0.036906  -0.004000   0.030239
v   0.023909  -0.004000   0.024724
v   0.023909   0.004000   0.024724
v   0.035639   0.004000   0.024724
v   0.035639  -0.004000   0.024724
v   0.023909  -0.004000   0.030724
v   0.035639  -0.004000   0.030724
v   0.035639   0.004000   0.030724
v   0.023909   0.004000   0.030724
v   0.023909  -0.004000   0.024724
v   0.035639  -0.004000   0.024724
v   0.035639  -0.004000   0.030724
v   0.023909  -0.004000   0.030724
v   0.035639   0.004000   0.024724
v   0.023909   0.004000   0.024724
v   0.023909   0.004000   0.030724
v   0.035639   0.004000   0.030724
v   0.023909  -0.004000   0.024724
v   0.023909  -0.004000   0.030724
v   0.023909   0.004000   0.030724
v   0.023909   0.004000   0.024724
v   0.035639  -0.004000   0.024724
v   0.035639   0.004000   0.024724
v   0.035639   0.004000   0.030724
v   0.035639  -0.004000   0.030724
v   0.023131  -0.004000   0.024969
v   0.023131   0.004000   0.024969
v   0.035041   0.004000   0.024969
v   0.035041  -0.004000   0.024969
v   0.023131  -0.004000   0.030969
v   0.035041  -0.004000   0.030969
v   0.035041   0.004000   0.030969
v   0.023131   0.004000   0.030969
v   0.023131  -0.004000   0.024969
v   0.035041  -0.004000   0.024969
v   0.035041  -0.004000   0.030969
v   0.023131  -0.004000   0.030969
v   0.035041   0.004000   0.024969
v   0.023131   0.004000   0.024969
v   0.023131   0.004000   0.030969
v   0.035041   0.004000   0.030969
v   0.023131  -0.004000   0.024969
v   0.023131  -0.004000   0.030969
v   0.023131   0.004000   0.030969
v   0.023131   0.004000   0.024969
v   0.035041  -0.004000   0.024969
v   0.035041   0.004000   0.024969
v   0.035041   0.004000   0.030969
v   0.035041  -0.004000   0.030969

vn  0.228191 -0.000000 -0.973616
vn  0.226239  0.029785 -0.973616
vn  0.220416  0.059060 -0.973616
vn  0.210821  0.087325 -0.973616
vn  0.197619  0.114096 -0.973616
vn  0.181036  0.138914 -0.973616
vn  0.161356  0.161356 -0.973616
vn  0.138914  0.181036 -0.973616
vn  0.114096  0.197619 -0.973616
vn  0.087325  0.210821 -0.973616
vn  0.059060  0.220416 -0.973616
vn  0.029785  0.226239 -0.973616
vn  0.000000  0.228191 -0.973616
vn -0.029785  0.226239 -0.973616
vn -0.059060  0.220416 -0.973616
vn -0.087325  0.210821 -0.973616
vn -0.114096  0.197619 -0.973616
vn -0.138914  0.181036 -0.973616
vn -0.161356  0.161356 -0.973616
vn -0.181036  0.138914 -0.973616
vn -0.197619  0.114096 -0.973616
vn -0.210821  0.087325 -0.973616
vn -0.220416  0.059060 -0.973616
vn -0.226239  0.029785 -0.973616
vn -0.228191  0.000000 -0.973616
vn -0.226239 -0.029785 -0.973616
vn -0.220416 -0.059060 -0.973616
vn -0.210821 -0.087325 -0.973616
vn -0.197619 -0.114096 -0.973616
vn -0.181036 -0.138914 -0.973616
vn -0.161356 -0.161356 -0.973616
vn -0.138914 -0.181036 -0.973616
vn -0.114096 -0.197619 -0.973616
vn -0.087325 -0.210821 -0.973616
vn -0.059060 -0.220416 -0.973616
vn -0.029785 -0.226239 -0.973616
vn -0.000000 -0.228191 -0.973616
vn  0.029785 -0.226239 -0.973616
vn  0.059060 -0.220416 -0.973616
vn  0.087325 -0.210821 -0.973616
vn  0.114096 -0.197619 -0.973616
vn  0.138914 -0.181036 -0.973616
vn  0.161356 -0.161356 -0.973616
vn  0.181036 -0.138914 -0.973616
vn  0.197619 -0.114096 -0.973616
vn  0.210821 -0.087325 -0.973616
vn  0.220416 -0.059060 -0.973616
vn  0.226239 -0.029785 -0.973616
vn  0.996115 -0.000000 -0.088065
vn  0.987593  0.130019 -0.088065
vn  0.962173  0.257813 -0.088065
vn  0.920290  0.381197 -0.088065
vn  0.862661  0.498057 -0.088065
vn  0.790271  0.606396 -0.088065
vn  0.704359  0.704359 -0.088065
vn  0.606396  0.790271 -0.088065
vn  0.498057  0.862661 -0.088065
vn  0.381197  0.920290 -0.088065
vn  0.257813  0.962173 -0.088065
vn  0.130019  0.987593 -0.088065
vn  0.000000  0.996115 -0.088065
vn -0.130019  0.987593 -0.088065
vn -0.257813  0.962173 -0.088065
vn -0.381197  0.920290 -0.088065
vn -0.498057  0.862661 -0.088065
vn -0.606396  0.790271 -0.088065
vn -0.704359  0.704359 -0.088065
vn -0.790271  0.606396 -0.088065
vn -0.862661  0.498057 -0.088065
vn -0.920290  0.381197 -0.088065
vn -0.962173  0.257813 -0.088065
vn -0.987593  0.130019 -0.088065
vn -0.996115  0.000000 -0.088065
vn -0.987593 -0.130019 -0.088065
vn -0.962173 -0.257813 -0.088065
vn -0.920290 -0.381197 -0.088065
vn -0.862661 -0.498057 -0.088065
vn -0.790271 -0.606396 -0.088065
vn -0.704359 -0.704359 -0.088065
vn -0.606396 -0.790271 -0.088065
vn -0.498057 -0.862661 -0.088065
vn -0.381197 -0.920290 -0.088065
vn -0.257813 -0.962173 -0.088065
vn -0.130019 -0.987593 -0.088065
vn -0.000000 -0.996115 -0.088065
vn  0.130019 -0.987593 -0.088065
vn  0.257813 -0.962173 -0.088065
vn  0.381197 -0.920290 -0.088065
vn  0.498057 -0.862661 -0.088065
vn  0.606396 -0.790271 -0.088065
vn  0.704359 -0.704359 -0.088065
vn  0.790271 -0.606396 -0.088065
vn  0.862661 -0.498057 -0.088065
vn  0.920290 -0.381197 -0.088065
vn  0.962173 -0.257813 -0.088065
vn  0.987593 -0.130019 -0.088065
vn  0.999803 -0.000000 -0.019834
vn  0.991250  0.130501 -0.019834
vn  0.965736  0.258768 -0.019834
vn  0.923698  0.382608 -0.019834
vn  0.865855  0.499902 -0.019834
vn  0.793197  0.608642 -0.019834
vn  0.706968  0.706968 -0.019834
vn  0.608642  0.793197 -0.019834
vn  0.499902  0.865855 -0.019834
vn  0.382608  0.923698 -0.019834
vn  0.258768  0.965736 -0.019834
vn  0.130501  0.991250 -0.019834
vn  0.000000  0.999803 -0.019834
vn -0.130501  0.991250 -0.019834
vn -0.258768  0.965736 -0.019834
vn -0.382608  0.923698 -0.019834
vn -0.499902  0.865855 -0.019834
vn -0.608642  0.793197 -0.019834
vn -0.706968  0.706968 -0.019834
vn -0.793197  0.608642 -0.019834
vn -0.865855  0.499902 -0.019834
vn -0.923698  0.382608 -0.019834
vn -0.965736  0.258768 -0.019834
vn -0.991250  0.130501 -0.019834
vn -0.999803  0.000000 -0.019834
vn -0.991250 -0.130501 -0.019834
vn -0.965736 -0.258768 -0.019834
vn -0.923698 -0.382608 -0.019834
vn -0.865855 -0.499902 -0.019834
vn -0.793197 -0.608642 -0.019834
vn -0.706968 -0.706968 -0.019834
vn -0.608642 -0.793197 -0.019834
vn -0.499902 -0.865855 -0.019834
vn -0.382608 -0.923698 -0.019834
vn -0.258768 -0.965736 -0.019834
vn -0.130501 -0.991250 -0.019834
vn -0.000000 -0.999803 -0.019834
vn  0.130501 -0.991250 -0.019834
vn  0.258768 -0.965736 -0.019834
vn  0.382608 -0.923698 -0.019834
vn  0.499902 -0.865855 -0.019834
vn  0.608642 -0.793197 -0.019834
vn  0.706968 -0.706968 -0.019834
vn  0.793197 -0.608642 -0.019834
vn  0.865855 -0.499902 -0.019834
vn  0.923698 -0.382608 -0.019834
vn  0.965736 -0.258768 -0.019834
vn  0.991250 -0.130501 -0.019834
vn  0.974531 -0.000000 -0.224253
vn  0.966194  0.127202 -0.224253
vn  0.941325  0.252227 -0.224253
vn  0.900349  0.372937 -0.224253
vn  0.843969  0.487265 -0.224253
vn  0.773147  0.593257 -0.224253
vn  0.689097  0.689097 -0.224253
vn  0.593257  0.773147 -0.224253
vn  0.487265  0.843969 -0.224253
vn  0.372937  0.900349 -0.224253
vn  0.252227  0.941325 -0.224253
vn  0.127202  0.966194 -0.224253
vn  0.000000  0.974531 -0.224253
vn -0.127202  0.966194 -0.224253
vn -0.252227  0.941325 -0.224253
vn -0.372937  0.900349 -0.224253
vn -0.487265  0.843969 -0.224253
vn -0.593257  0.773147 -0.224253
vn -0.689097  0.689097 -0.224253
vn -0.773147  0.593257 -0.224253
vn -0.843969  0.487265 -0.224253
vn -0.900349  0.372937 -0.224253
vn -0.941325  0.252227 -0.224253
vn -0.966194  0.127202 -0.224253
vn -0.974531  0.000000 -0.224253
vn -0.966194 -0.127202 -0.224253
vn -0.941325 -0.252227 -0.224253
vn -0.900349 -0.372937 -0.224253
vn -0.843969 -0.487265 -0.224253
vn -0.773147 -0.593257 -0.224253
vn -0.689097 -0.689097 -0.224253
vn -0.593257 -0.773147 -0.224253
vn -0.487265 -0.843969 -0.224253
vn -0.372937 -0.900349 -0.224253
vn -0.252227 -0.941325 -0.224253
vn -0.127202 -0.966194 -0.224253
vn -0.000000 -0.974531 -0.224253
vn  0.127202 -0.966194 -0.224253
vn  0.252227 -0.941325 -0.224253
vn  0.372937 -0.900349 -0.224253
vn  0.487265 -0.843969 -0.224253
vn  0.593257 -0.773147 -0.224253
vn  0.689097 -0.689097 -0.224253
vn  0.773147 -0.593257 -0.224253
vn  0.843969 -0.487265 -0.224253
vn  0.900349 -0.372937 -0.224253
vn  0.941325 -0.252227 -0.224253
vn  0.966194 -0.127202 -0.224253
vn  0.900658 -0.000000 -0.434528
vn  0.892953  0.117559 -0.434528
vn  0.869969  0.233108 -0.434528
vn  0.832100  0.344667 -0.434528
vn  0.779993  0.450329 -0.434528
vn  0.714540  0.548286 -0.434528
vn  0.636862  0.636862 -0.434528
vn  0.548286  0.714540 -0.434528
vn  0.450329  0.779993 -0.434528
vn  0.344667  0.832100 -0.434528
vn  0.233108  0.869969 -0.434528
vn  0.117559  0.892953 -0.434528
vn  0.000000  0.900658 -0.434528
vn -0.117559  0.892953 -0.434528
vn -0.233108  0.869969 -0.434528
vn -0.344667  0.832100 -0.434528
vn -0.450329  0.779993 -0.434528
vn -0.548286  0.714540 -0.434528
vn -0.636862  0.636862 -0.434528
vn -0.714540  0.548286 -0.434528
vn -0.779993  0.450329 -0.434528
vn -0.832100  0.344667 -0.434528
vn -0.869969  0.233108 -0.434528
vn -0.892953  0.117559 -0.434528
vn -0.900658  0.000000 -0.434528
vn -0.892953 -0.117559 -0.434528
vn -0.869969 -0.233108 -0.434528
vn -0.832100 -0.344667 -0.434528
vn -0.779993 -0.450329 -0.434528
vn -0.714540 -0.548286 -0.434528
vn -0.636862 -0.636862 -0.434528
vn -0.548286 -0.714540 -0.434528
vn -0.450329 -0.779993 -0.434528
vn -0.344667 -0.832100 -0.434528
vn -0.233108 -0.869969 -0.434528
vn -0.117559 -0.892953 -0.434528
vn -0.000000 -0.900658 -0.434528
vn  0.117559 -0.892953 -0.434528
vn  0.233108 -0.869969 -0.434528
vn  0.344667 -0.832100 -0.434528
vn  0.450329 -0.779993 -0.434528
vn  0.548286 -0.714540 -0.434528
vn  0.636862 -0.636862 -0.434528
vn  0.714540 -0.548286 -0.434528
vn  0.779993 -0.450329 -0.434528
vn  0.832100 -0.344667 -0.434528
vn  0.869969 -0.233108 -0.434528
vn  0.892953 -0.117559 -0.434528
vn  0.731055 -0.000000  0.682318
vn  0.724801  0.095422  0.682318
vn  0.706145  0.189211  0.682318
vn  0.675407  0.279763  0.682318
vn  0.633112  0.365528  0.682318
vn  0.579985  0.445038  0.682318
vn  0.516934  0.516934  0.682318
vn  0.445038  0.579985  0.682318
vn  0.365528  0.633112  0.682318
vn  0.279763  0.675407  0.682318
vn  0.189211  0.706145  0.682318
vn  0.095422  0.724801  0.682318
vn  0.000000  0.731055  0.682318
vn -0.095422  0.724801  0.682318
vn -0.189211  0.706145  0.682318
vn -0.279763  0.675407  0.682318
vn -0.365528  0.633112  0.682318
vn -0.445038  0.579985  0.682318
vn -0.516934  0.516934  0.682318
vn -0.579985  0.445038  0.682318
vn -0.633112  0.365528  0.682318
vn -0.675407  0.279763  0.682318
vn -0.706145  0.189211  0.682318
vn -0.724801  0.095422  0.682318
vn -0.731055  0.000000  0.682318
vn -0.724801 -0.095422  0.682318
vn -0.706145 -0.189211  0.682318
vn -0.675407 -0.279763  0.682318
vn -0.633112 -0.365528  0.682318
vn -0.579985 -0.445038  0.682318
vn -0.516934 -0.516934  0.682318
vn -0.445038 -0.579985  0.682318
vn -0.365528 -0.633112  0.682318
vn -0.279763 -0.675407  0.682318
vn -0.189211 -0.706145  0.682318
vn -0.095422 -0.724801  0.682318
vn -0.000000 -0.731055  0.682318
vn  0.095422 -0.724801  0.682318
vn  0.189211 -0.706145  0.682318
vn  0.279763 -0.675407  0.682318
vn  0.365528 -0.633112  0.682318
vn  0.445038 -0.579985  0.682318
vn  0.516934 -0.516934  0.682318
vn  0.579985 -0.445038  0.682318
vn  0.633112 -0.365528  0.682318
vn  0.675407 -0.279763  0.682318
vn  0.706145 -0.189211  0.682318
vn  0.724801 -0.095422  0.682318
vn  0.000000  0.000000  1.000000
vn  0.000000  0.000000  1.000000
vn  0.000000  0.000000  1.000000
vn  0.000000  0.000000  1.000000
vn  0.000000  0.000000  1.000000
vn  0.000000  0.000000  1.000000
vn  0.000000  0.000000  1.000000
vn  0.000000  0.000000  1.000000
vn  0.000000  0.000000  1.000000
vn  0.000000  0.000000  1.000000
vn  0.000000  0.000000  1.000000
vn  0.000000  0.000000  1.000000
vn  0.000000  0.000000  1.000000
vn  0.000000  0.000000  1.000000
vn  0.000000  0.000000  1.000000
vn  0.000000  0.000000  1.000000
vn  0.000000  0.000000  1.000000
vn  0.000000  0.000000  1.000000
vn  0.000000  0.000000  1.000000
vn  0.000000  0.000000  1.000000
vn  0.000000  0.000000  1.000000
vn  0.000000  0.000000  1.000000
vn  0.000000  0.000000  1.000000
vn  0.000000  0.000000  1.000000
vn  0.000000  0.000000  1.000000
vn  0.000000  0.000000  1.000000
vn  0.000000  0.000000  1.000000
vn  0.000000  0.000000  1.000000
vn  0.000000  0.000000  1.000000
vn  0.000000  0.000000  1.000000
vn  0.000000  0.000000  1.000000
vn  0.000000  0.000000  1.000000
vn  0.000000  0.000000  1.000000
vn  0.000000  0.000000  1.000000
vn  0.000000  0.000000  1.000000
vn  0.000000  0.000000  1.000000
vn  0.000000  0.000000  1.000000
vn  0.000000  0.000000  1.000000
vn  0.000000  0.000000  1.000000
vn  0.000000  0.000000  1.000000
vn  0.000000  0.000000  1.000000
vn  0.000000  0.000000  1.000000
vn  0.000000  0.000000  1.000000
vn  0.000000  0.000000  1.000000
vn  0.000000  0.000000  1.000000
vn  0.000000  0.000000  1.000000
vn  0.000000  0.000000  1.000000
vn  0.000000  0.000000  1.000000
vn  0.000000  0.000000 -1.000000
vn  0.000000  0.000000 -1.000000
vn  0.000000  0.000000 -1.000000
vn  0.000000  0.000000 -1.000000
vn  0.000000  0.000000 -1.000000
vn  0.000000  0.000000  1.000000
vn  0.000000  0.000000  1.000000
vn  0.000000  0.000000  1.000000
vn  0.000000  0.000000  1.000000
vn  0.000000 -1.000000  0.000000
vn  0.000000 -1.000000  0.000000
vn  0.000000 -1.000000  0.000000
vn  0.000000 -1.000000  0.000000
vn  0.000000  1.000000  0.000000
vn  0.000000  1.000000  0.000000
vn  0.000000  1.000000  0.000000
vn  0.000000  1.000000  0.000000
vn -1.000000  0.000000  0.000000
vn -1.000000  0.000000  0.000000
vn -1.000000  0.000000  0.000000
vn -1.000000  0.000000  0.000000
vn  1.000000  0.000000  0.000000
vn  1.000000  0.000000  0.000000
vn  1.000000  0.000000  0.000000
vn  1.000000  0.000000  0.000000
vn  0.000000  0.000000 -1.000000
vn  0.000000  0.000000 -1.000000
vn  0.000000  0.000000 -1.000000
vn  0.000000  0.000000 -1.000000
vn  0.000000  0.000000  1.000000
vn  0.000000  0.000000  1.000000
vn  0.000000  0.000000  1.000000
vn  0.000000  0.000000  1.000000
vn  0.000000 -1.000000  0.000000
vn  0.000000 -1.000000  0.000000
vn  0.000000 -1.000000  0.000000
vn  0.000000 -1.000000  0.000000
vn  0.000000  1.000000  0.000000
vn  0.000000  1.000000  0.000000
vn  0.000000  1.000000  0.000000
vn  0.000000  1.000000  0.000000
vn -1.000000  0.000000  0.000000
vn -1.000000  0.000000  0.000000
vn -1.000000  0.000000  0.000000
vn -1.000000  0.000000  0.000000
vn  1.000000  0.000000  0.000000
vn  1.000000  0.000000  0.000000
vn  1.000000  0.000000  0.000000
vn  1.000000  0.000000  0.000000
vn  0.000000  0.000000 -1.000000
vn  0.000000  0.000000 -1.000000
vn  0.000000  0.000000 -1.000000
vn  0.000000  0.000000 -1.000000
vn  0.000000  0.000000  1.000000
vn  0.000000  0.000000  1.000000
vn  0.000000  0.000000  1.000000
vn  0.000000  0.000000  1.000000
vn  0.000000 -1.000000  0.000000
vn  0.000000 -1.000000  0.000000
vn  0.000000 -1.000000  0.000000
vn  0.000000 -1.000000  0.000000
vn  0.000000  1.000000  0.000000
vn  0.000000  1.000000  0.000000
vn  0.000000  1.000000  0.000000
vn  0.000000  1.000000  0.000000
vn -1.000000  0.000000  0.000000
vn -1.000000  0.000000  0.000000
vn -1.000000  0.000000  0.000000
vn -1.000000  0.000000  0.000000
vn  1.000000  0.000000  0.000000
vn  1.000000  0.000000  0.000000
vn  1.000000  0.000000  0.000000
vn  1.000000  0.000000  0.000000
vn  0.000000  0.000000 -1.000000
vn  0.000000  0.000000 -1.000000
vn  0.000000  0.000000 -1.000000
vn  0.000000  0.000000 -1.000000
vn  0.000000  0.000000  1.000000
vn  0.000000  0.000000  1.000000
vn  0.000000  0.000000  1.000000
vn  0.000000  0.000000  1.000000
vn  0.000000 -1.000000  0.000000
vn  0.000000 -1.000000  0.000000
vn  0.000000 -1.000000  0.000000
vn  0.000000 -1.000000  0.000000
vn  0.000000  1.000000  0.000000
vn  0.000000  1.000000  0.000000
vn  0.000000  1.000000  0.000000
vn  0.000000  1.000000  0.000000
vn -1.000000  0.000000  0.000000
vn -1.000000  0.000000  0.000000
vn -1.000000  0.000000  0.000000
vn -1.000000  0.000000  0.000000
vn  1.000000  0.000000  0.000000
vn  1.000000  0.000000  0.000000
vn  1.000000  0.000000  0.000000
vn  1.000000  0.000000  0.000000
vn  0.000000  0.000000 -1.000000
vn  0.000000  0.000000 -1.000000
vn  0.000000  0.000000 -1.000000
vn  0.000000  0.000000 -1.000000
vn  0.000000  0.000000  1.000000
vn  0.000000  0.000000  1.000000
vn  0.000000  0.000000  1.000000
vn  0.000000  0.000000  1.000000
vn  0.000000 -1.000000  0.000000
vn  0.000000 -1.000000  0.000000
vn  0.000000 -1.000000  0.000000
vn  0.000000 -1.000000  0.000000
vn  0.000000  1.000000  0.000000
vn  0.000000  1.000000  0.000000
vn  0.000000  1.000000  0.000000
vn  0.000000  1.000000  0.000000
vn -1.000000  0.000000  0.000000
vn -1.000000  0.000000  0.000000
vn -1.000000  0.000000  0.000000
vn -1.000000  0.000000  0.000000
vn  1.000000  0.000000  0.000000
vn  1.000000  0.000000  0.000000
vn  1.000000  0.000000  0.000000
vn  1.000000  0.000000  0.000000
vn  0.000000  0.000000 -1.000000
vn  0.000000  0.000000 -1.000000
vn  0.000000  0.000000 -1.000000
vn  0.000000  0.000000 -1.000000
vn  0.000000  0.000000  1.000000
vn  0.000000  0.000000  1.000000
vn  0.000000  0.000000  1.000000
vn  0.000000  0.000000  1.000000
vn  0.000000 -1.000000  0.000000
vn  0.000000 -1.000000  0.000000
vn  0.000000 -1.000000  0.000000
vn  0.000000 -1.000000  0.000000
vn  0.000000  1.000000  0.000000
vn  0.000000  1.000000  0.000000
vn  0.000000  1.000000  0.000000
vn  0.000000  1.000000  0.000000
vn -1.000000  0.000000  0.000000
vn -1.000000  0.000000  0.000000
vn -1.000000  0.000000  0.000000
vn -1.000000  0.000000  0.000000
vn  1.000000  0.000000  0.000000
vn  1.000000  0.000000  0.000000
vn  1.000000  0.000000  0.000000
vn  1.000000  0.000000  0.000000
vn  0.000000  0.000000 -1.000000
vn  0.000000  0.000000 -1.000000
vn  0.000000  0.000000 -1.000000
vn  0.000000  0.000000 -1.000000
vn  0.000000  0.000000  1.000000
vn  0.000000  0.000000  1.000000
vn  0.000000  0.000000  1.000000
vn  0.000000  0.000000  1.000000
vn  0.000000 -1.000000  0.000000
vn  0.000000 -1.000000  0.000000
vn  0.000000 -1.000000  0.000000
vn  0.000000 -1.000000  0.000000
vn  0.000000  1.000000  0.000000
vn  0.000000  1.000000  0.000000
vn  0.000000  1.000000  0.000000
vn  0.000000  1.000000  0.000000
vn -1.000000  0.000000  0.000000
vn -1.000000  0.000000  0.000000
vn -1.000000  0.000000  0.000000
vn -1.000000  0.000000  0.000000
vn  1.000000  0.000000  0.000000
vn  1.000000  0.000000  0.000000
vn  1.000000  0.000000  0.000000
vn  1.000000  0.000000  0.000000
vn  0.000000  0.000000 -1.000000
vn  0.000000  0.000000 -1.000000
vn  0.000000  0.000000 -1.000000
vn  0.000000  0.000000 -1.000000
vn  0.000000  0.000000  1.000000
vn  0.000000  0.000000  1.000000
vn  0.000000  0.000000  1.000000
vn  0.000000  0.000000  1.000000
vn  0.000000 -1.000000  0.000000
vn  0.000000 -1.000000  0.000000
vn  0.000000 -1.000000  0.000000
vn  0.000000 -1.000000  0.000000
vn  0.000000  1.000000  0.000000
vn  0.000000  1.000000  0.000000
vn  0.000000  1.000000  0.000000
vn  0.000000  1.000000  0.000000
vn -1.000000  0.000000  0.000000
vn -1.000000  0.000000  0.000000
vn -1.000000  0.000000  0.000000
vn -1.000000  0.000000  0.000000
vn  1.000000  0.000000  0.000000
vn  1.000000  0.000000  0.000000
vn  1.000000  0.000000  0.000000
vn  1.000000  0.000000  0.000000
vn  0.000000  0.000000 -1.000000
vn  0.000000  0.000000 -1.000000
vn  0.000000  0.000000 -1.000000
vn  0.000000  0.000000 -1.000000
vn  0.000000  0.000000  1.000000
vn  0.000000  0.000000  1.000000
vn  0.000000  0.000000  1.000000
vn  0.000000  0.000000  1.000000
vn  0.000000 -1.000000  0.000000
vn  0.000000 -1.000000  0.000000
vn  0.000000 -1.000000  0.000000
vn  0.000000 -1.000000  0.000000
vn  0.000000  1.000000  0.000000
vn  0.000000  1.000000  0.000000
vn  0.000000  1.000000  0.000000
vn  0.000000  1.000000  0.000000
vn -1.000000  0.000000  0.000000
vn -1.000000  0.000000  0.000000
vn -1.000000  0.000000  0.000000
vn -1.000000  0.000000  0.000000
vn  1.000000  0.000000  0.000000
vn  1.000000  0.000000  0.000000
vn  1.000000  0.000000  0.000000
vn  1.000000  0.000000  0.000000
vn  0.000000  0.000000 -1.000000
vn  0.000000  0.000000 -1.000000
vn  0.000000  0.000000 -1.000000
vn  0.000000  0.000000 -1.000000
vn  0.000000  0.000000  1.000000
vn  0.000000  0.000000  1.000000
vn  0.000000  0.000000  1.000000
vn  0.000000  0.000000  1.000000
vn  0.000000 -1.000000  0.000000
vn  0.000000 -1.000000  0.000000
vn  0.000000 -1.000000  0.000000
vn  0.000000 -1.000000  0.000000
vn  0.000000  1.000000  0.000000
vn  0.000000  1.000000  0.000000
vn  0.000000  1.000000  0.000000
vn  0.000000  1.000000  0.000000
vn -1.000000  0.000000  0.000000
vn -1.000000  0.000000  0.000000
vn -1.000000  0.000000  0.000000
vn -1.000000  0.000000  0.000000
vn  1.000000  0.000000  0.000000
vn  1.000000  0.000000  0.000000
vn  1.000000  0.000000  0.000000
vn  1.000000  0.000000  0.000000
vn  0.000000  0.000000 -1.000000
vn  0.000000  0.000000 -1.000000
vn  0.000000  0.000000 -1.000000
vn  0.000000  0.000000 -1.000000
vn  0.000000  0.000000  1.000000
vn  0.000000  0.000000  1.000000
vn  0.000000  0.000000  1.000000
vn  0.000000  0.000000  1.000000
vn  0.000000 -1.000000  0.000000
vn  0.000000 -1.000000  0.000000
vn  0.000000 -1.000000  0.000000
vn  0.000000 -1.000000  0.000000
vn  0.000000  1.000000  0.000000
vn  0.000000  1.000000  0.000000
vn  0.000000  1.000000  0.000000
vn  0.000000  1.000000  0.000000
vn -1.000000  0.000000  0.000000
vn -1.000000  0.000000  0.000000
vn -1.000000  0.000000  0.000000
vn -1.000000  0.000000  0.000000
vn  1.000000  0.000000  0.000000
vn  1.000000  0.000000  0.000000
vn  1.000000  0.000000  0.000000
vn  1.000000  0.000000  0.000000
vn  0.000000  0.000000 -1.000000
vn  0.000000  0.000000 -1.000000
vn  0.000000  0.000000 -1.000000
vn  0.000000  0.000000 -1.000000
vn  0.000000  0.000000  1.000000
vn  0.000000  0.000000  1.000000
vn  0.000000  0.000000  1.000000
vn  0.000000  0.000000  1.000000
vn  0.000000 -1.000000  0.000000
vn  0.000000 -1.000000  0.000000
vn  0.000000 -1.000000  0.000000
vn  0.000000 -1.000000  0.000000
vn  0.000000  1.000000  0.000000
vn  0.000000  1.000000  0.000000
vn  0.000000  1.000000  0.000000
vn  0.000000  1.000000  0.000000
vn -1.000000  0.000000  0.000000
vn -1.000000  0.000000  0.000000
vn -1.000000  0.000000  0.000000
vn -1.000000  0.000000  0.000000
vn  1.000000  0.000000  0.000000
vn  1.000000  0.000000  0.000000
vn  1.000000  0.000000  0.000000
vn  1.000000  0.000000  0.000000
vn  0.000000  0.000000 -1.000000
vn  0.000000  0.000000 -1.000000
vn  0.000000  0.000000 -1.000000
vn  0.000000  0.000000 -1.000000
vn  0.000000  0.000000  1.000000
vn  0.000000  0.000000  1.000000
vn  0.000000  0.000000  1.000000
vn  0.000000  0.000000  1.000000
vn  0.000000 -1.000000  0.000000
vn  0.000000 -1.000000  0.000000
vn  0.000000 -1.000000  0.000000
vn  0.000000 -1.000000  0.000000
vn  0.000000  1.000000  0.000000
vn  0.000000  1.000000  0.000000
vn  0.000000  1.000000  0.000000
vn  0.000000  1.000000  0.000000
vn -1.000000  0.000000  0.000000
vn -1.000000  0.000000  0.000000
vn -1.000000  0.000000  0.000000
vn -1.000000  0.000000  0.000000
vn  1.000000  0.000000  0.000000
vn  1.000000  0.000000  0.000000
vn  1.000000  0.000000  0.000000
vn  1.000000  0.000000  0.000000
vn  0.000000  0.000000 -1.000000
vn  0.000000  0.000000 -1.000000
vn  0.000000  0.000000 -1.000000
vn  0.000000  0.000000 -1.000000
vn  0.000000  0.000000  1.000000
vn  0.000000  0.000000  1.000000
vn  0.000000  0.000000  1.000000
vn  0.000000  0.000000  1.000000
vn  0.000000 -1.000000  0.000000
vn  0.000000 -1.000000  0.000000
vn  0.000000 -1.000000  0.000000
vn  0.000000 -1.000000  0.000000
vn  0.000000  1.000000  0.000000
vn  0.000000  1.000000  0.000000
vn  0.000000  1.000000  0.000000
vn  0.000000  1.000000  0.000000
vn -1.000000  0.000000  0.000000
vn -1.000000  0.000000  0.000000
vn -1.000000  0.000000  0.000000
vn -1.000000  0.000000  0.000000
vn  1.000000  0.000000  0.000000
vn  1.000000  0.000000  0.000000
vn  1.000000  0.000000  0.000000
vn  1.000000  0.000000  0.000000
vn  0.000000  0.000000 -1.000000
vn  0.000000  0.000000 -1.000000
vn  0.000000  0.000000 -1.000000
vn  0.000000  0.000000 -1.000000
vn  0.000000  0.000000  1.000000
vn  0.000000  0.000000  1.000000
vn  0.000000  0.000000  1.000000
vn  0.000000  0.000000  1.000000
vn  0.000000 -1.000000  0.000000
vn  0.000000 -1.000000  0.000000
vn  0.000000 -1.000000  0.000000
vn  0.000000 -1.000000  0.000000
vn  0.000000  1.000000  0.000000
vn  0.000000  1.000000  0.000000
vn  0.000000  1.000000  0.000000
vn  0.000000  1.000000  0.000000
vn -1.000000  0.000000  0.000000
vn -1.000000  0.000000  0.000000
vn -1.000000  0.000000  0.000000
vn -1.000000  0.000000  0.000000
vn  1.000000  0.000000  0.000000
vn  1.000000  0.000000  0.000000
vn  1.000000  0.000000  0.000000
vn  1.000000  0.000000  0.000000
vn  0.000000  0.000000 -1.000000
vn  0.000000  0.000000 -1.000000
vn  0.000000  0.000000 -1.000000
vn  0.000000  0.000000 -1.000000
vn  0.000000  0.000000  1.000000
vn  0.000000  0.000000  1.000000
vn  0.000000  0.000000  1.000000
vn  0.000000  0.000000  1.000000
vn  0.000000 -1.000000  0.000000
vn  0.000000 -1.000000  0.000000
vn  0.000000 -1.000000  0.000000
vn  0.000000 -1.000000  0.000000
vn  0.000000  1.000000  0.000000
vn  0.000000  1.000000  0.000000
vn  0.000000  1.000000  0.000000
vn  0.000000  1.000000  0.000000
vn -1.000000  0.000000  0.000000
vn -1.000000  0.000000  0.000000
vn -1.000000  0.000000  0.000000
vn -1.000000  0.000000  0.000000
vn  1.000000  0.000000  0.000000
vn  1.000000  0.000000  0.000000
vn  1.000000  0.000000  0.000000
vn  1.000000  0.000000  0.000000
vn  0.000000  0.000000 -1.000000
vn  0.000000  0.000000 -1.000000
vn  0.000000  0.000000 -1.000000
vn  0.000000  0.000000 -1.000000
vn  0.000000  0.000000  1.000000
vn  0.000000  0.000000  1.000000
vn  0.000000  0.000000  1.000000
vn  0.000000  0.000000  1.000000
vn  0.000000 -1.000000  0.000000
vn  0.000000 -1.000000  0.000000
vn  0.000000 -1.000000  0.000000
vn  0.000000 -1.000000  0.000000
vn  0.000000  1.000000  0.000000
vn  0.000000  1.000000  0.000000
vn  0.000000  1.000000  0.000000
vn  0.000000  1.000000  0.000000
vn -1.000000  0.000000  0.000000
vn -1.000000  0.000000  0.000000
vn -1.000000  0.000000  0.000000
vn -1.000000  0.000000  0.000000
vn  1.000000  0.000000  0.000000
vn  1.000000  0.000000  0.000000
vn  1.000000  0.000000  0.000000
vn  1.000000  0.000000  0.000000
vn  0.000000  0.000000 -1.000000
vn  0.000000  0.000000 -1.000000
vn  0.000000  0.000000 -1.000000
vn  0.000000  0.000000 -1.000000
vn  0.000000  0.000000  1.000000
vn  0.000000  0.000000  1.000000
vn  0.000000  0.000000  1.000000
vn  0.000000  0.000000  1.000000
vn  0.000000 -1.000000  0.000000
vn  0.000000 -1.000000  0.000000
vn  0.000000 -1.000000  0.000000
vn  0.000000 -1.000000  0.000000
vn  0.000000  1.000000  0.000000
vn  0.000000  1.000000  0.000000
vn  0.000000  1.000000  0.000000
vn  0.000000  1.000000  0.000000
vn -1.000000  0.000000  0.000000
vn -1.000000  0.000000  0.000000
vn -1.000000  0.000000  0.000000
vn -1.000000  0.000000  0.000000
vn  1.000000  0.000000  0.000000
vn  1.000000  0.000000  0.000000
vn  1.000000  0.000000  0.000000
vn  1.000000  0.000000  0.000000
vn  0.000000  0.000000 -1.000000
vn  0.000000  0.000000 -1.000000
vn  0.000000  0.000000 -1.000000
vn  0.000000  0.000000 -1.000000
vn  0.000000  0.000000  1.000000
vn  0.000000  0.000000  1.000000
vn  0.000000  0.000000  1.000000
vn  0.000000  0.000000  1.000000
vn  0.000000 -1.000000  0.000000
vn  0.000000 -1.000000  0.000000
vn  0.000000 -1.000000  0.000000
vn  0.000000 -1.000000  0.000000
vn  0.000000  1.000000  0.000000
vn  0.000000  1.000000  0.000000
vn  0.000000  1.000000  0.000000
vn  0.000000  1.000000  0.000000
vn -1.000000  0.000000  0.000000
vn -1.000000  0.000000  0.000000
vn -1.000000  0.000000  0.000000
vn -1.000000  0.000000  0.000000
vn  1.000000  0.000000  0.000000
vn  1.000000  0.000000  0.000000
vn  1.000000  0.000000  0.000000
vn  1.000000  0.000000  0.000000
vn  0.000000  0.000000 -1.000000
vn  0.000000  0.000000 -1.000000
vn  0.000000  0.000000 -1.000000
vn  0.000000  0.000000 -1.000000
vn  0.000000  0.000000  1.000000
vn  0.000000  0.000000  1.000000
vn  0.000000  0.000000  1.000000
vn  0.000000  0.000000  1.000000
vn  0.000000 -1.000000  0.000000
vn  0.000000 -1.000000  0.000000
vn  0.000000 -1.000000  0.000000
vn  0.000000 -1.000000  0.000000
vn  0.000000  1.000000  0.000000
vn  0.000000  1.000000  0.000000
vn  0.000000  1.000000  0.000000
vn  0.000000  1.000000  0.000000
vn -1.000000  0.000000  0.000000
vn -1.000000  0.000000  0.000000
vn -1.000000  0.000000  0.000000
vn -1.000000  0.000000  0.000000
vn  1.000000  0.000000  0.000000
vn  1.000000  0.000000  0.000000
vn  1.000000  0.000000  0.000000
vn  1.000000  0.000000  0.000000
vn  0.000000  0.000000 -1.000000
vn  0.000000  0.000000 -1.000000
vn  0.000000  0.000000 -1.000000
vn  0.000000  0.000000 -1.000000
vn  0.000000  0.000000  1.000000
vn  0.000000  0.000000  1.000000
vn  0.000000  0.000000  1.000000
vn  0.000000  0.000000  1.000000
vn  0.000000 -1.000000  0.000000
vn  0.000000 -1.000000  0.000000
vn  0.000000 -1.000000  0.000000
vn  0.000000 -1.000000  0.000000
vn  0.000000  1.000000  0.000000
vn  0.000000  1.000000  0.000000
vn  0.000000  1.000000  0.000000
vn  0.000000  1.000000  0.000000
vn -1.000000  0.000000  0.000000
vn -1.000000  0.000000  0.000000
vn -1.000000  0.000000  0.000000
vn -1.000000  0.000000  0.000000
vn  1.000000  0.000000  0.000000
vn  1.000000  0.000000  0.000000
vn  1.000000  0.000000  0.000000
vn  1.000000  0.000000  0.000000

f 1//1 2//2 50//50
f 1//1 50//50 49//49
f 2//2 3//3 51//51
f 2//2 51//51 50//50
f 3//3 4//4 52//52
f 3//3 52//52 51//51
f 4//4 5//5 53//53
f 4//4 53//53 52//52
f 5//5 6//6 54//54
f 5//5 54//54 53//53
f 6//6 7//7 55//55
f 6//6 55//55 54//54
f 7//7 8//8 56//56
f 7//7 56//56 55//55
f 8//8 9//9 57//57
f 8//8 57//57 56//56
f 9//9 10//10 58//58
f 9//9 58//58 57//57
f 10//10 11//11 59//59
f 10//10 59//59 58//58
f 11//11 12//12 60//60
f 11//11 60//60 59//59
f 12//12 13//13 61//61
f 12//12 61//61 60//60
f 13//13 14//14 62//62
f 13//13 62//62 61//61
f 14//14 15//15 63//63
f 14//14 63//63 62//62
f 15//15 16//16 64//64
f 15//15 64//64 63//63
f 16//16 17//17 65//65
f 16//16 65//65 64//64
f 17//17 18//18 66//66
f 17//17 66//66 65//65
f 18//18 19//19 67//67
f 18//18 67//67 66//66
f 19//19 20//20 68//68
f 19//19 68//68 67//67
f 20//20 21//21 69//69
f 20//20 69//69 68//68
f 21//21 22//22 70//70
f 21//21 70//70 69//69
f 22//22 23//23 71//71
f 22//22 71//71 70//70
f 23//23 24//24 72//72
f 23//23 72//72 71//71
f 24//24 25//25 73//73
f 24//24 73//73 72//72
f 25//25 26//26 74//74
f 25//25 74//74 73//73
f 26//26 27//27 75//75
f 26//26 75//75 74//74
f 27//27 28//28 76//76
f 27//27 76//76 75//75
f 28//28 29//29 77//77
f 28//28 77//77 76//76
f 29//29 30//30 78//78
f 29//29 78//78 77//77
f 30//30 31//31 79//79
f 30//30 79//79 78//78
f 31//31 32//32 80//80
f 31//31 80//80 79//79
f 32//32 33//33 81//81
f 32//32 81//81 80//80
f 33//33 34//34 82//82
f 33//33 82//82 81//81
f 34//34 35//35 83//83
f 34//34 83//83 82//82
f 35//35 36//36 84//84
f 35//35 84//84 83//83
f 36//36 37//37 85//85
f 36//36 85//85 84//84
f 37//37 38//38 86//86
f 37//37 86//86 85//85
f 38//38 39//39 87//87
f 38//38 87//87 86//86
f 39//39 40//40 88//88
f 39//39 88//88 87//87
f 40//40 41//41 89//89
f 40//40 89//89 88//88
f 41//41 42//42 90//90
f 41//41 90//90 89//89
f 42//42 43//43 91//91
f 42//42 91//91 90//90
f 43//43 44//44 92//92
f 43//43 92//92 91//91
f 44//44 45//45 93//93
f 44//44 93//93 92//92
f 45//45 46//46 94//94
f 45//45 94//94 93//93
f 46//46 47//47 95//95
f 46//46 95//95 94//94
f 47//47 48//48 96//96
f 47//47 96//96 95//95
f 48//48 1//1 49//49
f 48//48 49//49 96//96
f 49//49 50//50 98//98
f 49//49 98//98 97//97
f 50//50 51//51 99//99
f 50//50 99//99 98//98
f 51//51 52//52 100//100
f 51//51 100//100 99//99
f 52//52 53//53 101//101
f 52//52 101//101 100//100
f 53//53 54//54 102//102
f 53//53 102//102 101//101
f 54//54 55//55 103//103
f 54//54 103//103 102//102
f 55//55 56//56 104//104
f 55//55 104//104 103//103
f 56//56 57//57 105//105
f 56//56 105//105 104//104
f 57//57 58//58 106//106
f 57//57 106//106 105//105
f 58//58 59//59 107//107
f 58//58 107//107 106//106
f 59//59 60//60 108//108
f 59//59 108//108 107//107
f 60//60 61//61 109//109
f 60//60 109//109 108//108
f 61//61 62//62 110//110
f 61//61 110//110 109//109
f 62//62 63//63 111//111
f 62//62 111//111 110//110
f 63//63 64//64 112//112
f 63//63 112//112 111//111
f 64//64 65//65 113//113
f 64//64 113//113 112//112
f 65//65 66//66 114//114
f 65//65 114//114 113//113
f 66//66 67//67 115//115
f 66//66 115//115 114//114
f 67//67 68//68 116//116
f 67//67 116//116 115//115
f 68//68 69//69 117//117
f 68//68 117//117 116//116
f 69//69 70//70 118//118
f 69//69 118//118 117//117
f 70//70 71//71 119//119
f 70//70 119//119 118//118
f 71//71 72//72 120//120
f 71//71 120//120 119//119
f 72//72 73//73 121//121
f 72//72 121//121 120//120
f 73//73 74//74 122//122
f 73//73 122//122 121//121
f 74//74 75//75 123//123
f 74//74 123//123 122//122
f 75//75 76//76 124//124
f 75//75 124//124 123//123
f 76//76 77//77 125//125
f 76//76 125//125 124//124
f 77//77 78//78 126//126
f 77//77 126//126 125//125
f 78//78 79//79 127//127
f 78//78 127//127 126//126
f 79//79 80//80 128//128
f 79//79 128//128 127//127
f 80//80 81//81 129//129
f 80//80 129//129 128//128
f 81//81 82//82 130//130
f 81//81 130//130 129//129
f 82//82 83//83 131//131
f 82//82 131//131 130//130
f 83//83 84//84 132//132
f 83//83 132//132 131//131
f 84//84 85//85 133//133
f 84//84 133//133 132//132
f 85//85 86//86 134//134
f 85//85 134//134 133//133
f 86//86 87//87 135//135
f 86//86 135//135 134//134
f 87//87 88//88 136//136
f 87//87 136//136 135//135
f 88//88 89//89 137//137
f 88//88 137//137 136//136
f 89//89 90//90 138//138
f 89//89 138//138 137//137
f 90//90 91//91 139//139
f 90//90 139//139 138//138
f 91//91 92//92 140//140
f 91//91 140//140 139//139
f 92//92 93//93 141//141
f 92//92 141//141 140//140
f 93//93 94//94 142//142
f 93//93 142//142 141//141
f 94//94 95//95 143//143
f 94//94 143//143 142//142
f 95//95 96//96 144//144
f 95//95 144//144 143//143
f 96//96 49//49 97//97
f 96//96 97//97 144//144
f 97//97 98//98 146//146
f 97//97 146//146 145//145
f 98//98 99//99 147//147
f 98//98 147//147 146//146
f 99//99 100//100 148//148
f 99//99 148//148 147//147
f 100//100 101//101 149//149
f 100//100 149//149 148//148
f 101//101 102//102 150//150
f 101//101 150//150 149//149
f 102//102 103//103 151//151
f 102//102 151//151 150//150
f 103//103 104//104 152//152
f 103//103 152//152 151//151
f 104//104 105//105 153//153
f 104//104 153//153 152//152
f 105//105 106//106 154//154
f 105//105 154//154 153//153
f 106//106 107//107 155//155
f 106//106 155//155 154//154
f 107//107 108//108 156//156
f 107//107 156//156 155//155
f 108//108 109//109 157//157
f 108//108 157//157 156//156
f 109//109 110//110 158//158
f 109//109 158//158 157//157
f 110//110 111//111 159//159
f 110//110 159//159 158//158
f 111//111 112//112 160//160
f 111//111 160//160 159//159
f 112//112 113//113 161//161
f 112//112 161//161 160//160
f 113//113 114//114 162//162
f 113//113 162//162 161//161
f 114//114 115//115 163//163
f 114//114 163//163 162//162
f 115//115 116//116 164//164
f 115//115 164//164 163//163
f 116//116 117//117 165//165
f 116//116 165//165 164//164
f 117//117 118//118 166//166
f 117//117 166//166 165//165
f 118//118 119//119 167//167
f 118//118 167//167 166//166
f 119//119 120//120 168//168
f 119//119 168//168 167//167
f 120//120 121//121 169//169
f 120//120 169//169 168//168
f 121//121 122//122 170//170
f 121//121 170//170 169//169
f 122//122 123//123 171//171
f 122//122 171//171 170//170
f 123//123 124//124 172//172
f 123//123 172//172 171//171
f 124//124 125//125 173//173
f 124//124 173//173 172//172
f 125//125 126//126 174//174
f 125//125 174//174 173//173
f 126//126 127//127 175//175
f 126//126 175//175 174//174
f 127//127 128//128 176//176
f 127//127 176//176 175//175
f 128//128 129//129 177//177
f 128//128 177//177 176//176
f 129//129 130//130 178//178
f 129//129 178//178 177//177
f 130//130 131//131 179//179
f 130//130 179//179 178//178
f 131//131 132//132 180//180
f 131//131 180//180 179//179
f 132//132 133//133 181//181
f 132//132 181//181 180//180
f 133//133 134//134 182//182
f 133//133 182//182 181//181
f 134//134 135//135 183//183
f 134//134 183//183 182//182
f 135//135 136//136 184//184
f 135//135 184//184 183//183
f 136//136 137//137 185//185
f 136//136 185//185 184//184
f 137//137 138//138 186//186
f 137//137 186//186 185//185
f 138//138 139//139 187//187
f 138//138 187//187 186//186
f 139//139 140//140 188//188
f 139//139 188//188 187//187
f 140//140 141//141 189//189
f 140//140 189//189 188//188
f 141//141 142//142 190//190
f 141//141 190//190 189//189
f 142//142 143//143 191//191
f 142//142 191//191 190//190
f 143//143 144//144 192//192
f 143//143 192//192 191//191
f 144//144 97//97 145//145
f 144//144 145//145 192//192
f 145//145 146//146 194//194
f 145//145 194//194 193//193
f 146//146 147//147 195//195
f 146//146 195//195 194//194
f 147//147 148//148 196//196
f 147//147 196//196 195//195
f 148//148 149//149 197//197
f 148//148 197//197 196//196
f 149//149 150//150 198//198
f 149//149 198//198 197//197
f 150//150 151//151 199//199
f 150//150 199//199 198//198
f 151//151 152//152 200//200
f 151//151 200//200 199//199
f 152//152 153//153 201//201
f 152//152 201//201 200//200
f 153//153 154//154 202//202
f 153//153 202//202 201//201
f 154//154 155//155 203//203
f 154//154 203//203 202//202
f 155//155 156//156 204//204
f 155//155 204//204 203//203
f 156//156 157//157 205//205
f 156//156 205//205 204//204
f 157//157 158//158 206//206
f 157//157 206//206 205//205
f 158//158 159//159 207//207
f 158//158 207//207 206//206
f 159//159 160//160 208//208
f 159//159 208//208 207//207
f 160//160 161//161 209//209
f 160//160 209//209 208//208
f 161//161 162//162 210//210
f 161//161 210//210 209//209
f 162//162 163//163 211//211
f 162//162 211//211 210//210
f 163//163 164//164 212//212
f 163//163 212//212 211//211
f 164//164 165//165 213//213
f 164//164 213//213 212//212
f 165//165 166//166 214//214
f 165//165 214//214 213//213
f 166//166 167//167 215//215
f 166//166 215//215 214//214
f 167//167 168//168 216//216
f 167//167 216//216 215//215
f 168//168 169//169 217//217
f 168//168 217//217 216//216
f 169//169 170//170 218//218
f 169//169 218//218 217//217
f 170//170 171//171 219//219
f 170//170 219//219 218//218
f 171//171 172//172 220//220
f 171//171 220//220 219//219
f 172//172 173//173 221//221
f 172//172 221//221 220//220
f 173//173 174//174 222//222
f 173//173 222//222 221//221
f 174//174 175//175 223//223
f 174//174 223//223 222//222
f 175//175 176//176 224//224
f 175//175 224//224 223//223
f 176//176 177//177 225//225
f 176//176 225//225 224//224
f 177//177 178//178 226//226
f 177//177 226//226 225//225
f 178//178 179//179 227//227
f 178//178 227//227 226//226
f 179//179 180//180 228//228
f 179//179 228//228 227//227
f 180//180 181//181 229//229
f 180//180 229//229 228//228
f 181//181 182//182 230//230
f 181//181 230//230 229//229
f 182//182 183//183 231//231
f 182//182 231//231 230//230
f 183//183 184//184 232//232
f 183//183 232//232 231//231
f 184//184 185//185 233//233
f 184//184 233//233 232//232
f 185//185 186//186 234//234
f 185//185 234//234 233//233
f 186//186 187//187 235//235
f 186//186 235//235 234//234
f 187//187 188//188 236//236
f 187//187 236//236 235//235
f 188//188 189//189 237//237
f 188//188 237//237 236//236
f 189//189 190//190 238//238
f 189//189 238//238 237//237
f 190//190 191//191 239//239
f 190//190 239//239 238//238
f 191//191 192//192 240//240
f 191//191 240//240 239//239
f 192//192 145//145 193//193
f 192//192 193//193 240//240
f 193//193 194//194 242//242
f 193//193 242//242 241//241
f 194//194 195//195 243//243
f 194//194 243//243 242//242
f 195//195 196//196 244//244
f 195//195 244//244 243//243
f 196//196 197//197 245//245
f 196//196 245//245 244//244
f 197//197 198//198 246//246
f 197//197 246//246 245//245
f 198//198 199//199 247//247
f 198//198 247//247 246//246
f 199//199 200//200 248//248
f 199//199 248//248 247//247
f 200//200 201//201 249//249
f 200//200 249//249 248//248
f 201//201 202//202 250//250
f 201//201 250//250 249//249
f 202//202 203//203 251//251
f 202//202 251//251 250//250
f 203//203 204//204 252//252
f 203//203 252//252 251//251
f 204//204 205//205 253//253
f 204//204 253//253 252//252
f 205//205 206//206 254//254
f 205//205 254//254 253//253
f 206//206 207//207 255//255
f 206//206 255//255 254//254
f 207//207 208//208 256//256
f 207//207 256//256 255//255
f 208//208 209//209 257//257
f 208//208 257//257 256//256
f 209//209 210//210 258//258
f 209//209 258//258 257//257
f 210//210 211//211 259//259
f 210//210 259//259 258//258
f 211//211 212//212 260//260
f 211//211 260//260 259//259
f 212//212 213//213 261//261
f 212//212 261//261 260//260
f 213//213 214//214 262//262
f 213//213 262//262 261//261
f 214//214 215//215 263//263
f 214//214 263//263 262//262
f 215//215 216//216 264//264
f 215//215 264//264 263//263
f 216//216 217//217 265//265
f 216//216 265//265 264//264
f 217//217 218//218 266//266
f 217//217 266//266 265//265
f 218//218 219//219 267//267
f 218//218 267//267 266//266
f 219//219 220//220 268//268
f 219//219 268//268 267//267
f 220//220 221//221 269//269
f 220//220 269//269 268//268
f 221//221 222//222 270//270
f 221//221 270//270 269//269
f 222//222 223//223 271//271
f 222//222 271//271 270//270
f 223//223 224//224 272//272
f 223//223 272//272 271//271
f 224//224 225//225 273//273
f 224//224 273//273 272//272
f 225//225 226//226 274//274
f 225//225 274//274 273//273
f 226//226 227//227 275//275
f 226//226 275//275 274//274
f 227//227 228//228 276//276
f 227//227 276//276 275//275
f 228//228 229//229 277//277
f 228//228 277//277 276//276
f 229//229 230//230 278//278
f 229//229 278//278 277//277
f 230//230 231//231 279//279
f 230//230 279//279 278//278
f 231//231 232//232 280//280
f 231//231 280//280 279//279
f 232//232 233//233 281//281
f 232//232 281//281 280//280
f 233//233 234//234 282//282
f 233//233 282//282 281//281
f 234//234 235//235 283//283
f 234//234 283//283 282//282
f 235//235 236//236 284//284
f 235//235 284//284 283//283
f 236//236 237//237 285//285
f 236//236 285//285 284//284
f 237//237 238//238 286//286
f 237//237 286//286 285//285
f 238//238 239//239 287//287
f 238//238 287//287 286//286
f 239//239 240//240 288//288
f 239//239 288//288 287//287
f 240//240 193//193 241//241
f 240//240 241//241 288//288
f 241//241 242//242 290//290
f 241//241 290//290 289//289
f 242//242 243//243 291//291
f 242//242 291//291 290//290
f 243//243 244//244 292//292
f 243//243 292//292 291//291
f 244//244 245//245 293//293
f 244//244 293//293 292//292
f 245//245 246//246 294//294
f 245//245 294//294 293//293
f 246//246 247//247 295//295
f 246//246 295//295 294//294
f 247//247 248//248 296//296
f 247//247 296//296 295//295
f 248//248 249//249 297//297
f 248//248 297//297 296//296
f 249//249 250//250 298//298
f 249//249 298//298 297//297
f 250//250 251//251 299//299
f 250//250 299//299 298//298
f 251//251 252//252 300//300
f 251//251 300//300 299//299
f 252//252 253//253 301//301
f 252//252 301//301 300//300
f 253//253 254//254 302//302
f 253//253 302//302 301//301
f 254//254 255//255 303//303
f 254//254 303//303 302//302
f 255//255 256//256 304//304
f 255//255 304//304 303//303
f 256//256 257//257 305//305
f 256//256 305//305 304//304
f 257//257 258//258 306//306
f 257//257 306//306 305//305
f 258//258 259//259 307//307
f 258//258 307//307 306//306
f 259//259 260//260 308//308
f 259//259 308//308 307//307
f 260//260 261//261 309//309
f 260//260 309//309 308//308
f 261//261 262//262 310//310
f 261//261 310//310 309//309
f 262//262 263//263 311//311
f 262//262 311//311 310//310
f 263//263 264//264 312//312
f 263//263 312//312 311//311
f 264//264 265//265 313//313
f 264//264 313//313 312//312
f 265//265 266//266 314//314
f 265//265 314//314 313//313
f 266//266 267//267 315//315
f 266//266 315//315 314//314
f 267//267 268//268 316//316
f 267//267 316//316 315//315
f 268//268 269//269 317//317
f 268//268 317//317 316//316
f 269//269 270//270 318//318
f 269//269 318//318 317//317
f 270//270 271//271 319//319
f 270//270 319//319 318//318
f 271//271 272//272 320//320
f 271//271 320//320 319//319
f 272//272 273//273 321//321
f 272//272 321//321 320//320
f 273//273 274//274 322//322
f 273//273 322//322 321//321
f 274//274 275//275 323//323
f 274//274 323//323 322//322
f 275//275 276//276 324//324
f 275//275 324//324 323//323
f 276//276 277//277 325//325
f 276//276 325//325 324//324
f 277//277 278//278 326//326
f 277//277 326//326 325//325
f 278//278 279//279 327//327
f 278//278 327//327 326//326
f 279//279 280//280 328//328
f 279//279 328//328 327//327
f 280//280 281//281 329//329
f 280//280 329//329 328//328
f 281//281 282//282 330//330
f 281//281 330//330 329//329
f 282//282 283//283 331//331
f 282//282 331//331 330//330
f 283//283 284//284 332//332
f 283//283 332//332 331//331
f 284//284 285//285 333//333
f 284//284 333//333 332//332
f 285//285 286//286 334//334
f 285//285 334//334 333//333
f 286//286 287//287 335//335
f 286//286 335//335 334//334
f 287//287 288//288 336//336
f 287//287 336//336 335//335
f 288//288 241//241 289//289
f 288//288 289//289 336//336
f 2//2 1//1 337//337
f 3//3 2//2 337//337
f 4//4 3//3 337//337
f 5//5 4//4 337//337
f 6//6 5//5 337//337
f 7//7 6//6 337//337
f 8//8 7//7 337//337
f 9//9 8//8 337//337
f 10//10 9//9 337//337
f 11//11 10//10 337//337
f 12//12 11//11 337//337
f 13//13 12//12 337//337
f 14//14 13//13 337//337
f 15//15 14//14 337//337
f 16//16 15//15 337//337
f 17//17 16//16 337//337
f 18//18 17//17 337//337
f 19//19 18//18 337//337
f 20//20 19//19 337//337
f 21//21 20//20 337//337
f 22//22 21//21 337//337
f 23//23 22//22 337//337
f 24//24 23//23 337//337
f 25//25 24//24 337//337
f 26//26 25//25 337//337
f 27//27 26//26 337//337
f 28//28 27//27 337//337
f 29//29 28//28 337//337
f 30//30 29//29 337//337
f 31//31 30//30 337//337
f 32//32 31//31 337//337
f 33//33 32//32 337//337
f 34//34 33//33 337//337
f 35//35 34//34 337//337
f 36//36 35//35 337//337
f 37//37 36//36 337//337
f 38//38 37//37 337//337
f 39//39 38//38 337//337
f 40//40 39//39 337//337
f 41//41 40//40 337//337
f 42//42 41//41 337//337
f 43//43 42//42 337//337
f 44//44 43//43 337//337
f 45//45 44//44 337//337
f 46//46 45//45 337//337
f 47//47 46//46 337//337
f 48//48 47//47 337//337
f 1//1 48//48 337//337
f 338//338 339//339 340//340
f 338//338 340//340 341//341
f 342//342 343//343 344//344
f 342//342 344//344 345//345
f 346//346 347//347 348//348
f 346//346 348//348 349//349
f 350//350 351//351 352//352
f 350//350 352//352 353//353
f 354//354 355//355 356//356
f 354//354 356//356 357//357
f 358//358 359//359 360//360
f 358//358 360//360 361//361
f 362//362 363//363 364//364
f 362//362 364//364 365//365
f 366//366 367//367 368//368
f 366//366 368//368 369//369
f 370//370 371//371 372//372
f 370//370 372//372 373//373
f 374//374 375//375 376//376
f 374//374 376//376 377//377
f 378//378 379//379 380//380
f 378//378 380//380 381//381
f 382//382 383//383 384//384
f 382//382 384//384 385//385
f 386//386 387//387 388//388
f 386//386 388//388 389//389
f 390//390 391//391 392//392
f 390//390 392//392 393//393
f 394//394 395//395 396//396
f 394//394 396//396 397//397
f 398//398 399//399 400//400
f 398//398 400//400 401//401
f 402//402 403//403 404//404
f 402//402 404//404 405//405
f 406//406 407//407 408//408
f 406//406 408//408 409//409
f 410//410 411//411 412//412
f 410//410 412//412 413//413
f 414//414 415//415 416//416
f 414//414 416//416 417//417
f 418//418 419//419 420//420
f 418//418 420//420 421//421
f 422//422 423//423 424//424
f 422//422 424//424 425//425
f 426//426 427//427 428//428
f 426//426 428//428 429//429
f 430//430 431//431 432//432
f 430//430 432//432 433//433
f 434//434 435//435 436//436
f 434//434 436//436 437//437
f 438//438 439//439 440//440
f 438//438 440//440 441//441
f 442//442 443//443 444//444
f 442//442 444//444 445//445
f 446//446 447//447 448//448
f 446//446 448//448 449//449
f 450//450 451//451 452//452
f 450//450 452//452 453//453
f 454//454 455//455 456//456
f 454//454 456//456 457//457
f 458//458 459//459 460//460
f 458//458 460//460 461//461
f 462//462 463//463 464//464
f 462//462 464//464 465//465
f 466//466 467//467 468//468
f 466//466 468//468 469//469
f 470//470 471//471 472//472
f 470//470 472//472 473//473
f 474//474 475//475 476//476
f 474//474 476//476 477//477
f 478//478 479//479 480//480
f 478//478 480//480 481//481
f 482//482 483//483 484//484
f 482//482 484//484 485//485
f 486//486 487//487 488//488
f 486//486 488//488 489//489
f 490//490 491//491 492//492
f 490//490 492//492 493//493
f 494//494 495//495 496//496
f 494//494 496//496 497//497
f 498//498 499//499 500//500
f 498//498 500//500 501//501
f 502//502 503//503 504//504
f 502//502 504//504 505//505
f 506//506 507//507 508//508
f 506//506 508//508 509//509
f 510//510 511//511 512//512
f 510//510 512//512 513//513
f 514//514 515//515 516//516
f 514//514 516//516 517//517
f 518//518 519//519 520//520
f 518//518 520//520 521//521
f 522//522 523//523 524//524
f 522//522 524//524 525//525
f 526//526 527//527 528//528
f 526//526 528//528 529//529
f 530//530 531//531 532//532
f 530//530 532//532 533//533
f 534//534 535//535 536//536
f 534//534 536//536 537//537
f 538//538 539//539 540//540
f 538//538 540//540 541//541
f 542//542 543//543 544//544
f 542//542 544//544 545//545
f 546//546 547//547 548//548
f 546//546 548//548 549//549
f 550//550 551//551 552//552
f 550//550 552//552 553//553
f 554//554 555//555 556//556
f 554//554 556//556 557//557
f 558//558 559//559 560//560
f 558//558 560//560 561//561
f 562//562 563//563 564//564
f 562//562 564//564 565//565
f 566//566 567//567 568//568
f 566//566 568//568 569//569
f 570//570 571//571 572//572
f 570//570 572//572 573//573
f 574//574 575//575 576//576
f 574//574 576//576 577//577
f 578//578 579//579 580//580
f 578//578 580//580 581//581
f 582//582 583//583 584//584
f 582//582 584//584 585//585
f 586//586 587//587 588//588
f 586//586 588//588 589//589
f 590//590 591//591 592//592
f 590//590 592//592 593//593
f 594//594 595//595 596//596
f 594//594 596//596 597//597
f 598//598 599//599 600//600
f 598//598 600//600 601//601
f 602//602 603//603 604//604
f 602//602 604//604 605//605
f 606//606 607//607 608//608
f 606//606 608//608 609//609
f 610//610 611//611 612//612
f 610//610 612//612 613//613
f 614//614 615//615 616//616
f 614//614 616//616 617//617
f 618//618 619//619 620//620
f 618//618 620//620 621//621
f 622//622 623//623 624//624
f 622//622 624//624 625//625
f 626//626 627//627 628//628
f 626//626 628//628 629//629
f 630//630 631//631 632//632
f 630//630 632//632 633//633
f 634//634 635//635 636//636
f 634//634 636//636 637//637
f 638//638 639//639 640//640
f 638//638 640//640 641//641
f 642//642 643//643 644//644
f 642//642 644//644 645//645
f 646//646 647//647 648//648
f 646//646 648//648 649//649
f 650//650 651//651 652//652
f 650//650 652//652 653//653
f 654//654 655//655 656//656
f 654//654 656//656 657//657
f 658//658 659//659 660//660
f 658//658 660//660 661//661
f 662//662 663//663 664//664
f 662//662 664//664 665//665
f 666//666 667//667 668//668
f 666//666 668//668 669//669
f 670//670 671//671 672//672
f 670//670 672//672 673//673
f 674//674 675//675 676//676
f 674//674 676//676 677//677
f 678//678 679//679 680//680
f 678//678 680//680 681//681
f 682//682 683//683 684//684
f 682//682 684//684 685//685
f 686//686 687//687 688//688
f 686//686 688//688 689//689
f 690//690 691//691 692//692
f 690//690 692//692 693//693
f 694//694 695//695 696//696
f 694//694 696//696 697//697
f 698//698 699//699 700//700
f 698//698 700//700 701//701
f 702//702 703//703 704//704
f 702//702 704//704 705//705
f 706//706 707//707 708//708
f 706//706 708//708 709//709
f 710//710 711//711 712//712
f 710//710 712//712 713//713
f 714//714 715//715 716//716
f 714//714 716//716 717//717
f 718//718 719//719 720//720
f 718//718 720//720 721//721
f 722//722 723//723 724//724
f 722//722 724//724 725//725
f 726//726 727//727 728//728
f 726//726 728//728 729//729
f 730//730 731//731 732//732
f 730//730 732//732 733//733
f 734//734 735//735 736//736
f 734//734 736//736 737//737
f 738//738 739//739 740//740
f 738//738 740//740 741//741
f 742//742 743//743 744//744
f 742//742 744//744 745//745
f 746//746 747//747 748//748
f 746//746 748//748 749//749
f 750//750 751//751 752//752
f 750//750 752//752 753//753
f 754//754 755//755 756//756
f 754//754 756//756 757//757
f 758//758 759//759 760//760
f 758//758 760//760 761//761
f 762//762 763//763 764//764
f 762//762 764//764 765//765
f 766//766 767//767 768//768
f 766//766 768//768 769//769
f 770//770 771//771 772//772
f 770//770 772//772 773//773
f 774//774 775//775 776//776
f 774//774 776//776 777//777
f 778//778 779//779 780//780
f 778//778 780//780 781//781
f 782//782 783//783 784//784
f 782//782 784//784 785//785
f 786//786 787//787 788//788
f 786//786 788//788 789//789
f 790//790 791//791 792//792
f 790//790 792//792 793//793
f 794//794 795//795 796//796
f 794//794 796//796 797//797
f 798//798 799//799 800//800
f 798//798 800//800 801//801
f 802//802 803//803 804//804
f 802//802 804//804 805//805
f 806//806 807//807 808//808
f 806//806 808//808 809//809
f 810//810 811//811 812//812
f 810//810 812//812 813//813
f 814//814 815//815 816//816
f 814//814 816//816 817//817
f 818//818 819//819 820//820
f 818//818 820//820 821//821
f 822//822 823//823 824//824
f 822//822 824//824 825//825
f 826//826 827//827 828//828
f 826//826 828//828 829//829
f 830//830 831//831 832//832
f 830//830 832//832 833//833
f 834//834 835//835 836//836
f 834//834 836//836 837//837
f 838//838 839//839 840//840
f 838//838 840//840 841//841
