# Duet 2 dinner mesh — MIT licence
# spoon: original parametric geometry, Duet 2 project 2026
# Author: scripts/author_dinner_meshes.py
mtllib spoon.mtl
usemtl cutlery_steel

v  -0.005000  -0.055000   0.000000
v  -0.005000  -0.010000   0.000000
v   0.005000  -0.010000   0.000000
v   0.005000  -0.055000   0.000000
v  -0.005000  -0.055000   0.004000
v   0.005000  -0.055000   0.004000
v   0.005000  -0.010000   0.004000
v  -0.005000  -0.010000   0.004000
v  -0.005000  -0.055000   0.000000
v   0.005000  -0.055000   0.000000
v   0.005000  -0.055000   0.004000
v  -0.005000  -0.055000   0.004000
v   0.005000  -0.010000   0.000000
v  -0.005000  -0.010000   0.000000
v  -0.005000  -0.010000   0.004000
v   0.005000  -0.010000   0.004000
v  -0.005000  -0.055000   0.000000
v  -0.005000  -0.055000   0.004000
v  -0.005000  -0.010000   0.004000
v  -0.005000  -0.010000   0.000000
v   0.005000  -0.055000   0.000000
v   0.005000  -0.010000   0.000000
v   0.005000  -0.010000   0.004000
v   0.005000  -0.055000   0.004000
v  -0.006500  -0.010000   0.000000
v  -0.006500   0.022000   0.000000
v   0.006500   0.022000   0.000000
v   0.006500  -0.010000   0.000000
v  -0.006500  -0.010000   0.004000
v   0.006500  -0.010000   0.004000
v   0.006500   0.022000   0.004000
v  -0.006500   0.022000   0.004000
v  -0.006500  -0.010000   0.000000
v   0.006500  -0.010000   0.000000
v   0.006500  -0.010000   0.004000
v  -0.006500  -0.010000   0.004000
v   0.006500   0.022000   0.000000
v  -0.006500   0.022000   0.000000
v  -0.006500   0.022000   0.004000
v   0.006500   0.022000   0.004000
v  -0.006500  -0.010000   0.000000
v  -0.006500  -0.010000   0.004000
v  -0.006500   0.022000   0.004000
v  -0.006500   0.022000   0.000000
v   0.006500  -0.010000   0.000000
v   0.006500   0.022000   0.000000
v   0.006500   0.022000   0.004000
v   0.006500  -0.010000   0.004000
v   0.011000   0.042000  -0.002000
v   0.010833   0.043910  -0.002000
v   0.010337   0.045762  -0.002000
v   0.009526   0.047500  -0.002000
v   0.008426   0.049071  -0.002000
v   0.007071   0.050426  -0.002000
v   0.005500   0.051526  -0.002000
v   0.003762   0.052337  -0.002000
v   0.001910   0.052833  -0.002000
v   0.000000   0.053000  -0.002000
v  -0.001910   0.052833  -0.002000
v  -0.003762   0.052337  -0.002000
v  -0.005500   0.051526  -0.002000
v  -0.007071   0.050426  -0.002000
v  -0.008426   0.049071  -0.002000
v  -0.009526   0.047500  -0.002000
v  -0.010337   0.045762  -0.002000
v  -0.010833   0.043910  -0.002000
v  -0.011000   0.042000  -0.002000
v  -0.010833   0.040090  -0.002000
v  -0.010337   0.038238  -0.002000
v  -0.009526   0.036500  -0.002000
v  -0.008426   0.034929  -0.002000
v  -0.007071   0.033574  -0.002000
v  -0.005500   0.032474  -0.002000
v  -0.003762   0.031663  -0.002000
v  -0.001910   0.031167  -0.002000
v  -0.000000   0.031000  -0.002000
v   0.001910   0.031167  -0.002000
v   0.003762   0.031663  -0.002000
v   0.005500   0.032474  -0.002000
v   0.007071   0.033574  -0.002000
v   0.008426   0.034929  -0.002000
v   0.009526   0.036500  -0.002000
v   0.010337   0.038238  -0.002000
v   0.010833   0.040090  -0.002000
v   0.010966   0.042000  -0.001686
v   0.010799   0.043904  -0.001686
v   0.010305   0.045751  -0.001686
v   0.009497   0.047483  -0.001686
v   0.008401   0.049049  -0.001686
v   0.007049   0.050401  -0.001686
v   0.005483   0.051497  -0.001686
v   0.003751   0.052305  -0.001686
v   0.001904   0.052799  -0.001686
v   0.000000   0.052966  -0.001686
v  -0.001904   0.052799  -0.001686
v  -0.003751   0.052305  -0.001686
v  -0.005483   0.051497  -0.001686
v  -0.007049   0.050401  -0.001686
v  -0.008401   0.049049  -0.001686
v  -0.009497   0.047483  -0.001686
v  -0.010305   0.045751  -0.001686
v  -0.010799   0.043904  -0.001686
v  -0.010966   0.042000  -0.001686
v  -0.010799   0.040096  -0.001686
v  -0.010305   0.038249  -0.001686
v  -0.009497   0.036517  -0.001686
v  -0.008401   0.034951  -0.001686
v  -0.007049   0.033599  -0.001686
v  -0.005483   0.032503  -0.001686
v  -0.003751   0.031695  -0.001686
v  -0.001904   0.031201  -0.001686
v  -0.000000   0.031034  -0.001686
v   0.001904   0.031201  -0.001686
v   0.003751   0.031695  -0.001686
v   0.005483   0.032503  -0.001686
v   0.007049   0.033599  -0.001686
v   0.008401   0.034951  -0.001686
v   0.009497   0.036517  -0.001686
v   0.010305   0.038249  -0.001686
v   0.010799   0.040096  -0.001686
v   0.010865   0.042000  -0.001374
v   0.010700   0.043887  -0.001374
v   0.010209   0.045716  -0.001374
v   0.009409   0.047432  -0.001374
v   0.008323   0.048984  -0.001374
v   0.006984   0.050323  -0.001374
v   0.005432   0.051409  -0.001374
v   0.003716   0.052209  -0.001374
v   0.001887   0.052700  -0.001374
v   0.000000   0.052865  -0.001374
v  -0.001887   0.052700  -0.001374
v  -0.003716   0.052209  -0.001374
v  -0.005432   0.051409  -0.001374
v  -0.006984   0.050323  -0.001374
v  -0.008323   0.048984  -0.001374
v  -0.009409   0.047432  -0.001374
v  -0.010209   0.045716  -0.001374
v  -0.010700   0.043887  -0.001374
v  -0.010865   0.042000  -0.001374
v  -0.010700   0.040113  -0.001374
v  -0.010209   0.038284  -0.001374
v  -0.009409   0.036568  -0.001374
v  -0.008323   0.035016  -0.001374
v  -0.006984   0.033677  -0.001374
v  -0.005432   0.032591  -0.001374
v  -0.003716   0.031791  -0.001374
v  -0.001887   0.031300  -0.001374
v  -0.000000   0.031135  -0.001374
v   0.001887   0.031300  -0.001374
v   0.003716   0.031791  -0.001374
v   0.005432   0.032591  -0.001374
v   0.006984   0.033677  -0.001374
v   0.008323   0.035016  -0.001374
v   0.009409   0.036568  -0.001374
v   0.010209   0.038284  -0.001374
v   0.010700   0.040113  -0.001374
v   0.010696   0.042000  -0.001066
v   0.010534   0.043857  -0.001066
v   0.010051   0.045658  -0.001066
v   0.009263   0.047348  -0.001066
v   0.008194   0.048875  -0.001066
v   0.006875   0.050194  -0.001066
v   0.005348   0.051263  -0.001066
v   0.003658   0.052051  -0.001066
v   0.001857   0.052534  -0.001066
v   0.000000   0.052696  -0.001066
v  -0.001857   0.052534  -0.001066
v  -0.003658   0.052051  -0.001066
v  -0.005348   0.051263  -0.001066
v  -0.006875   0.050194  -0.001066
v  -0.008194   0.048875  -0.001066
v  -0.009263   0.047348  -0.001066
v  -0.010051   0.045658  -0.001066
v  -0.010534   0.043857  -0.001066
v  -0.010696   0.042000  -0.001066
v  -0.010534   0.040143  -0.001066
v  -0.010051   0.038342  -0.001066
v  -0.009263   0.036652  -0.001066
v  -0.008194   0.035125  -0.001066
v  -0.006875   0.033806  -0.001066
v  -0.005348   0.032737  -0.001066
v  -0.003658   0.031949  -0.001066
v  -0.001857   0.031466  -0.001066
v  -0.000000   0.031304  -0.001066
v   0.001857   0.031466  -0.001066
v   0.003658   0.031949  -0.001066
v   0.005348   0.032737  -0.001066
v   0.006875   0.033806  -0.001066
v   0.008194   0.035125  -0.001066
v   0.009263   0.036652  -0.001066
v   0.010051   0.038342  -0.001066
v   0.010534   0.040143  -0.001066
v   0.010462   0.042000  -0.000764
v   0.010303   0.043817  -0.000764
v   0.009831   0.045578  -0.000764
v   0.009060   0.047231  -0.000764
v   0.008014   0.048725  -0.000764
v   0.006725   0.050014  -0.000764
v   0.005231   0.051060  -0.000764
v   0.003578   0.051831  -0.000764
v   0.001817   0.052303  -0.000764
v   0.000000   0.052462  -0.000764
v  -0.001817   0.052303  -0.000764
v  -0.003578   0.051831  -0.000764
v  -0.005231   0.051060  -0.000764
v  -0.006725   0.050014  -0.000764
v  -0.008014   0.048725  -0.000764
v  -0.009060   0.047231  -0.000764
v  -0.009831   0.045578  -0.000764
v  -0.010303   0.043817  -0.000764
v  -0.010462   0.042000  -0.000764
v  -0.010303   0.040183  -0.000764
v  -0.009831   0.038422  -0.000764
v  -0.009060   0.036769  -0.000764
v  -0.008014   0.035275  -0.000764
v  -0.006725   0.033986  -0.000764
v  -0.005231   0.032940  -0.000764
v  -0.003578   0.032169  -0.000764
v  -0.001817   0.031697  -0.000764
v  -0.000000   0.031538  -0.000764
v   0.001817   0.031697  -0.000764
v   0.003578   0.032169  -0.000764
v   0.005231   0.032940  -0.000764
v   0.006725   0.033986  -0.000764
v   0.008014   0.035275  -0.000764
v   0.009060   0.036769  -0.000764
v   0.009831   0.038422  -0.000764
v   0.010303   0.040183  -0.000764
v   0.010163   0.042000  -0.000469
v   0.010008   0.043765  -0.000469
v   0.009550   0.045476  -0.000469
v   0.008801   0.047081  -0.000469
v   0.007785   0.048532  -0.000469
v   0.006532   0.049785  -0.000469
v   0.005081   0.050801  -0.000469
v   0.003476   0.051550  -0.000469
v   0.001765   0.052008  -0.000469
v   0.000000   0.052163  -0.000469
v  -0.001765   0.052008  -0.000469
v  -0.003476   0.051550  -0.000469
v  -0.005081   0.050801  -0.000469
v  -0.006532   0.049785  -0.000469
v  -0.007785   0.048532  -0.000469
v  -0.008801   0.047081  -0.000469
v  -0.009550   0.045476  -0.000469
v  -0.010008   0.043765  -0.000469
v  -0.010163   0.042000  -0.000469
v  -0.010008   0.040235  -0.000469
v  -0.009550   0.038524  -0.000469
v  -0.008801   0.036919  -0.000469
v  -0.007785   0.035468  -0.000469
v  -0.006532   0.034215  -0.000469
v  -0.005081   0.033199  -0.000469
v  -0.003476   0.032450  -0.000469
v  -0.001765   0.031992  -0.000469
v  -0.000000   0.031837  -0.000469
v   0.001765   0.031992  -0.000469
v   0.003476   0.032450  -0.000469
v   0.005081   0.033199  -0.000469
v   0.006532   0.034215  -0.000469
v   0.007785   0.035468  -0.000469
v   0.008801   0.036919  -0.000469
v   0.009550   0.038524  -0.000469
v   0.010008   0.040235  -0.000469
v   0.009801   0.042000  -0.000184
v   0.009652   0.043702  -0.000184
v   0.009210   0.045352  -0.000184
v   0.008488   0.046901  -0.000184
v   0.007508   0.048300  -0.000184
v   0.006300   0.049508  -0.000184
v   0.004901   0.050488  -0.000184
v   0.003352   0.051210  -0.000184
v   0.001702   0.051652  -0.000184
v   0.000000   0.051801  -0.000184
v  -0.001702   0.051652  -0.000184
v  -0.003352   0.051210  -0.000184
v  -0.004901   0.050488  -0.000184
v  -0.006300   0.049508  -0.000184
v  -0.007508   0.048300  -0.000184
v  -0.008488   0.046901  -0.000184
v  -0.009210   0.045352  -0.000184
v  -0.009652   0.043702  -0.000184
v  -0.009801   0.042000  -0.000184
v  -0.009652   0.040298  -0.000184
v  -0.009210   0.038648  -0.000184
v  -0.008488   0.037099  -0.000184
v  -0.007508   0.035700  -0.000184
v  -0.006300   0.034492  -0.000184
v  -0.004901   0.033512  -0.000184
v  -0.003352   0.032790  -0.000184
v  -0.001702   0.032348  -0.000184
v  -0.000000   0.032199  -0.000184
v   0.001702   0.032348  -0.000184
v   0.003352   0.032790  -0.000184
v   0.004901   0.033512  -0.000184
v   0.006300   0.034492  -0.000184
v   0.007508   0.035700  -0.000184
v   0.008488   0.037099  -0.000184
v   0.009210   0.038648  -0.000184
v   0.009652   0.040298  -0.000184
v   0.009379   0.042000   0.000090
v   0.009237   0.043629   0.000090
v   0.008813   0.045208   0.000090
v   0.008122   0.046690   0.000090
v   0.007185   0.048029   0.000090
v   0.006029   0.049185   0.000090
v   0.004690   0.050122   0.000090
v   0.003208   0.050813   0.000090
v   0.001629   0.051237   0.000090
v   0.000000   0.051379   0.000090
v  -0.001629   0.051237   0.000090
v  -0.003208   0.050813   0.000090
v  -0.004690   0.050122   0.000090
v  -0.006029   0.049185   0.000090
v  -0.007185   0.048029   0.000090
v  -0.008122   0.046690   0.000090
v  -0.008813   0.045208   0.000090
v  -0.009237   0.043629   0.000090
v  -0.009379   0.042000   0.000090
v  -0.009237   0.040371   0.000090
v  -0.008813   0.038792   0.000090
v  -0.008122   0.037310   0.000090
v  -0.007185   0.035971   0.000090
v  -0.006029   0.034815   0.000090
v  -0.004690   0.033878   0.000090
v  -0.003208   0.033187   0.000090
v  -0.001629   0.032763   0.000090
v  -0.000000   0.032621   0.000090
v   0.001629   0.032763   0.000090
v   0.003208   0.033187   0.000090
v   0.004690   0.033878   0.000090
v   0.006029   0.034815   0.000090
v   0.007185   0.035971   0.000090
v   0.008122   0.037310   0.000090
v   0.008813   0.038792   0.000090
v   0.009237   0.040371   0.000090
v   0.008899   0.042000   0.000351
v   0.008764   0.043545   0.000351
v   0.008363   0.045044   0.000351
v   0.007707   0.046450   0.000351
v   0.006817   0.047720   0.000351
v   0.005720   0.048817   0.000351
v   0.004450   0.049707   0.000351
v   0.003044   0.050363   0.000351
v   0.001545   0.050764   0.000351
v   0.000000   0.050899   0.000351
v  -0.001545   0.050764   0.000351
v  -0.003044   0.050363   0.000351
v  -0.004450   0.049707   0.000351
v  -0.005720   0.048817   0.000351
v  -0.006817   0.047720   0.000351
v  -0.007707   0.046450   0.000351
v  -0.008363   0.045044   0.000351
v  -0.008764   0.043545   0.000351
v  -0.008899   0.042000   0.000351
v  -0.008764   0.040455   0.000351
v  -0.008363   0.038956   0.000351
v  -0.007707   0.037550   0.000351
v  -0.006817   0.036280   0.000351
v  -0.005720   0.035183   0.000351
v  -0.004450   0.034293   0.000351
v  -0.003044   0.033637   0.000351
v  -0.001545   0.033236   0.000351
v  -0.000000   0.033101   0.000351
v   0.001545   0.033236   0.000351
v   0.003044   0.033637   0.000351
v   0.004450   0.034293   0.000351
v   0.005720   0.035183   0.000351
v   0.006817   0.036280   0.000351
v   0.007707   0.037550   0.000351
v   0.008363   0.038956   0.000351
v   0.008764   0.040455   0.000351
v   0.008364   0.042000   0.000598
v   0.008237   0.043452   0.000598
v   0.007860   0.044861   0.000598
v   0.007244   0.046182   0.000598
v   0.006408   0.047377   0.000598
v   0.005377   0.048408   0.000598
v   0.004182   0.049244   0.000598
v   0.002861   0.049860   0.000598
v   0.001452   0.050237   0.000598
v   0.000000   0.050364   0.000598
v  -0.001452   0.050237   0.000598
v  -0.002861   0.049860   0.000598
v  -0.004182   0.049244   0.000598
v  -0.005377   0.048408   0.000598
v  -0.006408   0.047377   0.000598
v  -0.007244   0.046182   0.000598
v  -0.007860   0.044861   0.000598
v  -0.008237   0.043452   0.000598
v  -0.008364   0.042000   0.000598
v  -0.008237   0.040548   0.000598
v  -0.007860   0.039139   0.000598
v  -0.007244   0.037818   0.000598
v  -0.006408   0.036623   0.000598
v  -0.005377   0.035592   0.000598
v  -0.004182   0.034756   0.000598
v  -0.002861   0.034140   0.000598
v  -0.001452   0.033763   0.000598
v  -0.000000   0.033636   0.000598
v   0.001452   0.033763   0.000598
v   0.002861   0.034140   0.000598
v   0.004182   0.034756   0.000598
v   0.005377   0.035592   0.000598
v   0.006408   0.036623   0.000598
v   0.007244   0.037818   0.000598
v   0.007860   0.039139   0.000598
v   0.008237   0.040548   0.000598
v   0.007778   0.042000   0.000828
v   0.007660   0.043351   0.000828
v   0.007309   0.044660   0.000828
v   0.006736   0.045889   0.000828
v   0.005958   0.047000   0.000828
v   0.005000   0.047958   0.000828
v   0.003889   0.048736   0.000828
v   0.002660   0.049309   0.000828
v   0.001351   0.049660   0.000828
v   0.000000   0.049778   0.000828
v  -0.001351   0.049660   0.000828
v  -0.002660   0.049309   0.000828
v  -0.003889   0.048736   0.000828
v  -0.005000   0.047958   0.000828
v  -0.005958   0.047000   0.000828
v  -0.006736   0.045889   0.000828
v  -0.007309   0.044660   0.000828
v  -0.007660   0.043351   0.000828
v  -0.007778   0.042000   0.000828
v  -0.007660   0.040649   0.000828
v  -0.007309   0.039340   0.000828
v  -0.006736   0.038111   0.000828
v  -0.005958   0.037000   0.000828
v  -0.005000   0.036042   0.000828
v  -0.003889   0.035264   0.000828
v  -0.002660   0.034691   0.000828
v  -0.001351   0.034340   0.000828
v  -0.000000   0.034222   0.000828
v   0.001351   0.034340   0.000828
v   0.002660   0.034691   0.000828
v   0.003889   0.035264   0.000828
v   0.005000   0.036042   0.000828
v   0.005958   0.037000   0.000828
v   0.006736   0.038111   0.000828
v   0.007309   0.039340   0.000828
v   0.007660   0.040649   0.000828
v   0.007144   0.042000   0.001042
v   0.007035   0.043241   0.001042
v   0.006713   0.044443   0.001042
v   0.006187   0.045572   0.001042
v   0.005473   0.046592   0.001042
v   0.004592   0.047473   0.001042
v   0.003572   0.048187   0.001042
v   0.002443   0.048713   0.001042
v   0.001241   0.049035   0.001042
v   0.000000   0.049144   0.001042
v  -0.001241   0.049035   0.001042
v  -0.002443   0.048713   0.001042
v  -0.003572   0.048187   0.001042
v  -0.004592   0.047473   0.001042
v  -0.005473   0.046592   0.001042
v  -0.006187   0.045572   0.001042
v  -0.006713   0.044443   0.001042
v  -0.007035   0.043241   0.001042
v  -0.007144   0.042000   0.001042
v  -0.007035   0.040759   0.001042
v  -0.006713   0.039557   0.001042
v  -0.006187   0.038428   0.001042
v  -0.005473   0.037408   0.001042
v  -0.004592   0.036527   0.001042
v  -0.003572   0.035813   0.001042
v  -0.002443   0.035287   0.001042
v  -0.001241   0.034965   0.001042
v  -0.000000   0.034856   0.001042
v   0.001241   0.034965   0.001042
v   0.002443   0.035287   0.001042
v   0.003572   0.035813   0.001042
v   0.004592   0.036527   0.001042
v   0.005473   0.037408   0.001042
v   0.006187   0.038428   0.001042
v   0.006713   0.039557   0.001042
v   0.007035   0.040759   0.001042
v   0.006466   0.042000   0.001236
v   0.006367   0.043123   0.001236
v   0.006076   0.044211   0.001236
v   0.005599   0.045233   0.001236
v   0.004953   0.046156   0.001236
v   0.004156   0.046953   0.001236
v   0.003233   0.047599   0.001236
v   0.002211   0.048076   0.001236
v   0.001123   0.048367   0.001236
v   0.000000   0.048466   0.001236
v  -0.001123   0.048367   0.001236
v  -0.002211   0.048076   0.001236
v  -0.003233   0.047599   0.001236
v  -0.004156   0.046953   0.001236
v  -0.004953   0.046156   0.001236
v  -0.005599   0.045233   0.001236
v  -0.006076   0.044211   0.001236
v  -0.006367   0.043123   0.001236
v  -0.006466   0.042000   0.001236
v  -0.006367   0.040877   0.001236
v  -0.006076   0.039789   0.001236
v  -0.005599   0.038767   0.001236
v  -0.004953   0.037844   0.001236
v  -0.004156   0.037047   0.001236
v  -0.003233   0.036401   0.001236
v  -0.002211   0.035924   0.001236
v  -0.001123   0.035633   0.001236
v  -0.000000   0.035534   0.001236
v   0.001123   0.035633   0.001236
v   0.002211   0.035924   0.001236
v   0.003233   0.036401   0.001236
v   0.004156   0.037047   0.001236
v   0.004953   0.037844   0.001236
v   0.005599   0.038767   0.001236
v   0.006076   0.039789   0.001236
v   0.006367   0.040877   0.001236
v   0.005747   0.042000   0.001411
v   0.005660   0.042998   0.001411
v   0.005401   0.043966   0.001411
v   0.004977   0.044874   0.001411
v   0.004403   0.045694   0.001411
v   0.003694   0.046403   0.001411
v   0.002874   0.046977   0.001411
v   0.001966   0.047401   0.001411
v   0.000998   0.047660   0.001411
v   0.000000   0.047747   0.001411
v  -0.000998   0.047660   0.001411
v  -0.001966   0.047401   0.001411
v  -0.002874   0.046977   0.001411
v  -0.003694   0.046403   0.001411
v  -0.004403   0.045694   0.001411
v  -0.004977   0.044874   0.001411
v  -0.005401   0.043966   0.001411
v  -0.005660   0.042998   0.001411
v  -0.005747   0.042000   0.001411
v  -0.005660   0.041002   0.001411
v  -0.005401   0.040034   0.001411
v  -0.004977   0.039126   0.001411
v  -0.004403   0.038306   0.001411
v  -0.003694   0.037597   0.001411
v  -0.002874   0.037023   0.001411
v  -0.001966   0.036599   0.001411
v  -0.000998   0.036340   0.001411
v  -0.000000   0.036253   0.001411
v   0.000998   0.036340   0.001411
v   0.001966   0.036599   0.001411
v   0.002874   0.037023   0.001411
v   0.003694   0.037597   0.001411
v   0.004403   0.038306   0.001411
v   0.004977   0.039126   0.001411
v   0.005401   0.040034   0.001411
v   0.005660   0.041002   0.001411
v   0.004994   0.042000   0.001564
v   0.004918   0.042867   0.001564
v   0.004693   0.043708   0.001564
v   0.004325   0.044497   0.001564
v   0.003826   0.045210   0.001564
v   0.003210   0.045826   0.001564
v   0.002497   0.046325   0.001564
v   0.001708   0.046693   0.001564
v   0.000867   0.046918   0.001564
v   0.000000   0.046994   0.001564
v  -0.000867   0.046918   0.001564
v  -0.001708   0.046693   0.001564
v  -0.002497   0.046325   0.001564
v  -0.003210   0.045826   0.001564
v  -0.003826   0.045210   0.001564
v  -0.004325   0.044497   0.001564
v  -0.004693   0.043708   0.001564
v  -0.004918   0.042867   0.001564
v  -0.004994   0.042000   0.001564
v  -0.004918   0.041133   0.001564
v  -0.004693   0.040292   0.001564
v  -0.004325   0.039503   0.001564
v  -0.003826   0.038790   0.001564
v  -0.003210   0.038174   0.001564
v  -0.002497   0.037675   0.001564
v  -0.001708   0.037307   0.001564
v  -0.000867   0.037082   0.001564
v  -0.000000   0.037006   0.001564
v   0.000867   0.037082   0.001564
v   0.001708   0.037307   0.001564
v   0.002497   0.037675   0.001564
v   0.003210   0.038174   0.001564
v   0.003826   0.038790   0.001564
v   0.004325   0.039503   0.001564
v   0.004693   0.040292   0.001564
v   0.004918   0.041133   0.001564
v   0.004210   0.042000   0.001696
v   0.004146   0.042731   0.001696
v   0.003956   0.043440   0.001696
v   0.003646   0.044105   0.001696
v   0.003225   0.044706   0.001696
v   0.002706   0.045225   0.001696
v   0.002105   0.045646   0.001696
v   0.001440   0.045956   0.001696
v   0.000731   0.046146   0.001696
v   0.000000   0.046210   0.001696
v  -0.000731   0.046146   0.001696
v  -0.001440   0.045956   0.001696
v  -0.002105   0.045646   0.001696
v  -0.002706   0.045225   0.001696
v  -0.003225   0.044706   0.001696
v  -0.003646   0.044105   0.001696
v  -0.003956   0.043440   0.001696
v  -0.004146   0.042731   0.001696
v  -0.004210   0.042000   0.001696
v  -0.004146   0.041269   0.001696
v  -0.003956   0.040560   0.001696
v  -0.003646   0.039895   0.001696
v  -0.003225   0.039294   0.001696
v  -0.002706   0.038775   0.001696
v  -0.002105   0.038354   0.001696
v  -0.001440   0.038044   0.001696
v  -0.000731   0.037854   0.001696
v  -0.000000   0.037790   0.001696
v   0.000731   0.037854   0.001696
v   0.001440   0.038044   0.001696
v   0.002105   0.038354   0.001696
v   0.002706   0.038775   0.001696
v   0.003225   0.039294   0.001696
v   0.003646   0.039895   0.001696
v   0.003956   0.040560   0.001696
v   0.004146   0.041269   0.001696
v   0.003399   0.042000   0.001804
v   0.003348   0.042590   0.001804
v   0.003194   0.043163   0.001804
v   0.002944   0.043700   0.001804
v   0.002604   0.044185   0.001804
v   0.002185   0.044604   0.001804
v   0.001700   0.044944   0.001804
v   0.001163   0.045194   0.001804
v   0.000590   0.045348   0.001804
v   0.000000   0.045399   0.001804
v  -0.000590   0.045348   0.001804
v  -0.001163   0.045194   0.001804
v  -0.001700   0.044944   0.001804
v  -0.002185   0.044604   0.001804
v  -0.002604   0.044185   0.001804
v  -0.002944   0.043700   0.001804
v  -0.003194   0.043163   0.001804
v  -0.003348   0.042590   0.001804
v  -0.003399   0.042000   0.001804
v  -0.003348   0.041410   0.001804
v  -0.003194   0.040837   0.001804
v  -0.002944   0.040300   0.001804
v  -0.002604   0.039815   0.001804
v  -0.002185   0.039396   0.001804
v  -0.001700   0.039056   0.001804
v  -0.001163   0.038806   0.001804
v  -0.000590   0.038652   0.001804
v  -0.000000   0.038601   0.001804
v   0.000590   0.038652   0.001804
v   0.001163   0.038806   0.001804
v   0.001700   0.039056   0.001804
v   0.002185   0.039396   0.001804
v   0.002604   0.039815   0.001804
v   0.002944   0.040300   0.001804
v   0.003194   0.040837   0.001804
v   0.003348   0.041410   0.001804
v   0.002568   0.042000   0.001889
v   0.002529   0.042446   0.001889
v   0.002413   0.042878   0.001889
v   0.002224   0.043284   0.001889
v   0.001967   0.043651   0.001889
v   0.001651   0.043967   0.001889
v   0.001284   0.044224   0.001889
v   0.000878   0.044413   0.001889
v   0.000446   0.044529   0.001889
v   0.000000   0.044568   0.001889
v  -0.000446   0.044529   0.001889
v  -0.000878   0.044413   0.001889
v  -0.001284   0.044224   0.001889
v  -0.001651   0.043967   0.001889
v  -0.001967   0.043651   0.001889
v  -0.002224   0.043284   0.001889
v  -0.002413   0.042878   0.001889
v  -0.002529   0.042446   0.001889
v  -0.002568   0.042000   0.001889
v  -0.002529   0.041554   0.001889
v  -0.002413   0.041122   0.001889
v  -0.002224   0.040716   0.001889
v  -0.001967   0.040349   0.001889
v  -0.001651   0.040033   0.001889
v  -0.001284   0.039776   0.001889
v  -0.000878   0.039587   0.001889
v  -0.000446   0.039471   0.001889
v  -0.000000   0.039432   0.001889
v   0.000446   0.039471   0.001889
v   0.000878   0.039587   0.001889
v   0.001284   0.039776   0.001889
v   0.001651   0.040033   0.001889
v   0.001967   0.040349   0.001889
v   0.002224   0.040716   0.001889
v   0.002413   0.041122   0.001889
v   0.002529   0.041554   0.001889
v   0.001721   0.042000   0.001951
v   0.001695   0.042299   0.001951
v   0.001617   0.042589   0.001951
v   0.001490   0.042860   0.001951
v   0.001318   0.043106   0.001951
v   0.001106   0.043318   0.001951
v   0.000860   0.043490   0.001951
v   0.000589   0.043617   0.001951
v   0.000299   0.043695   0.001951
v   0.000000   0.043721   0.001951
v  -0.000299   0.043695   0.001951
v  -0.000589   0.043617   0.001951
v  -0.000860   0.043490   0.001951
v  -0.001106   0.043318   0.001951
v  -0.001318   0.043106   0.001951
v  -0.001490   0.042860   0.001951
v  -0.001617   0.042589   0.001951
v  -0.001695   0.042299   0.001951
v  -0.001721   0.042000   0.001951
v  -0.001695   0.041701   0.001951
v  -0.001617   0.041411   0.001951
v  -0.001490   0.041140   0.001951
v  -0.001318   0.040894   0.001951
v  -0.001106   0.040682   0.001951
v  -0.000860   0.040510   0.001951
v  -0.000589   0.040383   0.001951
v  -0.000299   0.040305   0.001951
v  -0.000000   0.040279   0.001951
v   0.000299   0.040305   0.001951
v   0.000589   0.040383   0.001951
v   0.000860   0.040510   0.001951
v   0.001106   0.040682   0.001951
v   0.001318   0.040894   0.001951
v   0.001490   0.041140   0.001951
v   0.001617   0.041411   0.001951
v   0.001695   0.041701   0.001951
v   0.000863   0.042000   0.001988
v   0.000850   0.042150   0.001988
v   0.000811   0.042295   0.001988
v   0.000747   0.042432   0.001988
v   0.000661   0.042555   0.001988
v   0.000555   0.042661   0.001988
v   0.000432   0.042747   0.001988
v   0.000295   0.042811   0.001988
v   0.000150   0.042850   0.001988
v   0.000000   0.042863   0.001988
v  -0.000150   0.042850   0.001988
v  -0.000295   0.042811   0.001988
v  -0.000432   0.042747   0.001988
v  -0.000555   0.042661   0.001988
v  -0.000661   0.042555   0.001988
v  -0.000747   0.042432   0.001988
v  -0.000811   0.042295   0.001988
v  -0.000850   0.042150   0.001988
v  -0.000863   0.042000   0.001988
v  -0.000850   0.041850   0.001988
v  -0.000811   0.041705   0.001988
v  -0.000747   0.041568   0.001988
v  -0.000661   0.041445   0.001988
v  -0.000555   0.041339   0.001988
v  -0.000432   0.041253   0.001988
v  -0.000295   0.041189   0.001988
v  -0.000150   0.041150   0.001988
v  -0.000000   0.041137   0.001988
v   0.000150   0.041150   0.001988
v   0.000295   0.041189   0.001988
v   0.000432   0.041253   0.001988
v   0.000555   0.041339   0.001988
v   0.000661   0.041445   0.001988
v   0.000747   0.041568   0.001988
v   0.000811   0.041705   0.001988
v   0.000850   0.041850   0.001988
v   0.000000   0.042000   0.002000
v   0.000000   0.042000   0.002000
v   0.000000   0.042000   0.002000
v   0.000000   0.042000   0.002000
v   0.000000   0.042000   0.002000
v   0.000000   0.042000   0.002000
v   0.000000   0.042000   0.002000
v   0.000000   0.042000   0.002000
v   0.000000   0.042000   0.002000
v   0.000000   0.042000   0.002000
v  -0.000000   0.042000   0.002000
v  -0.000000   0.042000   0.002000
v  -0.000000   0.042000   0.002000
v  -0.000000   0.042000   0.002000
v  -0.000000   0.042000   0.002000
v  -0.000000   0.042000   0.002000
v  -0.000000   0.042000   0.002000
v  -0.000000   0.042000   0.002000
v  -0.000000   0.042000   0.002000
v  -0.000000   0.042000   0.002000
v  -0.000000   0.042000   0.002000
v  -0.000000   0.042000   0.002000
v  -0.000000   0.042000   0.002000
v  -0.000000   0.042000   0.002000
v  -0.000000   0.042000   0.002000
v  -0.000000   0.042000   0.002000
v  -0.000000   0.042000   0.002000
v  -0.000000   0.042000   0.002000
v   0.000000   0.042000   0.002000
v   0.000000   0.042000   0.002000
v   0.000000   0.042000   0.002000
v   0.000000   0.042000   0.002000
v   0.000000   0.042000   0.002000
v   0.000000   0.042000   0.002000
v   0.000000   0.042000   0.002000
v   0.000000   0.042000   0.002000
v   0.000000   0.042000  -0.002000

vn  0.000000  0.000000 -1.000000
vn  0.000000  0.000000 -1.000000
vn  0.000000  0.000000 -1.000000
vn  0.000000  0.000000 -1.000000
vn  0.000000  0.000000  1.000000
vn  0.000000  0.000000  1.000000
vn  0.000000  0.000000  1.000000
vn  0.000000  0.000000  1.000000
vn  0.000000 -1.000000  0.000000
vn  0.000000 -1.000000  0.000000
vn  0.000000 -1.000000  0.000000
vn  0.000000 -1.000000  0.000000
vn  0.000000  1.000000  0.000000
vn  0.000000  1.000000  0.000000
vn  0.000000  1.000000  0.000000
vn  0.000000  1.000000  0.000000
vn -1.000000  0.000000  0.000000
vn -1.000000  0.000000  0.000000
vn -1.000000  0.000000  0.000000
vn -1.000000  0.000000  0.000000
vn  1.000000  0.000000  0.000000
vn  1.000000  0.000000  0.000000
vn  1.000000  0.000000  0.000000
vn  1.000000  0.000000  0.000000
vn  0.000000  0.000000 -1.000000
vn  0.000000  0.000000 -1.000000
vn  0.000000  0.000000 -1.000000
vn  0.000000  0.000000 -1.000000
vn  0.000000  0.000000  1.000000
vn  0.000000  0.000000  1.000000
vn  0.000000  0.000000  1.000000
vn  0.000000  0.000000  1.000000
vn  0.000000 -1.000000  0.000000
vn  0.000000 -1.000000  0.000000
vn  0.000000 -1.000000  0.000000
vn  0.000000 -1.000000  0.000000
vn  0.000000  1.000000  0.000000
vn  0.000000  1.000000  0.000000
vn  0.000000  1.000000  0.000000
vn  0.000000  1.000000  0.000000
vn -1.000000  0.000000  0.000000
vn -1.000000  0.000000  0.000000
vn -1.000000  0.000000  0.000000
vn -1.000000  0.000000  0.000000
vn  1.000000  0.000000  0.000000
vn  1.000000  0.000000  0.000000
vn  1.000000  0.000000  0.000000
vn  1.000000  0.000000  0.000000
vn  0.057232 -0.000000 -0.998361
vn  0.056363  0.009938 -0.998361
vn  0.053781  0.019575 -0.998361
vn  0.049564  0.028616 -0.998361
vn  0.043842  0.036788 -0.998361
vn  0.036788  0.043842 -0.998361
vn  0.028616  0.049564 -0.998361
vn  0.019575  0.053781 -0.998361
vn  0.009938  0.056363 -0.998361
vn  0.000000  0.057232 -0.998361
vn -0.009938  0.056363 -0.998361
vn -0.019575  0.053781 -0.998361
vn -0.028616  0.049564 -0.998361
vn -0.036788  0.043842 -0.998361
vn -0.043842  0.036788 -0.998361
vn -0.049564  0.028616 -0.998361
vn -0.053781  0.019575 -0.998361
vn -0.056363  0.009938 -0.998361
vn -0.057232  0.000000 -0.998361
vn -0.056363 -0.009938 -0.998361
vn -0.053781 -0.019575 -0.998361
vn -0.049564 -0.028616 -0.998361
vn -0.043842 -0.036788 -0.998361
vn -0.036788 -0.043842 -0.998361
vn -0.028616 -0.049564 -0.998361
vn -0.019575 -0.053781 -0.998361
vn -0.009938 -0.056363 -0.998361
vn -0.000000 -0.057232 -0.998361
vn  0.009938 -0.056363 -0.998361
vn  0.019575 -0.053781 -0.998361
vn  0.028616 -0.049564 -0.998361
vn  0.036788 -0.043842 -0.998361
vn  0.043842 -0.036788 -0.998361
vn  0.049564 -0.028616 -0.998361
vn  0.053781 -0.019575 -0.998361
vn  0.056363 -0.009938 -0.998361
vn  0.977439 -0.000000  0.211218
vn  0.962589  0.169730  0.211218
vn  0.918492  0.334304  0.211218
vn  0.846487  0.488719  0.211218
vn  0.748762  0.628286  0.211218
vn  0.628286  0.748762  0.211218
vn  0.488719  0.846487  0.211218
vn  0.334304  0.918492  0.211218
vn  0.169730  0.962589  0.211218
vn  0.000000  0.977439  0.211218
vn -0.169730  0.962589  0.211218
vn -0.334304  0.918492  0.211218
vn -0.488719  0.846487  0.211218
vn -0.628286  0.748762  0.211218
vn -0.748762  0.628286  0.211218
vn -0.846487  0.488719  0.211218
vn -0.918492  0.334304  0.211218
vn -0.962589  0.169730  0.211218
vn -0.977439  0.000000  0.211218
vn -0.962589 -0.169730  0.211218
vn -0.918492 -0.334304  0.211218
vn -0.846487 -0.488719  0.211218
vn -0.748762 -0.628286  0.211218
vn -0.628286 -0.748762  0.211218
vn -0.488719 -0.846487  0.211218
vn -0.334304 -0.918492  0.211218
vn -0.169730 -0.962589  0.211218
vn -0.000000 -0.977439  0.211218
vn  0.169730 -0.962589  0.211218
vn  0.334304 -0.918492  0.211218
vn  0.488719 -0.846487  0.211218
vn  0.628286 -0.748762  0.211218
vn  0.748762 -0.628286  0.211218
vn  0.846487 -0.488719  0.211218
vn  0.918492 -0.334304  0.211218
vn  0.962589 -0.169730  0.211218
vn  0.917041  0.000000  0.398792
vn  0.903110  0.159243  0.398792
vn  0.861737  0.313647  0.398792
vn  0.794181  0.458521  0.398792
vn  0.702494  0.589463  0.398792
vn  0.589463  0.702494  0.398792
vn  0.458521  0.794181  0.398792
vn  0.313647  0.861737  0.398792
vn  0.159243  0.903110  0.398792
vn -0.000000  0.917041  0.398792
vn -0.159243  0.903110  0.398792
vn -0.313647  0.861737  0.398792
vn -0.458521  0.794181  0.398792
vn -0.589463  0.702494  0.398792
vn -0.702494  0.589463  0.398792
vn -0.794181  0.458521  0.398792
vn -0.861737  0.313647  0.398792
vn -0.903110  0.159243  0.398792
vn -0.917041  0.000000  0.398792
vn -0.903110 -0.159243  0.398792
vn -0.861737 -0.313647  0.398792
vn -0.794181 -0.458521  0.398792
vn -0.702494 -0.589463  0.398792
vn -0.589463 -0.702494  0.398792
vn -0.458521 -0.794181  0.398792
vn -0.313647 -0.861737  0.398792
vn -0.159243 -0.903110  0.398792
vn -0.000000 -0.917041  0.398792
vn  0.159243 -0.903110  0.398792
vn  0.313647 -0.861737  0.398792
vn  0.458521 -0.794181  0.398792
vn  0.589463 -0.702494  0.398792
vn  0.702494 -0.589463  0.398792
vn  0.794181 -0.458521  0.398792
vn  0.861737 -0.313647  0.398792
vn  0.903110 -0.159243  0.398792
vn  0.834940 -0.000000  0.550341
vn  0.822255  0.144986  0.550341
vn  0.784587  0.285566  0.550341
vn  0.723079  0.417470  0.550341
vn  0.639601  0.536689  0.550341
vn  0.536689  0.639601  0.550341
vn  0.417470  0.723079  0.550341
vn  0.285566  0.784587  0.550341
vn  0.144986  0.822255  0.550341
vn -0.000000  0.834940  0.550341
vn -0.144986  0.822255  0.550341
vn -0.285566  0.784587  0.550341
vn -0.417470  0.723079  0.550341
vn -0.536689  0.639601  0.550341
vn -0.639601  0.536689  0.550341
vn -0.723079  0.417470  0.550341
vn -0.784587  0.285566  0.550341
vn -0.822255  0.144986  0.550341
vn -0.834940  0.000000  0.550341
vn -0.822255 -0.144986  0.550341
vn -0.784587 -0.285566  0.550341
vn -0.723079 -0.417470  0.550341
vn -0.639601 -0.536689  0.550341
vn -0.536689 -0.639601  0.550341
vn -0.417470 -0.723079  0.550341
vn -0.285566 -0.784587  0.550341
vn -0.144986 -0.822255  0.550341
vn -0.000000 -0.834940  0.550341
vn  0.144986 -0.822255  0.550341
vn  0.285566 -0.784587  0.550341
vn  0.417470 -0.723079  0.550341
vn  0.536689 -0.639601  0.550341
vn  0.639601 -0.536689  0.550341
vn  0.723079 -0.417470  0.550341
vn  0.784587 -0.285566  0.550341
vn  0.822255 -0.144986  0.550341
vn  0.746254  0.000000  0.665662
vn  0.734916  0.129586  0.665662
vn  0.701249  0.255234  0.665662
vn  0.646275  0.373127  0.665662
vn  0.571664  0.479683  0.665662
vn  0.479683  0.571664  0.665662
vn  0.373127  0.646275  0.665662
vn  0.255234  0.701249  0.665662
vn  0.129586  0.734916  0.665662
vn -0.000000  0.746254  0.665662
vn -0.129586  0.734916  0.665662
vn -0.255234  0.701249  0.665662
vn -0.373127  0.646275  0.665662
vn -0.479683  0.571664  0.665662
vn -0.571664  0.479683  0.665662
vn -0.646275  0.373127  0.665662
vn -0.701249  0.255234  0.665662
vn -0.734916  0.129586  0.665662
vn -0.746254  0.000000  0.665662
vn -0.734916 -0.129586  0.665662
vn -0.701249 -0.255234  0.665662
vn -0.646275 -0.373127  0.665662
vn -0.571664 -0.479683  0.665662
vn -0.479683 -0.571664  0.665662
vn -0.373127 -0.646275  0.665662
vn -0.255234 -0.701249  0.665662
vn -0.129586 -0.734916  0.665662
vn -0.000000 -0.746254  0.665662
vn  0.129586 -0.734916  0.665662
vn  0.255234 -0.701249  0.665662
vn  0.373127 -0.646275  0.665662
vn  0.479683 -0.571664  0.665662
vn  0.571664 -0.479683  0.665662
vn  0.646275 -0.373127  0.665662
vn  0.701249 -0.255234  0.665662
vn  0.734916 -0.129586  0.665662
vn  0.660410 -0.000000  0.750905
vn  0.650377  0.114679  0.750905
vn  0.620583  0.225874  0.750905
vn  0.571932  0.330205  0.750905
vn  0.505904  0.424504  0.750905
vn  0.424504  0.505904  0.750905
vn  0.330205  0.571932  0.750905
vn  0.225874  0.620583  0.750905
vn  0.114679  0.650377  0.750905
vn  0.000000  0.660410  0.750905
vn -0.114679  0.650377  0.750905
vn -0.225874  0.620583  0.750905
vn -0.330205  0.571932  0.750905
vn -0.424504  0.505904  0.750905
vn -0.505904  0.424504  0.750905
vn -0.571932  0.330205  0.750905
vn -0.620583  0.225874  0.750905
vn -0.650377  0.114679  0.750905
vn -0.660410  0.000000  0.750905
vn -0.650377 -0.114679  0.750905
vn -0.620583 -0.225874  0.750905
vn -0.571932 -0.330205  0.750905
vn -0.505904 -0.424504  0.750905
vn -0.424504 -0.505904  0.750905
vn -0.330205 -0.571932  0.750905
vn -0.225874 -0.620583  0.750905
vn -0.114679 -0.650377  0.750905
vn -0.000000 -0.660410  0.750905
vn  0.114679 -0.650377  0.750905
vn  0.225874 -0.620583  0.750905
vn  0.330205 -0.571932  0.750905
vn  0.424504 -0.505904  0.750905
vn  0.505904 -0.424504  0.750905
vn  0.571932 -0.330205  0.750905
vn  0.620583 -0.225874  0.750905
vn  0.650377 -0.114679  0.750905
vn  0.581659  0.000000  0.813433
vn  0.572822  0.101004  0.813433
vn  0.546580  0.198939  0.813433
vn  0.503731  0.290829  0.813433
vn  0.445576  0.373883  0.813433
vn  0.373883  0.445576  0.813433
vn  0.290829  0.503731  0.813433
vn  0.198939  0.546580  0.813433
vn  0.101004  0.572822  0.813433
vn -0.000000  0.581659  0.813433
vn -0.101004  0.572822  0.813433
vn -0.198939  0.546580  0.813433
vn -0.290829  0.503731  0.813433
vn -0.373883  0.445576  0.813433
vn -0.445576  0.373883  0.813433
vn -0.503731  0.290829  0.813433
vn -0.546580  0.198939  0.813433
vn -0.572822  0.101004  0.813433
vn -0.581659  0.000000  0.813433
vn -0.572822 -0.101004  0.813433
vn -0.546580 -0.198939  0.813433
vn -0.503731 -0.290829  0.813433
vn -0.445576 -0.373883  0.813433
vn -0.373883 -0.445576  0.813433
vn -0.290829 -0.503731  0.813433
vn -0.198939 -0.546580  0.813433
vn -0.101004 -0.572822  0.813433
vn -0.000000 -0.581659  0.813433
vn  0.101004 -0.572822  0.813433
vn  0.198939 -0.546580  0.813433
vn  0.290829 -0.503731  0.813433
vn  0.373883 -0.445576  0.813433
vn  0.445576 -0.373883  0.813433
vn  0.503731 -0.290829  0.813433
vn  0.546580 -0.198939  0.813433
vn  0.572822 -0.101004  0.813433
vn  0.511119 -0.000000  0.859510
vn  0.503354  0.088755  0.859510
vn  0.480294  0.174813  0.859510
vn  0.442642  0.255559  0.859510
vn  0.391540  0.328541  0.859510
vn  0.328541  0.391540  0.859510
vn  0.255559  0.442642  0.859510
vn  0.174813  0.480294  0.859510
vn  0.088755  0.503354  0.859510
vn  0.000000  0.511119  0.859510
vn -0.088755  0.503354  0.859510
vn -0.174813  0.480294  0.859510
vn -0.255559  0.442642  0.859510
vn -0.328541  0.391540  0.859510
vn -0.391540  0.328541  0.859510
vn -0.442642  0.255559  0.859510
vn -0.480294  0.174813  0.859510
vn -0.503354  0.088755  0.859510
vn -0.511119  0.000000  0.859510
vn -0.503354 -0.088755  0.859510
vn -0.480294 -0.174813  0.859510
vn -0.442642 -0.255559  0.859510
vn -0.391540 -0.328541  0.859510
vn -0.328541 -0.391540  0.859510
vn -0.255559 -0.442642  0.859510
vn -0.174813 -0.480294  0.859510
vn -0.088755 -0.503354  0.859510
vn -0.000000 -0.511119  0.859510
vn  0.088755 -0.503354  0.859510
vn  0.174813 -0.480294  0.859510
vn  0.255559 -0.442642  0.859510
vn  0.328541 -0.391540  0.859510
vn  0.391540 -0.328541  0.859510
vn  0.442642 -0.255559  0.859510
vn  0.480294 -0.174813  0.859510
vn  0.503354 -0.088755  0.859510
vn  0.448418 -0.000000  0.893824
vn  0.441605  0.077867  0.893824
vn  0.421375  0.153368  0.893824
vn  0.388341  0.224209  0.893824
vn  0.343508  0.288237  0.893824
vn  0.288237  0.343508  0.893824
vn  0.224209  0.388341  0.893824
vn  0.153368  0.421375  0.893824
vn  0.077867  0.441605  0.893824
vn  0.000000  0.448418  0.893824
vn -0.077867  0.441605  0.893824
vn -0.153368  0.421375  0.893824
vn -0.224209  0.388341  0.893824
vn -0.288237  0.343508  0.893824
vn -0.343508  0.288237  0.893824
vn -0.388341  0.224209  0.893824
vn -0.421375  0.153368  0.893824
vn -0.441605  0.077867  0.893824
vn -0.448418  0.000000  0.893824
vn -0.441605 -0.077867  0.893824
vn -0.421375 -0.153368  0.893824
vn -0.388341 -0.224209  0.893824
vn -0.343508 -0.288237  0.893824
vn -0.288237 -0.343508  0.893824
vn -0.224209 -0.388341  0.893824
vn -0.153368 -0.421375  0.893824
vn -0.077867 -0.441605  0.893824
vn -0.000000 -0.448418  0.893824
vn  0.077867 -0.441605  0.893824
vn  0.153368 -0.421375  0.893824
vn  0.224209 -0.388341  0.893824
vn  0.288237 -0.343508  0.893824
vn  0.343508 -0.288237  0.893824
vn  0.388341 -0.224209  0.893824
vn  0.421375 -0.153368  0.893824
vn  0.441605 -0.077867  0.893824
vn  0.392622  0.000000  0.919700
vn  0.386657  0.068178  0.919700
vn  0.368944  0.134285  0.919700
vn  0.340020  0.196311  0.919700
vn  0.300766  0.252372  0.919700
vn  0.252372  0.300766  0.919700
vn  0.196311  0.340020  0.919700
vn  0.134285  0.368944  0.919700
vn  0.068178  0.386657  0.919700
vn  0.000000  0.392622  0.919700
vn -0.068178  0.386657  0.919700
vn -0.134285  0.368944  0.919700
vn -0.196311  0.340020  0.919700
vn -0.252372  0.300766  0.919700
vn -0.300766  0.252372  0.919700
vn -0.340020  0.196311  0.919700
vn -0.368944  0.134285  0.919700
vn -0.386657  0.068178  0.919700
vn -0.392622  0.000000  0.919700
vn -0.386657 -0.068178  0.919700
vn -0.368944 -0.134285  0.919700
vn -0.340020 -0.196311  0.919700
vn -0.300766 -0.252372  0.919700
vn -0.252372 -0.300766  0.919700
vn -0.196311 -0.340020  0.919700
vn -0.134285 -0.368944  0.919700
vn -0.068178 -0.386657  0.919700
vn -0.000000 -0.392622  0.919700
vn  0.068178 -0.386657  0.919700
vn  0.134285 -0.368944  0.919700
vn  0.196311 -0.340020  0.919700
vn  0.252372 -0.300766  0.919700
vn  0.300766 -0.252372  0.919700
vn  0.340020 -0.196311  0.919700
vn  0.368944 -0.134285  0.919700
vn  0.386657 -0.068178  0.919700
vn  0.342676  0.000000  0.939454
vn  0.337470  0.059505  0.939454
vn  0.322010  0.117202  0.939454
vn  0.296766  0.171338  0.939454
vn  0.262505  0.220268  0.939454
vn  0.220268  0.262505  0.939454
vn  0.171338  0.296766  0.939454
vn  0.117202  0.322010  0.939454
vn  0.059505  0.337470  0.939454
vn -0.000000  0.342676  0.939454
vn -0.059505  0.337470  0.939454
vn -0.117202  0.322010  0.939454
vn -0.171338  0.296766  0.939454
vn -0.220268  0.262505  0.939454
vn -0.262505  0.220268  0.939454
vn -0.296766  0.171338  0.939454
vn -0.322010  0.117202  0.939454
vn -0.337470  0.059505  0.939454
vn -0.342676  0.000000  0.939454
vn -0.337470 -0.059505  0.939454
vn -0.322010 -0.117202  0.939454
vn -0.296766 -0.171338  0.939454
vn -0.262505 -0.220268  0.939454
vn -0.220268 -0.262505  0.939454
vn -0.171338 -0.296766  0.939454
vn -0.117202 -0.322010  0.939454
vn -0.059505 -0.337470  0.939454
vn -0.000000 -0.342676  0.939454
vn  0.059505 -0.337470  0.939454
vn  0.117202 -0.322010  0.939454
vn  0.171338 -0.296766  0.939454
vn  0.220268 -0.262505  0.939454
vn  0.262505 -0.220268  0.939454
vn  0.296766 -0.171338  0.939454
vn  0.322010 -0.117202  0.939454
vn  0.337470 -0.059505  0.939454
vn  0.297591 -0.000000  0.954694
vn  0.293070  0.051676  0.954694
vn  0.279644  0.101782  0.954694
vn  0.257721  0.148795  0.954694
vn  0.227968  0.191288  0.954694
vn  0.191288  0.227968  0.954694
vn  0.148795  0.257721  0.954694
vn  0.101782  0.279644  0.954694
vn  0.051676  0.293070  0.954694
vn -0.000000  0.297591  0.954694
vn -0.051676  0.293070  0.954694
vn -0.101782  0.279644  0.954694
vn -0.148795  0.257721  0.954694
vn -0.191288  0.227968  0.954694
vn -0.227968  0.191288  0.954694
vn -0.257721  0.148795  0.954694
vn -0.279644  0.101782  0.954694
vn -0.293070  0.051676  0.954694
vn -0.297591  0.000000  0.954694
vn -0.293070 -0.051676  0.954694
vn -0.279644 -0.101782  0.954694
vn -0.257721 -0.148795  0.954694
vn -0.227968 -0.191288  0.954694
vn -0.191288 -0.227968  0.954694
vn -0.148795 -0.257721  0.954694
vn -0.101782 -0.279644  0.954694
vn -0.051676 -0.293070  0.954694
vn -0.000000 -0.297591  0.954694
vn  0.051676 -0.293070  0.954694
vn  0.101782 -0.279644  0.954694
vn  0.148795 -0.257721  0.954694
vn  0.191288 -0.227968  0.954694
vn  0.227968 -0.191288  0.954694
vn  0.257721 -0.148795  0.954694
vn  0.279644 -0.101782  0.954694
vn  0.293070 -0.051676  0.954694
vn  0.256501  0.000000  0.966544
vn  0.252604  0.044541  0.966544
vn  0.241032  0.087729  0.966544
vn  0.222136  0.128251  0.966544
vn  0.196491  0.164876  0.966544
vn  0.164876  0.196491  0.966544
vn  0.128251  0.222136  0.966544
vn  0.087729  0.241032  0.966544
vn  0.044541  0.252604  0.966544
vn -0.000000  0.256501  0.966544
vn -0.044541  0.252604  0.966544
vn -0.087729  0.241032  0.966544
vn -0.128251  0.222136  0.966544
vn -0.164876  0.196491  0.966544
vn -0.196491  0.164876  0.966544
vn -0.222136  0.128251  0.966544
vn -0.241032  0.087729  0.966544
vn -0.252604  0.044541  0.966544
vn -0.256501  0.000000  0.966544
vn -0.252604 -0.044541  0.966544
vn -0.241032 -0.087729  0.966544
vn -0.222136 -0.128251  0.966544
vn -0.196491 -0.164876  0.966544
vn -0.164876 -0.196491  0.966544
vn -0.128251 -0.222136  0.966544
vn -0.087729 -0.241032  0.966544
vn -0.044541 -0.252604  0.966544
vn -0.000000 -0.256501  0.966544
vn  0.044541 -0.252604  0.966544
vn  0.087729 -0.241032  0.966544
vn  0.128251 -0.222136  0.966544
vn  0.164876 -0.196491  0.966544
vn  0.196491 -0.164876  0.966544
vn  0.222136 -0.128251  0.966544
vn  0.241032 -0.087729  0.966544
vn  0.252604 -0.044541  0.966544
vn  0.218675 -0.000000  0.975798
vn  0.215353  0.037973  0.975798
vn  0.205487  0.074791  0.975798
vn  0.189378  0.109337  0.975798
vn  0.167515  0.140562  0.975798
vn  0.140562  0.167515  0.975798
vn  0.109337  0.189378  0.975798
vn  0.074791  0.205487  0.975798
vn  0.037973  0.215353  0.975798
vn  0.000000  0.218675  0.975798
vn -0.037973  0.215353  0.975798
vn -0.074791  0.205487  0.975798
vn -0.109337  0.189378  0.975798
vn -0.140562  0.167515  0.975798
vn -0.167515  0.140562  0.975798
vn -0.189378  0.109337  0.975798
vn -0.205487  0.074791  0.975798
vn -0.215353  0.037973  0.975798
vn -0.218675  0.000000  0.975798
vn -0.215353 -0.037973  0.975798
vn -0.205487 -0.074791  0.975798
vn -0.189378 -0.109337  0.975798
vn -0.167515 -0.140562  0.975798
vn -0.140562 -0.167515  0.975798
vn -0.109337 -0.189378  0.975798
vn -0.074791 -0.205487  0.975798
vn -0.037973 -0.215353  0.975798
vn -0.000000 -0.218675  0.975798
vn  0.037973 -0.215353  0.975798
vn  0.074791 -0.205487  0.975798
vn  0.109337 -0.189378  0.975798
vn  0.140562 -0.167515  0.975798
vn  0.167515 -0.140562  0.975798
vn  0.189378 -0.109337  0.975798
vn  0.205487 -0.074791  0.975798
vn  0.215353 -0.037973  0.975798
vn  0.183502 -0.000000  0.983019
vn  0.180714  0.031865  0.983019
vn  0.172436  0.062761  0.983019
vn  0.158917  0.091751  0.983019
vn  0.140571  0.117953  0.983019
vn  0.117953  0.140571  0.983019
vn  0.091751  0.158917  0.983019
vn  0.062761  0.172436  0.983019
vn  0.031865  0.180714  0.983019
vn  0.000000  0.183502  0.983019
vn -0.031865  0.180714  0.983019
vn -0.062761  0.172436  0.983019
vn -0.091751  0.158917  0.983019
vn -0.117953  0.140571  0.983019
vn -0.140571  0.117953  0.983019
vn -0.158917  0.091751  0.983019
vn -0.172436  0.062761  0.983019
vn -0.180714  0.031865  0.983019
vn -0.183502  0.000000  0.983019
vn -0.180714 -0.031865  0.983019
vn -0.172436 -0.062761  0.983019
vn -0.158917 -0.091751  0.983019
vn -0.140571 -0.117953  0.983019
vn -0.117953 -0.140571  0.983019
vn -0.091751 -0.158917  0.983019
vn -0.062761 -0.172436  0.983019
vn -0.031865 -0.180714  0.983019
vn -0.000000 -0.183502  0.983019
vn  0.031865 -0.180714  0.983019
vn  0.062761 -0.172436  0.983019
vn  0.091751 -0.158917  0.983019
vn  0.117953 -0.140571  0.983019
vn  0.140571 -0.117953  0.983019
vn  0.158917 -0.091751  0.983019
vn  0.172436 -0.062761  0.983019
vn  0.180714 -0.031865  0.983019
vn  0.150480  0.000000  0.988613
vn  0.148194  0.026131  0.988613
vn  0.141405  0.051467  0.988613
vn  0.130320  0.075240  0.988613
vn  0.115274  0.096727  0.988613
vn  0.096727  0.115274  0.988613
vn  0.075240  0.130320  0.988613
vn  0.051467  0.141405  0.988613
vn  0.026131  0.148194  0.988613
vn  0.000000  0.150480  0.988613
vn -0.026131  0.148194  0.988613
vn -0.051467  0.141405  0.988613
vn -0.075240  0.130320  0.988613
vn -0.096727  0.115274  0.988613
vn -0.115274  0.096727  0.988613
vn -0.130320  0.075240  0.988613
vn -0.141405  0.051467  0.988613
vn -0.148194  0.026131  0.988613
vn -0.150480  0.000000  0.988613
vn -0.148194 -0.026131  0.988613
vn -0.141405 -0.051467  0.988613
vn -0.130320 -0.075240  0.988613
vn -0.115274 -0.096727  0.988613
vn -0.096727 -0.115274  0.988613
vn -0.075240 -0.130320  0.988613
vn -0.051467 -0.141405  0.988613
vn -0.026131 -0.148194  0.988613
vn -0.000000 -0.150480  0.988613
vn  0.026131 -0.148194  0.988613
vn  0.051467 -0.141405  0.988613
vn  0.075240 -0.130320  0.988613
vn  0.096727 -0.115274  0.988613
vn  0.115274 -0.096727  0.988613
vn  0.130320 -0.075240  0.988613
vn  0.141405 -0.051467  0.988613
vn  0.148194 -0.026131  0.988613
vn  0.119209  0.000000  0.992869
vn  0.117398  0.020701  0.992869
vn  0.112020  0.040772  0.992869
vn  0.103238  0.059605  0.992869
vn  0.091320  0.076626  0.992869
vn  0.076626  0.091320  0.992869
vn  0.059605  0.103238  0.992869
vn  0.040772  0.112020  0.992869
vn  0.020701  0.117398  0.992869
vn  0.000000  0.119209  0.992869
vn -0.020701  0.117398  0.992869
vn -0.040772  0.112020  0.992869
vn -0.059605  0.103238  0.992869
vn -0.076626  0.091320  0.992869
vn -0.091320  0.076626  0.992869
vn -0.103238  0.059605  0.992869
vn -0.112020  0.040772  0.992869
vn -0.117398  0.020701  0.992869
vn -0.119209  0.000000  0.992869
vn -0.117398 -0.020701  0.992869
vn -0.112020 -0.040772  0.992869
vn -0.103238 -0.059605  0.992869
vn -0.091320 -0.076626  0.992869
vn -0.076626 -0.091320  0.992869
vn -0.059605 -0.103238  0.992869
vn -0.040772 -0.112020  0.992869
vn -0.020701 -0.117398  0.992869
vn -0.000000 -0.119209  0.992869
vn  0.020701 -0.117398  0.992869
vn  0.040772 -0.112020  0.992869
vn  0.059605 -0.103238  0.992869
vn  0.076626 -0.091320  0.992869
vn  0.091320 -0.076626  0.992869
vn  0.103238 -0.059605  0.992869
vn  0.112020 -0.040772  0.992869
vn  0.117398 -0.020701  0.992869
vn  0.089419  0.000000  0.995994
vn  0.088060  0.015527  0.995994
vn  0.084026  0.030583  0.995994
vn  0.077439  0.044709  0.995994
vn  0.068499  0.057477  0.995994
vn  0.057477  0.068499  0.995994
vn  0.044709  0.077439  0.995994
vn  0.030583  0.084026  0.995994
vn  0.015527  0.088060  0.995994
vn  0.000000  0.089419  0.995994
vn -0.015527  0.088060  0.995994
vn -0.030583  0.084026  0.995994
vn -0.044709  0.077439  0.995994
vn -0.057477  0.068499  0.995994
vn -0.068499  0.057477  0.995994
vn -0.077439  0.044709  0.995994
vn -0.084026  0.030583  0.995994
vn -0.088060  0.015527  0.995994
vn -0.089419  0.000000  0.995994
vn -0.088060 -0.015527  0.995994
vn -0.084026 -0.030583  0.995994
vn -0.077439 -0.044709  0.995994
vn -0.068499 -0.057477  0.995994
vn -0.057477 -0.068499  0.995994
vn -0.044709 -0.077439  0.995994
vn -0.030583 -0.084026  0.995994
vn -0.015527 -0.088060  0.995994
vn -0.000000 -0.089419  0.995994
vn  0.015527 -0.088060  0.995994
vn  0.030583 -0.084026  0.995994
vn  0.044709 -0.077439  0.995994
vn  0.057477 -0.068499  0.995994
vn  0.068499 -0.057477  0.995994
vn  0.077439 -0.044709  0.995994
vn  0.084026 -0.030583  0.995994
vn  0.088060 -0.015527  0.995994
vn  0.061119  0.000000  0.998131
vn  0.060190  0.010613  0.998131
vn  0.057433  0.020904  0.998131
vn  0.052930  0.030559  0.998131
vn  0.046820  0.039286  0.998131
vn  0.039286  0.046820  0.998131
vn  0.030559  0.052930  0.998131
vn  0.020904  0.057433  0.998131
vn  0.010613  0.060190  0.998131
vn  0.000000  0.061119  0.998131
vn -0.010613  0.060190  0.998131
vn -0.020904  0.057433  0.998131
vn -0.030559  0.052930  0.998131
vn -0.039286  0.046820  0.998131
vn -0.046820  0.039286  0.998131
vn -0.052930  0.030559  0.998131
vn -0.057433  0.020904  0.998131
vn -0.060190  0.010613  0.998131
vn -0.061119  0.000000  0.998131
vn -0.060190 -0.010613  0.998131
vn -0.057433 -0.020904  0.998131
vn -0.052930 -0.030559  0.998131
vn -0.046820 -0.039286  0.998131
vn -0.039286 -0.046820  0.998131
vn -0.030559 -0.052930  0.998131
vn -0.020904 -0.057433  0.998131
vn -0.010613 -0.060190  0.998131
vn -0.000000 -0.061119  0.998131
vn  0.010613 -0.060190  0.998131
vn  0.020904 -0.057433  0.998131
vn  0.030559 -0.052930  0.998131
vn  0.039286 -0.046820  0.998131
vn  0.046820 -0.039286  0.998131
vn  0.052930 -0.030559  0.998131
vn  0.057433 -0.020904  0.998131
vn  0.060190 -0.010613  0.998131
vn  0.035784 -0.000000  0.999360
vn  0.035240  0.006214  0.999360
vn  0.033626  0.012239  0.999360
vn  0.030990  0.017892  0.999360
vn  0.027412  0.023001  0.999360
vn  0.023001  0.027412  0.999360
vn  0.017892  0.030990  0.999360
vn  0.012239  0.033626  0.999360
vn  0.006214  0.035240  0.999360
vn -0.000000  0.035784  0.999360
vn -0.006214  0.035240  0.999360
vn -0.012239  0.033626  0.999360
vn -0.017892  0.030990  0.999360
vn -0.023001  0.027412  0.999360
vn -0.027412  0.023001  0.999360
vn -0.030990  0.017892  0.999360
vn -0.033626  0.012239  0.999360
vn -0.035240  0.006214  0.999360
vn -0.035784  0.000000  0.999360
vn -0.035240 -0.006214  0.999360
vn -0.033626 -0.012239  0.999360
vn -0.030990 -0.017892  0.999360
vn -0.027412 -0.023001  0.999360
vn -0.023001 -0.027412  0.999360
vn -0.017892 -0.030990  0.999360
vn -0.012239 -0.033626  0.999360
vn -0.006214 -0.035240  0.999360
vn -0.000000 -0.035784  0.999360
vn  0.006214 -0.035240  0.999360
vn  0.012239 -0.033626  0.999360
vn  0.017892 -0.030990  0.999360
vn  0.023001 -0.027412  0.999360
vn  0.027412 -0.023001  0.999360
vn  0.030990 -0.017892  0.999360
vn  0.033626 -0.012239  0.999360
vn  0.035240 -0.006214  0.999360
vn  0.014286 -0.000000  0.999898
vn  0.014069  0.002481  0.999898
vn  0.013424  0.004886  0.999898
vn  0.012372  0.007143  0.999898
vn  0.010944  0.009183  0.999898
vn  0.009183  0.010944  0.999898
vn  0.007143  0.012372  0.999898
vn  0.004886  0.013424  0.999898
vn  0.002481  0.014069  0.999898
vn -0.000000  0.014286  0.999898
vn -0.002481  0.014069  0.999898
vn -0.004886  0.013424  0.999898
vn -0.007143  0.012372  0.999898
vn -0.009183  0.010944  0.999898
vn -0.010944  0.009183  0.999898
vn -0.012372  0.007143  0.999898
vn -0.013424  0.004886  0.999898
vn -0.014069  0.002481  0.999898
vn -0.014286  0.000000  0.999898
vn -0.014069 -0.002481  0.999898
vn -0.013424 -0.004886  0.999898
vn -0.012372 -0.007143  0.999898
vn -0.010944 -0.009183  0.999898
vn -0.009183 -0.010944  0.999898
vn -0.007143 -0.012372  0.999898
vn -0.004886 -0.013424  0.999898
vn -0.002481 -0.014069  0.999898
vn -0.000000 -0.014286  0.999898
vn  0.002481 -0.014069  0.999898
vn  0.004886 -0.013424  0.999898
vn  0.007143 -0.012372  0.999898
vn  0.009183 -0.010944  0.999898
vn  0.010944 -0.009183  0.999898
vn  0.012372 -0.007143  0.999898
vn  0.013424 -0.004886  0.999898
vn  0.014069 -0.002481  0.999898
vn  0.000000  0.000000 -1.000000

f 1//1 2//2 3//3
f 1//1 3//3 4//4
f 5//5 6//6 7//7
f 5//5 7//7 8//8
f 9//9 10//10 11//11
f 9//9 11//11 12//12
f 13//13 14//14 15//15
f 13//13 15//15 16//16
f 17//17 18//18 19//19
f 17//17 19//19 20//20
f 21//21 22//22 23//23
f 21//21 23//23 24//24
f 25//25 26//26 27//27
f 25//25 27//27 28//28
f 29//29 30//30 31//31
f 29//29 31//31 32//32
f 33//33 34//34 35//35
f 33//33 35//35 36//36
f 37//37 38//38 39//39
f 37//37 39//39 40//40
f 41//41 42//42 43//43
f 41//41 43//43 44//44
f 45//45 46//46 47//47
f 45//45 47//47 48//48
f 49//49 50//50 86//86
f 49//49 86//86 85//85
f 50//50 51//51 87//87
f 50//50 87//87 86//86
f 51//51 52//52 88//88
f 51//51 88//88 87//87
f 52//52 53//53 89//89
f 52//52 89//89 88//88
f 53//53 54//54 90//90
f 53//53 90//90 89//89
f 54//54 55//55 91//91
f 54//54 91//91 90//90
f 55//55 56//56 92//92
f 55//55 92//92 91//91
f 56//56 57//57 93//93
f 56//56 93//93 92//92
f 57//57 58//58 94//94
f 57//57 94//94 93//93
f 58//58 59//59 95//95
f 58//58 95//95 94//94
f 59//59 60//60 96//96
f 59//59 96//96 95//95
f 60//60 61//61 97//97
f 60//60 97//97 96//96
f 61//61 62//62 98//98
f 61//61 98//98 97//97
f 62//62 63//63 99//99
f 62//62 99//99 98//98
f 63//63 64//64 100//100
f 63//63 100//100 99//99
f 64//64 65//65 101//101
f 64//64 101//101 100//100
f 65//65 66//66 102//102
f 65//65 102//102 101//101
f 66//66 67//67 103//103
f 66//66 103//103 102//102
f 67//67 68//68 104//104
f 67//67 104//104 103//103
f 68//68 69//69 105//105
f 68//68 105//105 104//104
f 69//69 70//70 106//106
f 69//69 106//106 105//105
f 70//70 71//71 107//107
f 70//70 107//107 106//106
f 71//71 72//72 108//108
f 71//71 108//108 107//107
f 72//72 73//73 109//109
f 72//72 109//109 108//108
f 73//73 74//74 110//110
f 73//73 110//110 109//109
f 74//74 75//75 111//111
f 74//74 111//111 110//110
f 75//75 76//76 112//112
f 75//75 112//112 111//111
f 76//76 77//77 113//113
f 76//76 113//113 112//112
f 77//77 78//78 114//114
f 77//77 114//114 113//113
f 78//78 79//79 115//115
f 78//78 115//115 114//114
f 79//79 80//80 116//116
f 79//79 116//116 115//115
f 80//80 81//81 117//117
f 80//80 117//117 116//116
f 81//81 82//82 118//118
f 81//81 118//118 117//117
f 82//82 83//83 119//119
f 82//82 119//119 118//118
f 83//83 84//84 120//120
f 83//83 120//120 119//119
f 84//84 49//49 85//85
f 84//84 85//85 120//120
f 85//85 86//86 122//122
f 85//85 122//122 121//121
f 86//86 87//87 123//123
f 86//86 123//123 122//122
f 87//87 88//88 124//124
f 87//87 124//124 123//123
f 88//88 89//89 125//125
f 88//88 125//125 124//124
f 89//89 90//90 126//126
f 89//89 126//126 125//125
f 90//90 91//91 127//127
f 90//90 127//127 126//126
f 91//91 92//92 128//128
f 91//91 128//128 127//127
f 92//92 93//93 129//129
f 92//92 129//129 128//128
f 93//93 94//94 130//130
f 93//93 130//130 129//129
f 94//94 95//95 131//131
f 94//94 131//131 130//130
f 95//95 96//96 132//132
f 95//95 132//132 131//131
f 96//96 97//97 133//133
f 96//96 133//133 132//132
f 97//97 98//98 134//134
f 97//97 134//134 133//133
f 98//98 99//99 135//135
f 98//98 135//135 134//134
f 99//99 100//100 136//136
f 99//99 136//136 135//135
f 100//100 101//101 137//137
f 100//100 137//137 136//136
f 101//101 102//102 138//138
f 101//101 138//138 137//137
f 102//102 103//103 139//139
f 102//102 139//139 138//138
f 103//103 104//104 140//140
f 103//103 140//140 139//139
f 104//104 105//105 141//141
f 104//104 141//141 140//140
f 105//105 106//106 142//142
f 105//105 142//142 141//141
f 106//106 107//107 143//143
f 106//106 143//143 142//142
f 107//107 108//108 144//144
f 107//107 144//144 143//143
f 108//108 109//109 145//145
f 108//108 145//145 144//144
f 109//109 110//110 146//146
f 109//109 146//146 145//145
f 110//110 111//111 147//147
f 110//110 147//147 146//146
f 111//111 112//112 148//148
f 111//111 148//148 147//147
f 112//112 113//113 149//149
f 112//112 149//149 148//148
f 113//113 114//114 150//150
f 113//113 150//150 149//149
f 114//114 115//115 151//151
f 114//114 151//151 150//150
f 115//115 116//116 152//152
f 115//115 152//152 151//151
f 116//116 117//117 153//153
f 116//116 153//153 152//152
f 117//117 118//118 154//154
f 117//117 154//154 153//153
f 118//118 119//119 155//155
f 118//118 155//155 154//154
f 119//119 120//120 156//156
f 119//119 156//156 155//155
f 120//120 85//85 121//121
f 120//120 121//121 156//156
f 121//121 122//122 158//158
f 121//121 158//158 157//157
f 122//122 123//123 159//159
f 122//122 159//159 158//158
f 123//123 124//124 160//160
f 123//123 160//160 159//159
f 124//124 125//125 161//161
f 124//124 161//161 160//160
f 125//125 126//126 162//162
f 125//125 162//162 161//161
f 126//126 127//127 163//163
f 126//126 163//163 162//162
f 127//127 128//128 164//164
f 127//127 164//164 163//163
f 128//128 129//129 165//165
f 128//128 165//165 164//164
f 129//129 130//130 166//166
f 129//129 166//166 165//165
f 130//130 131//131 167//167
f 130//130 167//167 166//166
f 131//131 132//132 168//168
f 131//131 168//168 167//167
f 132//132 133//133 169//169
f 132//132 169//169 168//168
f 133//133 134//134 170//170
f 133//133 170//170 169//169
f 134//134 135//135 171//171
f 134//134 171//171 170//170
f 135//135 136//136 172//172
f 135//135 172//172 171//171
f 136//136 137//137 173//173
f 136//136 173//173 172//172
f 137//137 138//138 174//174
f 137//137 174//174 173//173
f 138//138 139//139 175//175
f 138//138 175//175 174//174
f 139//139 140//140 176//176
f 139//139 176//176 175//175
f 140//140 141//141 177//177
f 140//140 177//177 176//176
f 141//141 142//142 178//178
f 141//141 178//178 177//177
f 142//142 143//143 179//179
f 142//142 179//179 178//178
f 143//143 144//144 180//180
f 143//143 180//180 179//179
f 144//144 145//145 181//181
f 144//144 181//181 180//180
f 145//145 146//146 182//182
f 145//145 182//182 181//181
f 146//146 147//147 183//183
f 146//146 183//183 182//182
f 147//147 148//148 184//184
f 147//147 184//184 183//183
f 148//148 149//149 185//185
f 148//148 185//185 184//184
f 149//149 150//150 186//186
f 149//149 186//186 185//185
f 150//150 151//151 187//187
f 150//150 187//187 186//186
f 151//151 152//152 188//188
f 151//151 188//188 187//187
f 152//152 153//153 189//189
f 152//152 189//189 188//188
f 153//153 154//154 190//190
f 153//153 190//190 189//189
f 154//154 155//155 191//191
f 154//154 191//191 190//190
f 155//155 156//156 192//192
f 155//155 192//192 191//191
f 156//156 121//121 157//157
f 156//156 157//157 192//192
f 157//157 158//158 194//194
f 157//157 194//194 193//193
f 158//158 159//159 195//195
f 158//158 195//195 194//194
f 159//159 160//160 196//196
f 159//159 196//196 195//195
f 160//160 161//161 197//197
f 160//160 197//197 196//196
f 161//161 162//162 198//198
f 161//161 198//198 197//197
f 162//162 163//163 199//199
f 162//162 199//199 198//198
f 163//163 164//164 200//200
f 163//163 200//200 199//199
f 164//164 165//165 201//201
f 164//164 201//201 200//200
f 165//165 166//166 202//202
f 165//165 202//202 201//201
f 166//166 167//167 203//203
f 166//166 203//203 202//202
f 167//167 168//168 204//204
f 167//167 204//204 203//203
f 168//168 169//169 205//205
f 168//168 205//205 204//204
f 169//169 170//170 206//206
f 169//169 206//206 205//205
f 170//170 171//171 207//207
f 170//170 207//207 206//206
f 171//171 172//172 208//208
f 171//171 208//208 207//207
f 172//172 173//173 209//209
f 172//172 209//209 208//208
f 173//173 174//174 210//210
f 173//173 210//210 209//209
f 174//174 175//175 211//211
f 174//174 211//211 210//210
f 175//175 176//176 212//212
f 175//175 212//212 211//211
f 176//176 177//177 213//213
f 176//176 213//213 212//212
f 177//177 178//178 214//214
f 177//177 214//214 213//213
f 178//178 179//179 215//215
f 178//178 215//215 214//214
f 179//179 180//180 216//216
f 179//179 216//216 215//215
f 180//180 181//181 217//217
f 180//180 217//217 216//216
f 181//181 182//182 218//218
f 181//181 218//218 217//217
f 182//182 183//183 219//219
f 182//182 219//219 218//218
f 183//183 184//184 220//220
f 183//183 220//220 219//219
f 184//184 185//185 221//221
f 184//184 221//221 220//220
f 185//185 186//186 222//222
f 185//185 222//222 221//221
f 186//186 187//187 223//223
f 186//186 223//223 222//222
f 187//187 188//188 224//224
f 187//187 224//224 223//223
f 188//188 189//189 225//225
f 188//188 225//225 224//224
f 189//189 190//190 226//226
f 189//189 226//226 225//225
f 190//190 191//191 227//227
f 190//190 227//227 226//226
f 191//191 192//192 228//228
f 191//191 228//228 227//227
f 192//192 157//157 193//193
f 192//192 193//193 228//228
f 193//193 194//194 230//230
f 193//193 230//230 229//229
f 194//194 195//195 231//231
f 194//194 231//231 230//230
f 195//195 196//196 232//232
f 195//195 232//232 231//231
f 196//196 197//197 233//233
f 196//196 233//233 232//232
f 197//197 198//198 234//234
f 197//197 234//234 233//233
f 198//198 199//199 235//235
f 198//198 235//235 234//234
f 199//199 200//200 236//236
f 199//199 236//236 235//235
f 200//200 201//201 237//237
f 200//200 237//237 236//236
f 201//201 202//202 238//238
f 201//201 238//238 237//237
f 202//202 203//203 239//239
f 202//202 239//239 238//238
f 203//203 204//204 240//240
f 203//203 240//240 239//239
f 204//204 205//205 241//241
f 204//204 241//241 240//240
f 205//205 206//206 242//242
f 205//205 242//242 241//241
f 206//206 207//207 243//243
f 206//206 243//243 242//242
f 207//207 208//208 244//244
f 207//207 244//244 243//243
f 208//208 209//209 245//245
f 208//208 245//245 244//244
f 209//209 210//210 246//246
f 209//209 246//246 245//245
f 210//210 211//211 247//247
f 210//210 247//247 246//246
f 211//211 212//212 248//248
f 211//211 248//248 247//247
f 212//212 213//213 249//249
f 212//212 249//249 248//248
f 213//213 214//214 250//250
f 213//213 250//250 249//249
f 214//214 215//215 251//251
f 214//214 251//251 250//250
f 215//215 216//216 252//252
f 215//215 252//252 251//251
f 216//216 217//217 253//253
f 216//216 253//253 252//252
f 217//217 218//218 254//254
f 217//217 254//254 253//253
f 218//218 219//219 255//255
f 218//218 255//255 254//254
f 219//219 220//220 256//256
f 219//219 256//256 255//255
f 220//220 221//221 257//257
f 220//220 257//257 256//256
f 221//221 222//222 258//258
f 221//221 258//258 257//257
f 222//222 223//223 259//259
f 222//222 259//259 258//258
f 223//223 224//224 260//260
f 223//223 260//260 259//259
f 224//224 225//225 261//261
f 224//224 261//261 260//260
f 225//225 226//226 262//262
f 225//225 262//262 261//261
f 226//226 227//227 263//263
f 226//226 263//263 262//262
f 227//227 228//228 264//264
f 227//227 264//264 263//263
f 228//228 193//193 229//229
f 228//228 229//229 264//264
f 229//229 230//230 266//266
f 229//229 266//266 265//265
f 230//230 231//231 267//267
f 230//230 267//267 266//266
f 231//231 232//232 268//268
f 231//231 268//268 267//267
f 232//232 233//233 269//269
f 232//232 269//269 268//268
f 233//233 234//234 270//270
f 233//233 270//270 269//269
f 234//234 235//235 271//271
f 234//234 271//271 270//270
f 235//235 236//236 272//272
f 235//235 272//272 271//271
f 236//236 237//237 273//273
f 236//236 273//273 272//272
f 237//237 238//238 274//274
f 237//237 274//274 273//273
f 238//238 239//239 275//275
f 238//238 275//275 274//274
f 239//239 240//240 276//276
f 239//239 276//276 275//275
f 240//240 241//241 277//277
f 240//240 277//277 276//276
f 241//241 242//242 278//278
f 241//241 278//278 277//277
f 242//242 243//243 279//279
f 242//242 279//279 278//278
f 243//243 244//244 280//280
f 243//243 280//280 279//279
f 244//244 245//245 281//281
f 244//244 281//281 280//280
f 245//245 246//246 282//282
f 245//245 282//282 281//281
f 246//246 247//247 283//283
f 246//246 283//283 282//282
f 247//247 248//248 284//284
f 247//247 284//284 283//283
f 248//248 249//249 285//285
f 248//248 285//285 284//284
f 249//249 250//250 286//286
f 249//249 286//286 285//285
f 250//250 251//251 287//287
f 250//250 287//287 286//286
f 251//251 252//252 288//288
f 251//251 288//288 287//287
f 252//252 253//253 289//289
f 252//252 289//289 288//288
f 253//253 254//254 290//290
f 253//253 290//290 289//289
f 254//254 255//255 291//291
f 254//254 291//291 290//290
f 255//255 256//256 292//292
f 255//255 292//292 291//291
f 256//256 257//257 293//293
f 256//256 293//293 292//292
f 257//257 258//258 294//294
f 257//257 294//294 293//293
f 258//258 259//259 295//295
f 258//258 295//295 294//294
f 259//259 260//260 296//296
f 259//259 296//296 295//295
f 260//260 261//261 297//297
f 260//260 297//297 296//296
f 261//261 262//262 298//298
f 261//261 298//298 297//297
f 262//262 263//263 299//299
f 262//262 299//299 298//298
f 263//263 264//264 300//300
f 263//263 300//300 299//299
f 264//264 229//229 265//265
f 264//264 265//265 300//300
f 265//265 266//266 302//302
f 265//265 302//302 301//301
f 266//266 267//267 303//303
f 266//266 303//303 302//302
f 267//267 268//268 304//304
f 267//267 304//304 303//303
f 268//268 269//269 305//305
f 268//268 305//305 304//304
f 269//269 270//270 306//306
f 269//269 306//306 305//305
f 270//270 271//271 307//307
f 270//270 307//307 306//306
f 271//271 272//272 308//308
f 271//271 308//308 307//307
f 272//272 273//273 309//309
f 272//272 309//309 308//308
f 273//273 274//274 310//310
f 273//273 310//310 309//309
f 274//274 275//275 311//311
f 274//274 311//311 310//310
f 275//275 276//276 312//312
f 275//275 312//312 311//311
f 276//276 277//277 313//313
f 276//276 313//313 312//312
f 277//277 278//278 314//314
f 277//277 314//314 313//313
f 278//278 279//279 315//315
f 278//278 315//315 314//314
f 279//279 280//280 316//316
f 279//279 316//316 315//315
f 280//280 281//281 317//317
f 280//280 317//317 316//316
f 281//281 282//282 318//318
f 281//281 318//318 317//317
f 282//282 283//283 319//319
f 282//282 319//319 318//318
f 283//283 284//284 320//320
f 283//283 320//320 319//319
f 284//284 285//285 321//321
f 284//284 321//321 320//320
f 285//285 286//286 322//322
f 285//285 322//322 321//321
f 286//286 287//287 323//323
f 286//286 323//323 322//322
f 287//287 288//288 324//324
f 287//287 324//324 323//323
f 288//288 289//289 325//325
f 288//288 325//325 324//324
f 289//289 290//290 326//326
f 289//289 326//326 325//325
f 290//290 291//291 327//327
f 290//290 327//327 326//326
f 291//291 292//292 328//328
f 291//291 328//328 327//327
f 292//292 293//293 329//329
f 292//292 329//329 328//328
f 293//293 294//294 330//330
f 293//293 330//330 329//329
f 294//294 295//295 331//331
f 294//294 331//331 330//330
f 295//295 296//296 332//332
f 295//295 332//332 331//331
f 296//296 297//297 333//333
f 296//296 333//333 332//332
f 297//297 298//298 334//334
f 297//297 334//334 333//333
f 298//298 299//299 335//335
f 298//298 335//335 334//334
f 299//299 300//300 336//336
f 299//299 336//336 335//335
f 300//300 265//265 301//301
f 300//300 301//301 336//336
f 301//301 302//302 338//338
f 301//301 338//338 337//337
f 302//302 303//303 339//339
f 302//302 339//339 338//338
f 303//303 304//304 340//340
f 303//303 340//340 339//339
f 304//304 305//305 341//341
f 304//304 341//341 340//340
f 305//305 306//306 342//342
f 305//305 342//342 341//341
f 306//306 307//307 343//343
f 306//306 343//343 342//342
f 307//307 308//308 344//344
f 307//307 344//344 343//343
f 308//308 309//309 345//345
f 308//308 345//345 344//344
f 309//309 310//310 346//346
f 309//309 346//346 345//345
f 310//310 311//311 347//347
f 310//310 347//347 346//346
f 311//311 312//312 348//348
f 311//311 348//348 347//347
f 312//312 313//313 349//349
f 312//312 349//349 348//348
f 313//313 314//314 350//350
f 313//313 350//350 349//349
f 314//314 315//315 351//351
f 314//314 351//351 350//350
f 315//315 316//316 352//352
f 315//315 352//352 351//351
f 316//316 317//317 353//353
f 316//316 353//353 352//352
f 317//317 318//318 354//354
f 317//317 354//354 353//353
f 318//318 319//319 355//355
f 318//318 355//355 354//354
f 319//319 320//320 356//356
f 319//319 356//356 355//355
f 320//320 321//321 357//357
f 320//320 357//357 356//356
f 321//321 322//322 358//358
f 321//321 358//358 357//357
f 322//322 323//323 359//359
f 322//322 359//359 358//358
f 323//323 324//324 360//360
f 323//323 360//360 359//359
f 324//324 325//325 361//361
f 324//324 361//361 360//360
f 325//325 326//326 362//362
f 325//325 362//362 361//361
f 326//326 327//327 363//363
f 326//326 363//363 362//362
f 327//327 328//328 364//364
f 327//327 364//364 363//363
f 328//328 329//329 365//365
f 328//328 365//365 364//364
f 329//329 330//330 366//366
f 329//329 366//366 365//365
f 330//330 331//331 367//367
f 330//330 367//367 366//366
f 331//331 332//332 368//368
f 331//331 368//368 367//367
f 332//332 333//333 369//369
f 332//332 369//369 368//368
f 333//333 334//334 370//370
f 333//333 370//370 369//369
f 334//334 335//335 371//371
f 334//334 371//371 370//370
f 335//335 336//336 372//372
f 335//335 372//372 371//371
f 336//336 301//301 337//337
f 336//336 337//337 372//372
f 337//337 338//338 374//374
f 337//337 374//374 373//373
f 338//338 339//339 375//375
f 338//338 375//375 374//374
f 339//339 340//340 376//376
f 339//339 376//376 375//375
f 340//340 341//341 377//377
f 340//340 377//377 376//376
f 341//341 342//342 378//378
f 341//341 378//378 377//377
f 342//342 343//343 379//379
f 342//342 379//379 378//378
f 343//343 344//344 380//380
f 343//343 380//380 379//379
f 344//344 345//345 381//381
f 344//344 381//381 380//380
f 345//345 346//346 382//382
f 345//345 382//382 381//381
f 346//346 347//347 383//383
f 346//346 383//383 382//382
f 347//347 348//348 384//384
f 347//347 384//384 383//383
f 348//348 349//349 385//385
f 348//348 385//385 384//384
f 349//349 350//350 386//386
f 349//349 386//386 385//385
f 350//350 351//351 387//387
f 350//350 387//387 386//386
f 351//351 352//352 388//388
f 351//351 388//388 387//387
f 352//352 353//353 389//389
f 352//352 389//389 388//388
f 353//353 354//354 390//390
f 353//353 390//390 389//389
f 354//354 355//355 391//391
f 354//354 391//391 390//390
f 355//355 356//356 392//392
f 355//355 392//392 391//391
f 356//356 357//357 393//393
f 356//356 393//393 392//392
f 357//357 358//358 394//394
f 357//357 394//394 393//393
f 358//358 359//359 395//395
f 358//358 395//395 394//394
f 359//359 360//360 396//396
f 359//359 396//396 395//395
f 360//360 361//361 397//397
f 360//360 397//397 396//396
f 361//361 362//362 398//398
f 361//361 398//398 397//397
f 362//362 363//363 399//399
f 362//362 399//399 398//398
f 363//363 364//364 400//400
f 363//363 400//400 399//399
f 364//364 365//365 401//401
f 364//364 401//401 400//400
f 365//365 366//366 402//402
f 365//365 402//402 401//401
f 366//366 367//367 403//403
f 366//366 403//403 402//402
f 367//367 368//368 404//404
f 367//367 404//404 403//403
f 368//368 369//369 405//405
f 368//368 405//405 404//404
f 369//369 370//370 406//406
f 369//369 406//406 405//405
f 370//370 371//371 407//407
f 370//370 407//407 406//406
f 371//371 372//372 408//408
f 371//371 408//408 407//407
f 372//372 337//337 373//373
f 372//372 373//373 408//408
f 373//373 374//374 410//410
f 373//373 410//410 409//409
f 374//374 375//375 411//411
f 374//374 411//411 410//410
f 375//375 376//376 412//412
f 375//375 412//412 411//411
f 376//376 377//377 413//413
f 376//376 413//413 412//412
f 377//377 378//378 414//414
f 377//377 414//414 413//413
f 378//378 379//379 415//415
f 378//378 415//415 414//414
f 379//379 380//380 416//416
f 379//379 416//416 415//415
f 380//380 381//381 417//417
f 380//380 417//417 416//416
f 381//381 382//382 418//418
f 381//381 418//418 417//417
f 382//382 383//383 419//419
f 382//382 419//419 418//418
f 383//383 384//384 420//420
f 383//383 420//420 419//419
f 384//384 385//385 421//421
f 384//384 421//421 420//420
f 385//385 386//386 422//422
f 385//385 422//422 421//421
f 386//386 387//387 423//423
f 386//386 423//423 422//422
f 387//387 388//388 424//424
f 387//387 424//424 423//423
f 388//388 389//389 425//425
f 388//388 425//425 424//424
f 389//389 390//390 426//426
f 389//389 426//426 425//425
f 390//390 391//391 427//427
f 390//390 427//427 426//426
f 391//391 392//392 428//428
f 391//391 428//428 427//427
f 392//392 393//393 429//429
f 392//392 429//429 428//428
f 393//393 394//394 430//430
f 393//393 430//430 429//429
f 394//394 395//395 431//431
f 394//394 431//431 430//430
f 395//395 396//396 432//432
f 395//395 432//432 431//431
f 396//396 397//397 433//433
f 396//396 433//433 432//432
f 397//397 398//398 434//434
f 397//397 434//434 433//433
f 398//398 399//399 435//435
f 398//398 435//435 434//434
f 399//399 400//400 436//436
f 399//399 436//436 435//435
f 400//400 401//401 437//437
f 400//400 437//437 436//436
f 401//401 402//402 438//438
f 401//401 438//438 437//437
f 402//402 403//403 439//439
f 402//402 439//439 438//438
f 403//403 404//404 440//440
f 403//403 440//440 439//439
f 404//404 405//405 441//441
f 404//404 441//441 440//440
f 405//405 406//406 442//442
f 405//405 442//442 441//441
f 406//406 407//407 443//443
f 406//406 443//443 442//442
f 407//407 408//408 444//444
f 407//407 444//444 443//443
f 408//408 373//373 409//409
f 408//408 409//409 444//444
f 409//409 410//410 446//446
f 409//409 446//446 445//445
f 410//410 411//411 447//447
f 410//410 447//447 446//446
f 411//411 412//412 448//448
f 411//411 448//448 447//447
f 412//412 413//413 449//449
f 412//412 449//449 448//448
f 413//413 414//414 450//450
f 413//413 450//450 449//449
f 414//414 415//415 451//451
f 414//414 451//451 450//450
f 415//415 416//416 452//452
f 415//415 452//452 451//451
f 416//416 417//417 453//453
f 416//416 453//453 452//452
f 417//417 418//418 454//454
f 417//417 454//454 453//453
f 418//418 419//419 455//455
f 418//418 455//455 454//454
f 419//419 420//420 456//456
f 419//419 456//456 455//455
f 420//420 421//421 457//457
f 420//420 457//457 456//456
f 421//421 422//422 458//458
f 421//421 458//458 457//457
f 422//422 423//423 459//459
f 422//422 459//459 458//458
f 423//423 424//424 460//460
f 423//423 460//460 459//459
f 424//424 425//425 461//461
f 424//424 461//461 460//460
f 425//425 426//426 462//462
f 425//425 462//462 461//461
f 426//426 427//427 463//463
f 426//426 463//463 462//462
f 427//427 428//428 464//464
f 427//427 464//464 463//463
f 428//428 429//429 465//465
f 428//428 465//465 464//464
f 429//429 430//430 466//466
f 429//429 466//466 465//465
f 430//430 431//431 467//467
f 430//430 467//467 466//466
f 431//431 432//432 468//468
f 431//431 468//468 467//467
f 432//432 433//433 469//469
f 432//432 469//469 468//468
f 433//433 434//434 470//470
f 433//433 470//470 469//469
f 434//434 435//435 471//471
f 434//434 471//471 470//470
f 435//435 436//436 472//472
f 435//435 472//472 471//471
f 436//436 437//437 473//473
f 436//436 473//473 472//472
f 437//437 438//438 474//474
f 437//437 474//474 473//473
f 438//438 439//439 475//475
f 438//438 475//475 474//474
f 439//439 440//440 476//476
f 439//439 476//476 475//475
f 440//440 441//441 477//477
f 440//440 477//477 476//476
f 441//441 442//442 478//478
f 441//441 478//478 477//477
f 442//442 443//443 479//479
f 442//442 479//479 478//478
f 443//443 444//444 480//480
f 443//443 480//480 479//479
f 444//444 409//409 445//445
f 444//444 445//445 480//480
f 445//445 446//446 482//482
f 445//445 482//482 481//481
f 446//446 447//447 483//483
f 446//446 483//483 482//482
f 447//447 448//448 484//484
f 447//447 484//484 483//483
f 448//448 449//449 485//485
f 448//448 485//485 484//484
f 449//449 450//450 486//486
f 449//449 486//486 485//485
f 450//450 451//451 487//487
f 450//450 487//487 486//486
f 451//451 452//452 488//488
f 451//451 488//488 487//487
f 452//452 453//453 489//489
f 452//452 489//489 488//488
f 453//453 454//454 490//490
f 453//453 490//490 489//489
f 454//454 455//455 491//491
f 454//454 491//491 490//490
f 455//455 456//456 492//492
f 455//455 492//492 491//491
f 456//456 457//457 493//493
f 456//456 493//493 492//492
f 457//457 458//458 494//494
f 457//457 494//494 493//493
f 458//458 459//459 495//495
f 458//458 495//495 494//494
f 459//459 460//460 496//496
f 459//459 496//496 495//495
f 460//460 461//461 497//497
f 460//460 497//497 496//496
f 461//461 462//462 498//498
f 461//461 498//498 497//497
f 462//462 463//463 499//499
f 462//462 499//499 498//498
f 463//463 464//464 500//500
f 463//463 500//500 499//499
f 464//464 465//465 501//501
f 464//464 501//501 500//500
f 465//465 466//466 502//502
f 465//465 502//502 501//501
f 466//466 467//467 503//503
f 466//466 503//503 502//502
f 467//467 468//468 504//504
f 467//467 504//504 503//503
f 468//468 469//469 505//505
f 468//468 505//505 504//504
f 469//469 470//470 506//506
f 469//469 506//506 505//505
f 470//470 471//471 507//507
f 470//470 507//507 506//506
f 471//471 472//472 508//508
f 471//471 508//508 507//507
f 472//472 473//473 509//509
f 472//472 509//509 508//508
f 473//473 474//474 510//510
f 473//473 510//510 509//509
f 474//474 475//475 511//511
f 474//474 511//511 510//510
f 475//475 476//476 512//512
f 475//475 512//512 511//511
f 476//476 477//477 513//513
f 476//476 513//513 512//512
f 477//477 478//478 514//514
f 477//477 514//514 513//513
f 478//478 479//479 515//515
f 478//478 515//515 514//514
f 479//479 480//480 516//516
f 479//479 516//516 515//515
f 480//480 445//445 481//481
f 480//480 481//481 516//516
f 481//481 482//482 518//518
f 481//481 518//518 517//517
f 482//482 483//483 519//519
f 482//482 519//519 518//518
f 483//483 484//484 520//520
f 483//483 520//520 519//519
f 484//484 485//485 521//521
f 484//484 521//521 520//520
f 485//485 486//486 522//522
f 485//485 522//522 521//521
f 486//486 487//487 523//523
f 486//486 523//523 522//522
f 487//487 488//488 524//524
f 487//487 524//524 523//523
f 488//488 489//489 525//525
f 488//488 525//525 524//524
f 489//489 490//490 526//526
f 489//489 526//526 525//525
f 490//490 491//491 527//527
f 490//490 527//527 526//526
f 491//491 492//492 528//528
f 491//491 528//528 527//527
f 492//492 493//493 529//529
f 492//492 529//529 528//528
f 493//493 494//494 530//530
f 493//493 530//530 529//529
f 494//494 495//495 531//531
f 494//494 531//531 530//530
f 495//495 496//496 532//532
f 495//495 532//532 531//531
f 496//496 497//497 533//533
f 496//496 533//533 532//532
f 497//497 498//498 534//534
f 497//497 534//534 533//533
f 498//498 499//499 535//535
f 498//498 535//535 534//534
f 499//499 500//500 536//536
f 499//499 536//536 535//535
f 500//500 501//501 537//537
f 500//500 537//537 536//536
f 501//501 502//502 538//538
f 501//501 538//538 537//537
f 502//502 503//503 539//539
f 502//502 539//539 538//538
f 503//503 504//504 540//540
f 503//503 540//540 539//539
f 504//504 505//505 541//541
f 504//504 541//541 540//540
f 505//505 506//506 542//542
f 505//505 542//542 541//541
f 506//506 507//507 543//543
f 506//506 543//543 542//542
f 507//507 508//508 544//544
f 507//507 544//544 543//543
f 508//508 509//509 545//545
f 508//508 545//545 544//544
f 509//509 510//510 546//546
f 509//509 546//546 545//545
f 510//510 511//511 547//547
f 510//510 547//547 546//546
f 511//511 512//512 548//548
f 511//511 548//548 547//547
f 512//512 513//513 549//549
f 512//512 549//549 548//548
f 513//513 514//514 550//550
f 513//513 550//550 549//549
f 514//514 515//515 551//551
f 514//514 551//551 550//550
f 515//515 516//516 552//552
f 515//515 552//552 551//551
f 516//516 481//481 517//517
f 516//516 517//517 552//552
f 517//517 518//518 554//554
f 517//517 554//554 553//553
f 518//518 519//519 555//555
f 518//518 555//555 554//554
f 519//519 520//520 556//556
f 519//519 556//556 555//555
f 520//520 521//521 557//557
f 520//520 557//557 556//556
f 521//521 522//522 558//558
f 521//521 558//558 557//557
f 522//522 523//523 559//559
f 522//522 559//559 558//558
f 523//523 524//524 560//560
f 523//523 560//560 559//559
f 524//524 525//525 561//561
f 524//524 561//561 560//560
f 525//525 526//526 562//562
f 525//525 562//562 561//561
f 526//526 527//527 563//563
f 526//526 563//563 562//562
f 527//527 528//528 564//564
f 527//527 564//564 563//563
f 528//528 529//529 565//565
f 528//528 565//565 564//564
f 529//529 530//530 566//566
f 529//529 566//566 565//565
f 530//530 531//531 567//567
f 530//530 567//567 566//566
f 531//531 532//532 568//568
f 531//531 568//568 567//567
f 532//532 533//533 569//569
f 532//532 569//569 568//568
f 533//533 534//534 570//570
f 533//533 570//570 569//569
f 534//534 535//535 571//571
f 534//534 571//571 570//570
f 535//535 536//536 572//572
f 535//535 572//572 571//571
f 536//536 537//537 573//573
f 536//536 573//573 572//572
f 537//537 538//538 574//574
f 537//537 574//574 573//573
f 538//538 539//539 575//575
f 538//538 575//575 574//574
f 539//539 540//540 576//576
f 539//539 576//576 575//575
f 540//540 541//541 577//577
f 540//540 577//577 576//576
f 541//541 542//542 578//578
f 541//541 578//578 577//577
f 542//542 543//543 579//579
f 542//542 579//579 578//578
f 543//543 544//544 580//580
f 543//543 580//580 579//579
f 544//544 545//545 581//581
f 544//544 581//581 580//580
f 545//545 546//546 582//582
f 545//545 582//582 581//581
f 546//546 547//547 583//583
f 546//546 583//583 582//582
f 547//547 548//548 584//584
f 547//547 584//584 583//583
f 548//548 549//549 585//585
f 548//548 585//585 584//584
f 549//549 550//550 586//586
f 549//549 586//586 585//585
f 550//550 551//551 587//587
f 550//550 587//587 586//586
f 551//551 552//552 588//588
f 551//551 588//588 587//587
f 552//552 517//517 553//553
f 552//552 553//553 588//588
f 553//553 554//554 590//590
f 553//553 590//590 589//589
f 554//554 555//555 591//591
f 554//554 591//591 590//590
f 555//555 556//556 592//592
f 555//555 592//592 591//591
f 556//556 557//557 593//593
f 556//556 593//593 592//592
f 557//557 558//558 594//594
f 557//557 594//594 593//593
f 558//558 559//559 595//595
f 558//558 595//595 594//594
f 559//559 560//560 596//596
f 559//559 596//596 595//595
f 560//560 561//561 597//597
f 560//560 597//597 596//596
f 561//561 562//562 598//598
f 561//561 598//598 597//597
f 562//562 563//563 599//599
f 562//562 599//599 598//598
f 563//563 564//564 600//600
f 563//563 600//600 599//599
f 564//564 565//565 601//601
f 564//564 601//601 600//600
f 565//565 566//566 602//602
f 565//565 602//602 601//601
f 566//566 567//567 603//603
f 566//566 603//603 602//602
f 567//567 568//568 604//604
f 567//567 604//604 603//603
f 568//568 569//569 605//605
f 568//568 605//605 604//604
f 569//569 570//570 606//606
f 569//569 606//606 605//605
f 570//570 571//571 607//607
f 570//570 607//607 606//606
f 571//571 572//572 608//608
f 571//571 608//608 607//607
f 572//572 573//573 609//609
f 572//572 609//609 608//608
f 573//573 574//574 610//610
f 573//573 610//610 609//609
f 574//574 575//575 611//611
f 574//574 611//611 610//610
f 575//575 576//576 612//612
f 575//575 612//612 611//611
f 576//576 577//577 613//613
f 576//576 613//613 612//612
f 577//577 578//578 614//614
f 577//577 614//614 613//613
f 578//578 579//579 615//615
f 578//578 615//615 614//614
f 579//579 580//580 616//616
f 579//579 616//616 615//615
f 580//580 581//581 617//617
f 580//580 617//617 616//616
f 581//581 582//582 618//618
f 581//581 618//618 617//617
f 582//582 583//583 619//619
f 582//582 619//619 618//618
f 583//583 584//584 620//620
f 583//583 620//620 619//619
f 584//584 585//585 621//621
f 584//584 621//621 620//620
f 585//585 586//586 622//622
f 585//585 622//622 621//621
f 586//586 587//587 623//623
f 586//586 623//623 622//622
f 587//587 588//588 624//624
f 587//587 624//624 623//623
f 588//588 553//553 589//589
f 588//588 589//589 624//624
f 589//589 590//590 626//626
f 589//589 626//626 625//625
f 590//590 591//591 627//627
f 590//590 627//627 626//626
f 591//591 592//592 628//628
f 591//591 628//628 627//627
f 592//592 593//593 629//629
f 592//592 629//629 628//628
f 593//593 594//594 630//630
f 593//593 630//630 629//629
f 594//594 595//595 631//631
f 594//594 631//631 630//630
f 595//595 596//596 632//632
f 595//595 632//632 631//631
f 596//596 597//597 633//633
f 596//596 633//633 632//632
f 597//597 598//598 634//634
f 597//597 634//634 633//633
f 598//598 599//599 635//635
f 598//598 635//635 634//634
f 599//599 600//600 636//636
f 599//599 636//636 635//635
f 600//600 601//601 637//637
f 600//600 637//637 636//636
f 601//601 602//602 638//638
f 601//601 638//638 637//637
f 602//602 603//603 639//639
f 602//602 639//639 638//638
f 603//603 604//604 640//640
f 603//603 640//640 639//639
f 604//604 605//605 641//641
f 604//604 641//641 640//640
f 605//605 606//606 642//642
f 605//605 642//642 641//641
f 606//606 607//607 643//643
f 606//606 643//643 642//642
f 607//607 608//608 644//644
f 607//607 644//644 643//643
f 608//608 609//609 645//645
f 608//608 645//645 644//644
f 609//609 610//610 646//646
f 609//609 646//646 645//645
f 610//610 611//611 647//647
f 610//610 647//647 646//646
f 611//611 612//612 648//648
f 611//611 648//648 647//647
f 612//612 613//613 649//649
f 612//612 649//649 648//648
f 613//613 614//614 650//650
f 613//613 650//650 649//649
f 614//614 615//615 651//651
f 614//614 651//651 650//650
f 615//615 616//616 652//652
f 615//615 652//652 651//651
f 616//616 617//617 653//653
f 616//616 653//653 652//652
f 617//617 618//618 654//654
f 617//617 654//654 653//653
f 618//618 619//619 655//655
f 618//618 655//655 654//654
f 619//619 620//620 656//656
f 619//619 656//656 655//655
f 620//620 621//621 657//657
f 620//620 657//657 656//656
f 621//621 622//622 658//658
f 621//621 658//658 657//657
f 622//622 623//623 659//659
f 622//622 659//659 658//658
f 623//623 624//624 660//660
f 623//623 660//660 659//659
f 624//624 589//589 625//625
f 624//624 625//625 660//660
f 625//625 626//626 662//662
f 625//625 662//662 661//661
f 626//626 627//627 663//663
f 626//626 663//663 662//662
f 627//627 628//628 664//664
f 627//627 664//664 663//663
f 628//628 629//629 665//665
f 628//628 665//665 664//664
f 629//629 630//630 666//666
f 629//629 666//666 665//665
f 630//630 631//631 667//667
f 630//630 667//667 666//666
f 631//631 632//632 668//668
f 631//631 668//668 667//667
f 632//632 633//633 669//669
f 632//632 669//669 668//668
f 633//633 634//634 670//670
f 633//633 670//670 669//669
f 634//634 635//635 671//671
f 634//634 671//671 670//670
f 635//635 636//636 672//672
f 635//635 672//672 671//671
f 636//636 637//637 673//673
f 636//636 673//673 672//672
f 637//637 638//638 674//674
f 637//637 674//674 673//673
f 638//638 639//639 675//675
f 638//638 675//675 674//674
f 639//639 640//640 676//676
f 639//639 676//676 675//675
f 640//640 641//641 677//677
f 640//640 677//677 676//676
f 641//641 642//642 678//678
f 641//641 678//678 677//677
f 642//642 643//643 679//679
f 642//642 679//679 678//678
f 643//643 644//644 680//680
f 643//643 680//680 679//679
f 644//644 645//645 681//681
f 644//644 681//681 680//680
f 645//645 646//646 682//682
f 645//645 682//682 681//681
f 646//646 647//647 683//683
f 646//646 683//683 682//682
f 647//647 648//648 684//684
f 647//647 684//684 683//683
f 648//648 649//649 685//685
f 648//648 685//685 684//684
f 649//649 650//650 686//686
f 649//649 686//686 685//685
f 650//650 651//651 687//687
f 650//650 687//687 686//686
f 651//651 652//652 688//688
f 651//651 688//688 687//687
f 652//652 653//653 689//689
f 652//652 689//689 688//688
f 653//653 654//654 690//690
f 653//653 690//690 689//689
f 654//654 655//655 691//691
f 654//654 691//691 690//690
f 655//655 656//656 692//692
f 655//655 692//692 691//691
f 656//656 657//657 693//693
f 656//656 693//693 692//692
f 657//657 658//658 694//694
f 657//657 694//694 693//693
f 658//658 659//659 695//695
f 658//658 695//695 694//694
f 659//659 660//660 696//696
f 659//659 696//696 695//695
f 660//660 625//625 661//661
f 660//660 661//661 696//696
f 661//661 662//662 698//698
f 661//661 698//698 697//697
f 662//662 663//663 699//699
f 662//662 699//699 698//698
f 663//663 664//664 700//700
f 663//663 700//700 699//699
f 664//664 665//665 701//701
f 664//664 701//701 700//700
f 665//665 666//666 702//702
f 665//665 702//702 701//701
f 666//666 667//667 703//703
f 666//666 703//703 702//702
f 667//667 668//668 704//704
f 667//667 704//704 703//703
f 668//668 669//669 705//705
f 668//668 705//705 704//704
f 669//669 670//670 706//706
f 669//669 706//706 705//705
f 670//670 671//671 707//707
f 670//670 707//707 706//706
f 671//671 672//672 708//708
f 671//671 708//708 707//707
f 672//672 673//673 709//709
f 672//672 709//709 708//708
f 673//673 674//674 710//710
f 673//673 710//710 709//709
f 674//674 675//675 711//711
f 674//674 711//711 710//710
f 675//675 676//676 712//712
f 675//675 712//712 711//711
f 676//676 677//677 713//713
f 676//676 713//713 712//712
f 677//677 678//678 714//714
f 677//677 714//714 713//713
f 678//678 679//679 715//715
f 678//678 715//715 714//714
f 679//679 680//680 716//716
f 679//679 716//716 715//715
f 680//680 681//681 717//717
f 680//680 717//717 716//716
f 681//681 682//682 718//718
f 681//681 718//718 717//717
f 682//682 683//683 719//719
f 682//682 719//719 718//718
f 683//683 684//684 720//720
f 683//683 720//720 719//719
f 684//684 685//685 721//721
f 684//684 721//721 720//720
f 685//685 686//686 722//722
f 685//685 722//722 721//721
f 686//686 687//687 723//723
f 686//686 723//723 722//722
f 687//687 688//688 724//724
f 687//687 724//724 723//723
f 688//688 689//689 725//725
f 688//688 725//725 724//724
f 689//689 690//690 726//726
f 689//689 726//726 725//725
f 690//690 691//691 727//727
f 690//690 727//727 726//726
f 691//691 692//692 728//728
f 691//691 728//728 727//727
f 692//692 693//693 729//729
f 692//692 729//729 728//728
f 693//693 694//694 730//730
f 693//693 730//730 729//729
f 694//694 695//695 731//731
f 694//694 731//731 730//730
f 695//695 696//696 732//732
f 695//695 732//732 731//731
f 696//696 661//661 697//697
f 696//696 697//697 732//732
f 697//697 698//698 734//734
f 697//697 734//734 733//733
f 698//698 699//699 735//735
f 698//698 735//735 734//734
f 699//699 700//700 736//736
f 699//699 736//736 735//735
f 700//700 701//701 737//737
f 700//700 737//737 736//736
f 701//701 702//702 738//738
f 701//701 738//738 737//737
f 702//702 703//703 739//739
f 702//702 739//739 738//738
f 703//703 704//704 740//740
f 703//703 740//740 739//739
f 704//704 705//705 741//741
f 704//704 741//741 740//740
f 705//705 706//706 742//742
f 705//705 742//742 741//741
f 706//706 707//707 743//743
f 706//706 743//743 742//742
f 707//707 708//708 744//744
f 707//707 744//744 743//743
f 708//708 709//709 745//745
f 708//708 745//745 744//744
f 709//709 710//710 746//746
f 709//709 746//746 745//745
f 710//710 711//711 747//747
f 710//710 747//747 746//746
f 711//711 712//712 748//748
f 711//711 748//748 747//747
f 712//712 713//713 749//749
f 712//712 749//749 748//748
f 713//713 714//714 750//750
f 713//713 750//750 749//749
f 714//714 715//715 751//751
f 714//714 751//751 750//750
f 715//715 716//716 752//752
f 715//715 752//752 751//751
f 716//716 717//717 753//753
f 716//716 753//753 752//752
f 717//717 718//718 754//754
f 717//717 754//754 753//753
f 718//718 719//719 755//755
f 718//718 755//755 754//754
f 719//719 720//720 756//756
f 719//719 756//756 755//755
f 720//720 721//721 757//757
f 720//720 757//757 756//756
f 721//721 722//722 758//758
f 721//721 758//758 757//757
f 722//722 723//723 759//759
f 722//722 759//759 758//758
f 723//723 724//724 760//760
f 723//723 760//760 759//759
f 724//724 725//725 761//761
f 724//724 761//761 760//760
f 725//725 726//726 762//762
f 725//725 762//762 761//761
f 726//726 727//727 763//763
f 726//726 763//763 762//762
f 727//727 728//728 764//764
f 727//727 764//764 763//763
f 728//728 729//729 765//765
f 728//728 765//765 764//764
f 729//729 730//730 766//766
f 729//729 766//766 765//765
f 730//730 731//731 767//767
f 730//730 767//767 766//766
f 731//731 732//732 768//768
f 731//731 768//768 767//767
f 732//732 697//697 733//733
f 732//732 733//733 768//768
f 733//733 734//734 770//770
f 733//733 770//770 769//769
f 734//734 735//735 771//771
f 734//734 771//771 770//770
f 735//735 736//736 772//772
f 735//735 772//772 771//771
f 736//736 737//737 773//773
f 736//736 773//773 772//772
f 737//737 738//738 774//774
f 737//737 774//774 773//773
f 738//738 739//739 775//775
f 738//738 775//775 774//774
f 739//739 740//740 776//776
f 739//739 776//776 775//775
f 740//740 741//741 777//777
f 740//740 777//777 776//776
f 741//741 742//742 778//778
f 741//741 778//778 777//777
f 742//742 743//743 779//779
f 742//742 779//779 778//778
f 743//743 744//744 780//780
f 743//743 780//780 779//779
f 744//744 745//745 781//781
f 744//744 781//781 780//780
f 745//745 746//746 782//782
f 745//745 782//782 781//781
f 746//746 747//747 783//783
f 746//746 783//783 782//782
f 747//747 748//748 784//784
f 747//747 784//784 783//783
f 748//748 749//749 785//785
f 748//748 785//785 784//784
f 749//749 750//750 786//786
f 749//749 786//786 785//785
f 750//750 751//751 787//787
f 750//750 787//787 786//786
f 751//751 752//752 788//788
f 751//751 788//788 787//787
f 752//752 753//753 789//789
f 752//752 789//789 788//788
f 753//753 754//754 790//790
f 753//753 790//790 789//789
f 754//754 755//755 791//791
f 754//754 791//791 790//790
f 755//755 756//756 792//792
f 755//755 792//792 791//791
f 756//756 757//757 793//793
f 756//756 793//793 792//792
f 757//757 758//758 794//794
f 757//757 794//794 793//793
f 758//758 759//759 795//795
f 758//758 795//795 794//794
f 759//759 760//760 796//796
f 759//759 796//796 795//795
f 760//760 761//761 797//797
f 760//760 797//797 796//796
f 761//761 762//762 798//798
f 761//761 798//798 797//797
f 762//762 763//763 799//799
f 762//762 799//799 798//798
f 763//763 764//764 800//800
f 763//763 800//800 799//799
f 764//764 765//765 801//801
f 764//764 801//801 800//800
f 765//765 766//766 802//802
f 765//765 802//802 801//801
f 766//766 767//767 803//803
f 766//766 803//803 802//802
f 767//767 768//768 804//804
f 767//767 804//804 803//803
f 768//768 733//733 769//769
f 768//768 769//769 804//804
f 50//50 49//49 805//805
f 51//51 50//50 805//805
f 52//52 51//51 805//805
f 53//53 52//52 805//805
f 54//54 53//53 805//805
f 55//55 54//54 805//805
f 56//56 55//55 805//805
f 57//57 56//56 805//805
f 58//58 57//57 805//805
f 59//59 58//58 805//805
f 60//60 59//59 805//805
f 61//61 60//60 805//805
f 62//62 61//61 805//805
f 63//63 62//62 805//805
f 64//64 63//63 805//805
f 65//65 64//64 805//805
f 66//66 65//65 805//805
f 67//67 66//66 805//805
f 68//68 67//67 805//805
f 69//69 68//68 805//805
f 70//70 69//69 805//805
f 71//71 70//70 805//805
f 72//72 71//71 805//805
f 73//73 72//72 805//805
f 74//74 73//73 805//805
f 75//75 74//74 805//805
f 76//76 75//75 805//805
f 77//77 76//76 805//805
f 78//78 77//77 805//805
f 79//79 78//78 805//805
f 80//80 79//79 805//805
f 81//81 80//80 805//805
f 82//82 81//81 805//805
f 83//83 82//82 805//805
f 84//84 83//83 805//805
f 49//49 84//84 805//805
